<svg width="1024" height="826" viewBox="0 0 1024 826" fill="none" xmlns="http://www.w3.org/2000/svg">
<rect width="1024" height="826" fill="#E2E8F0"/>
<g clip-path="url(#clip0_19_13089)">
<path d="M292 259C292 252.373 297.373 247 304 247H666C672.627 247 678 252.373 678 259V567C678 573.628 672.627 579 666 579H304C297.373 579 292 573.628 292 567V259Z" fill="white"/>
<rect width="386" height="73.0001" transform="translate(292 247)" fill="white"/>
<path d="M663.59 260L657 266.59L650.41 260L649 261.41L655.59 268L649 274.59L650.41 276L657 269.41L663.59 276L665 274.59L658.41 268L665 261.41L663.59 260Z" fill="#7E838F"/>
<path d="M337.59 298.41L335 295.82L336.41 294.41L339 297L343.59 292.41L345 293.82L340.41 298.41C339.63 299.19 338.36 299.19 337.58 298.41H337.59ZM345.71 303.61C347.76 302.33 349 300.09 349 297.67V290C349 288.9 348.1 288 347 288H333C331.9 288 331 288.9 331 290V297.67C331 300.08 332.24 302.33 334.29 303.61L340 307.18L345.71 303.61ZM347 290V297.67C347 299.41 346.12 300.99 344.65 301.91L340 304.82L335.35 301.91C333.88 300.99 333 299.41 333 297.67V290H347Z" fill="#465991"/>
<path d="M371.58 298.8C371.58 301.78 368.9 303.24 366.22 303.24C364.22 303.24 362.44 302.2 361.32 301.16L362.92 298.8C363.92 299.84 365.46 300.54 366.52 300.54C367.56 300.54 368.36 300.04 368.36 299.12C368.36 298.18 367.34 297.82 366.74 297.6C366.14 297.38 365.1 297.02 364.64 296.82C364.3 296.66 363.6 296.4 363 295.82C362.4 295.26 361.92 294.46 361.92 293.16C361.92 291.84 362.56 290.8 363.36 290.14C364.14 289.48 365.4 289.04 367 289.04C368.6 289.04 370.44 289.8 371.38 290.74L370 293C369.2 292.2 367.96 291.6 366.92 291.6C365.88 291.6 365.12 292 365.12 292.84C365.12 293.68 365.9 294 366.52 294.24C367.12 294.48 368.14 294.84 368.58 295.02C370.34 295.66 371.58 296.8 371.58 298.8ZM382.541 303H379.481L379.421 301.96C379.001 302.38 378.201 303.22 376.601 303.22C374.861 303.22 373.021 302.28 373.021 300.08C373.021 297.88 375.041 297.14 376.861 297.06L379.341 296.96V296.74C379.341 295.7 378.601 295.16 377.321 295.16C376.061 295.16 374.801 295.72 374.301 296.04L373.461 293.96C374.301 293.54 375.841 292.96 377.681 292.96C380.761 292.96 382.541 294.24 382.541 297.44V303ZM379.361 298.66L377.781 298.76C376.801 298.8 376.221 299.22 376.221 299.96C376.221 300.72 376.841 301.18 377.721 301.18C378.581 301.18 379.161 300.62 379.361 300.28V298.66ZM390.681 289.2L390.521 291.42C390.521 291.42 389.901 291.24 389.341 291.24C388.401 291.24 388.161 291.78 388.161 292.52V293.16H390.281V295.58H388.161V303H384.941V295.58H383.681V293.16H384.941V292.62C384.941 290.26 386.061 288.94 388.501 288.94C389.761 288.94 390.681 289.2 390.681 289.2ZM400.646 297.78C400.646 298.26 400.606 298.84 400.606 298.84H393.586C393.726 300.26 394.806 300.9 396.106 300.9C397.386 300.9 398.506 300.34 399.066 299.96L400.326 301.62C400.006 301.86 398.706 303.22 395.646 303.22C392.606 303.22 390.386 301.34 390.386 298.08C390.386 294.82 392.786 292.96 395.706 292.96C398.626 292.96 400.646 294.9 400.646 297.78ZM397.666 297.02C397.646 296.12 396.986 295.04 395.646 295.04C394.326 295.04 393.646 296.08 393.606 297.02H397.666ZM407.999 295.58H405.819V299.12C405.819 299.98 405.879 300.58 406.859 300.58C407.359 300.58 407.819 300.4 407.819 300.4L407.979 302.9C407.739 302.96 406.859 303.22 405.699 303.22C403.139 303.22 402.599 301.66 402.599 299.4V295.58H401.199V293.16H402.599V290.48H405.819V293.16H407.999V295.58ZM419.247 293.14L414.847 303.94C414.127 305.7 413.327 306.78 411.647 306.78C409.967 306.78 408.907 306.3 408.907 306.3L409.547 303.94C409.547 303.94 410.247 304.2 410.727 304.2C411.087 304.2 411.427 304.2 411.687 303.56L412.047 302.7L408.147 293.14H411.487L413.727 299.48L415.947 293.14H419.247ZM439.471 293.14L436.231 303H433.211L431.291 296.96L429.351 303H426.331L423.091 293.14H426.331L428.071 299.44L429.971 293.14H432.591L434.491 299.44L436.231 293.14H439.471ZM449.513 303H446.453L446.393 301.96C445.973 302.38 445.173 303.22 443.573 303.22C441.833 303.22 439.993 302.28 439.993 300.08C439.993 297.88 442.013 297.14 443.833 297.06L446.313 296.96V296.74C446.313 295.7 445.573 295.16 444.293 295.16C443.033 295.16 441.773 295.72 441.273 296.04L440.433 293.96C441.273 293.54 442.813 292.96 444.653 292.96C447.733 292.96 449.513 294.24 449.513 297.44V303ZM446.333 298.66L444.753 298.76C443.773 298.8 443.193 299.22 443.193 299.96C443.193 300.72 443.813 301.18 444.693 301.18C445.553 301.18 446.133 300.62 446.333 300.28V298.66ZM458.154 293.14L457.974 296.08H457.834C457.654 295.98 457.234 295.84 456.674 295.84C455.094 295.84 454.694 297.32 454.694 298.62V303H451.494V293.14H454.694L454.674 294.54H454.714C455.274 293.46 456.094 292.96 457.154 292.96C457.814 292.96 458.154 293.14 458.154 293.14ZM468.908 303H465.708V297.86C465.708 296.56 465.508 295.58 464.188 295.58C462.808 295.58 462.428 296.7 462.428 298.12V303H459.228V293.14H462.428L462.408 294.56H462.448C462.988 293.68 463.888 292.96 465.308 292.96C468.168 292.96 468.908 294.8 468.908 297.18V303ZM474.426 290.34C474.426 291.34 473.686 292 472.606 292C471.526 292 470.786 291.34 470.786 290.34C470.786 289.36 471.526 288.68 472.606 288.68C473.686 288.68 474.426 289.36 474.426 290.34ZM474.206 303H471.006V293.14H474.206V303ZM486.037 303H482.837V297.86C482.837 296.56 482.637 295.58 481.317 295.58C479.937 295.58 479.557 296.7 479.557 298.12V303H476.357V293.14H479.557L479.537 294.56H479.577C480.117 293.68 481.017 292.96 482.437 292.96C485.297 292.96 486.037 294.8 486.037 297.18V303ZM498.495 301C498.495 303.12 497.955 304.36 496.995 305.26C496.035 306.16 494.715 306.82 492.455 306.82C490.175 306.82 488.355 305.86 487.675 305.36L488.995 303.22C489.575 303.66 491.075 304.34 492.395 304.34C494.295 304.34 495.315 303.54 495.315 301.6V301.28H495.275C494.675 302.06 493.715 302.68 492.175 302.68C489.755 302.68 487.515 301 487.515 297.82C487.515 294.64 489.755 292.96 492.175 292.96C493.835 292.96 494.775 293.72 495.295 294.4H495.335L495.295 293.14H498.495V301ZM495.395 297.84C495.395 296.5 494.515 295.46 493.095 295.46C491.675 295.46 490.775 296.5 490.775 297.84C490.775 299.2 491.675 300.24 493.095 300.24C494.515 300.24 495.395 299.2 495.395 297.84Z" fill="#1B1B21"/>
<path d="M329.26 344V334.2H330.646V344H329.26ZM335.26 344.056C333.972 344.056 333.146 343.51 333.146 341.97V338.134H332.152V336.986H333.146V335.432L334.462 335.04V336.986H335.792V338.134H334.462V341.97C334.462 342.656 334.742 342.908 335.456 342.908H335.806V344.056H335.26ZM342.606 344.154C341.192 344.154 340.142 343.384 340.002 341.97H341.332C341.416 342.684 341.934 343.076 342.648 343.076C343.32 343.076 343.796 342.712 343.796 342.166C343.796 341.494 343.292 341.256 342.102 340.934C340.912 340.612 340.198 339.954 340.198 338.82C340.198 337.658 341.192 336.832 342.564 336.832C343.894 336.832 344.888 337.518 345 338.876H343.684C343.586 338.218 343.138 337.91 342.536 337.91C341.906 337.91 341.472 338.26 341.472 338.75C341.472 339.296 341.85 339.548 343.04 339.87C344.202 340.178 345.07 340.864 345.07 342.068C345.07 343.314 344.09 344.154 342.606 344.154ZM349.808 344.154C347.764 344.154 346.224 342.628 346.224 340.5C346.224 338.372 347.708 336.832 349.696 336.832C351.754 336.832 353.112 338.372 353.112 340.444C353.112 340.598 353.112 340.71 353.098 340.878H347.554C347.708 342.124 348.604 342.95 349.836 342.95C350.69 342.95 351.278 342.572 351.712 341.9L352.734 342.642C352.02 343.678 351.082 344.154 349.808 344.154ZM347.582 339.842H351.768C351.614 338.722 350.858 337.966 349.71 337.966C348.632 337.966 347.806 338.68 347.582 339.842ZM357.779 344.154C355.735 344.154 354.195 342.628 354.195 340.5C354.195 338.372 355.679 336.832 357.667 336.832C359.725 336.832 361.083 338.372 361.083 340.444C361.083 340.598 361.083 340.71 361.069 340.878H355.525C355.679 342.124 356.575 342.95 357.807 342.95C358.661 342.95 359.249 342.572 359.683 341.9L360.705 342.642C359.991 343.678 359.053 344.154 357.779 344.154ZM355.553 339.842H359.739C359.585 338.722 358.829 337.966 357.681 337.966C356.603 337.966 355.777 338.68 355.553 339.842ZM362.642 344V336.986H363.902V337.756C364.294 337.182 364.938 336.832 365.708 336.832C366.548 336.832 367.276 337.224 367.668 337.924C368.116 337.252 368.844 336.832 369.754 336.832C371.266 336.832 372.274 337.882 372.274 339.408V344H370.958V339.674C370.958 338.694 370.44 338.036 369.558 338.036C368.662 338.036 368.102 338.694 368.102 339.688V344H366.8V339.688C366.8 338.694 366.254 338.036 365.372 338.036C364.476 338.036 363.944 338.694 363.944 339.688V344H362.642ZM376.321 344.154C374.907 344.154 373.857 343.384 373.717 341.97H375.047C375.131 342.684 375.649 343.076 376.363 343.076C377.035 343.076 377.511 342.712 377.511 342.166C377.511 341.494 377.007 341.256 375.817 340.934C374.627 340.612 373.913 339.954 373.913 338.82C373.913 337.658 374.907 336.832 376.279 336.832C377.609 336.832 378.603 337.518 378.715 338.876H377.399C377.301 338.218 376.853 337.91 376.251 337.91C375.621 337.91 375.187 338.26 375.187 338.75C375.187 339.296 375.565 339.548 376.755 339.87C377.917 340.178 378.785 340.864 378.785 342.068C378.785 343.314 377.805 344.154 376.321 344.154ZM383.692 346.59L385.064 343.328L382.474 336.986H383.916L385.75 341.858L387.654 336.986H388.998L385.078 346.59H383.692ZM393.135 344.154C391.091 344.154 389.523 342.628 389.523 340.5C389.523 338.372 391.091 336.832 393.135 336.832C395.179 336.832 396.747 338.372 396.747 340.5C396.747 342.628 395.179 344.154 393.135 344.154ZM393.135 342.95C394.451 342.95 395.389 341.928 395.389 340.5C395.389 339.072 394.451 338.036 393.135 338.036C391.819 338.036 390.881 339.072 390.881 340.5C390.881 341.928 391.819 342.95 393.135 342.95ZM404.261 336.986V344H403.001V343.23C402.609 343.776 401.881 344.154 401.041 344.154C399.459 344.154 398.241 343.02 398.241 341.256V336.986H399.557V341.06C399.557 342.208 400.257 342.95 401.237 342.95C402.231 342.95 402.959 342.208 402.959 341.06V336.986H404.261ZM405.948 337.49L406.774 335.81C406.34 335.698 406.018 335.32 406.018 334.858C406.018 334.298 406.452 333.864 407.012 333.864C407.586 333.864 408.02 334.298 408.02 334.872C408.02 335.082 407.936 335.306 407.824 335.53L406.802 337.49H405.948ZM409.126 344V336.986H410.386V338.008C410.792 337.322 411.52 336.888 412.584 336.888H412.626V338.19H412.556C411.436 338.19 410.428 338.694 410.428 340.668V344H409.126ZM416.787 344.154C414.743 344.154 413.203 342.628 413.203 340.5C413.203 338.372 414.687 336.832 416.675 336.832C418.733 336.832 420.091 338.372 420.091 340.444C420.091 340.598 420.091 340.71 420.077 340.878H414.533C414.687 342.124 415.583 342.95 416.815 342.95C417.669 342.95 418.257 342.572 418.691 341.9L419.713 342.642C418.999 343.678 418.061 344.154 416.787 344.154ZM414.561 339.842H418.747C418.593 338.722 417.837 337.966 416.689 337.966C415.611 337.966 414.785 338.68 414.561 339.842ZM427.859 344.154C425.997 344.154 424.359 342.614 424.359 340.5C424.359 338.372 425.997 336.832 427.859 336.832C428.867 336.832 429.679 337.252 430.183 337.854V336.986H431.443V344H430.183V343.118C429.679 343.72 428.867 344.154 427.859 344.154ZM427.971 342.95C429.287 342.95 430.225 341.928 430.225 340.5C430.225 339.072 429.287 338.036 427.971 338.036C426.655 338.036 425.717 339.072 425.717 340.5C425.717 341.928 426.655 342.95 427.971 342.95ZM437.114 344.154C436.092 344.154 435.28 343.72 434.776 343.118V344H433.53V334.2H434.846V337.784C435.364 337.224 436.162 336.832 437.114 336.832C438.962 336.832 440.6 338.372 440.6 340.5C440.6 342.614 438.962 344.154 437.114 344.154ZM436.988 342.95C438.318 342.95 439.256 341.928 439.256 340.5C439.256 339.072 438.318 338.036 436.988 338.036C435.672 338.036 434.734 339.072 434.734 340.5C434.734 341.928 435.672 342.95 436.988 342.95ZM445.334 344.154C443.29 344.154 441.722 342.628 441.722 340.5C441.722 338.372 443.29 336.832 445.334 336.832C447.378 336.832 448.946 338.372 448.946 340.5C448.946 342.628 447.378 344.154 445.334 344.154ZM445.334 342.95C446.65 342.95 447.588 341.928 447.588 340.5C447.588 339.072 446.65 338.036 445.334 338.036C444.018 338.036 443.08 339.072 443.08 340.5C443.08 341.928 444.018 342.95 445.334 342.95ZM456.46 336.986V344H455.2V343.23C454.808 343.776 454.08 344.154 453.24 344.154C451.658 344.154 450.44 343.02 450.44 341.256V336.986H451.756V341.06C451.756 342.208 452.456 342.95 453.436 342.95C454.43 342.95 455.158 342.208 455.158 341.06V336.986H456.46ZM461.042 344.056C459.754 344.056 458.928 343.51 458.928 341.97V338.134H457.934V336.986H458.928V335.432L460.244 335.04V336.986H461.574V338.134H460.244V341.97C460.244 342.656 460.524 342.908 461.238 342.908H461.588V344.056H461.042ZM468.821 344.056C467.533 344.056 466.707 343.51 466.707 341.97V338.134H465.713V336.986H466.707V335.432L468.023 335.04V336.986H469.353V338.134H468.023V341.97C468.023 342.656 468.303 342.908 469.017 342.908H469.367V344.056H468.821ZM473.908 344.154C471.864 344.154 470.296 342.628 470.296 340.5C470.296 338.372 471.864 336.832 473.908 336.832C475.952 336.832 477.52 338.372 477.52 340.5C477.52 342.628 475.952 344.154 473.908 344.154ZM473.908 342.95C475.224 342.95 476.162 341.928 476.162 340.5C476.162 339.072 475.224 338.036 473.908 338.036C472.592 338.036 471.654 339.072 471.654 340.5C471.654 341.928 472.592 342.95 473.908 342.95ZM484.369 344.154C482.955 344.154 481.905 343.384 481.765 341.97H483.095C483.179 342.684 483.697 343.076 484.411 343.076C485.083 343.076 485.559 342.712 485.559 342.166C485.559 341.494 485.055 341.256 483.865 340.934C482.675 340.612 481.961 339.954 481.961 338.82C481.961 337.658 482.955 336.832 484.327 336.832C485.657 336.832 486.651 337.518 486.763 338.876H485.447C485.349 338.218 484.901 337.91 484.299 337.91C483.669 337.91 483.235 338.26 483.235 338.75C483.235 339.296 483.613 339.548 484.803 339.87C485.965 340.178 486.833 340.864 486.833 342.068C486.833 343.314 485.853 344.154 484.369 344.154ZM488.464 344V334.2H489.766V337.7C490.158 337.182 490.872 336.832 491.684 336.832C493.266 336.832 494.484 337.966 494.484 339.73V344H493.168V339.926C493.168 338.778 492.468 338.036 491.488 338.036C490.494 338.036 489.766 338.778 489.766 339.926V344H488.464ZM499.486 344.154C497.624 344.154 495.986 342.614 495.986 340.5C495.986 338.372 497.624 336.832 499.486 336.832C500.494 336.832 501.306 337.252 501.81 337.854V336.986H503.07V344H501.81V343.118C501.306 343.72 500.494 344.154 499.486 344.154ZM499.598 342.95C500.914 342.95 501.852 341.928 501.852 340.5C501.852 339.072 500.914 338.036 499.598 338.036C498.282 338.036 497.344 339.072 497.344 340.5C497.344 341.928 498.282 342.95 499.598 342.95ZM505.157 344V336.986H506.417V338.008C506.823 337.322 507.551 336.888 508.615 336.888H508.657V338.19H508.587C507.467 338.19 506.459 338.694 506.459 340.668V344H505.157ZM512.818 344.154C510.774 344.154 509.234 342.628 509.234 340.5C509.234 338.372 510.718 336.832 512.706 336.832C514.764 336.832 516.122 338.372 516.122 340.444C516.122 340.598 516.122 340.71 516.108 340.878H510.564C510.718 342.124 511.614 342.95 512.846 342.95C513.7 342.95 514.288 342.572 514.722 341.9L515.744 342.642C515.03 343.678 514.092 344.154 512.818 344.154ZM510.592 339.842H514.778C514.624 338.722 513.868 337.966 512.72 337.966C511.642 337.966 510.816 338.68 510.592 339.842ZM520.958 346.59L522.33 343.328L519.74 336.986H521.182L523.016 341.858L524.92 336.986H526.264L522.344 346.59H520.958ZM530.401 344.154C528.357 344.154 526.789 342.628 526.789 340.5C526.789 338.372 528.357 336.832 530.401 336.832C532.445 336.832 534.013 338.372 534.013 340.5C534.013 342.628 532.445 344.154 530.401 344.154ZM530.401 342.95C531.717 342.95 532.655 341.928 532.655 340.5C532.655 339.072 531.717 338.036 530.401 338.036C529.085 338.036 528.147 339.072 528.147 340.5C528.147 341.928 529.085 342.95 530.401 342.95ZM541.526 336.986V344H540.266V343.23C539.874 343.776 539.146 344.154 538.306 344.154C536.724 344.154 535.506 343.02 535.506 341.256V336.986H536.822V341.06C536.822 342.208 537.522 342.95 538.502 342.95C539.496 342.95 540.224 342.208 540.224 341.06V336.986H541.526ZM543.63 344V336.986H544.89V338.008C545.296 337.322 546.024 336.888 547.088 336.888H547.13V338.19H547.06C545.94 338.19 544.932 338.694 544.932 340.668V344H543.63ZM551.524 344V334.2H554.73C556.508 334.2 557.586 335.376 557.586 336.762C557.586 337.616 557.124 338.33 556.466 338.764C557.432 339.198 558.048 340.164 558.048 341.144C558.048 342.67 556.914 344 554.772 344H551.524ZM554.758 342.768C555.948 342.768 556.718 342.026 556.718 341.088C556.718 340.276 556.06 339.478 555.038 339.478H552.868V342.768H554.758ZM552.868 338.33H554.744C555.612 338.33 556.256 337.658 556.256 336.86C556.256 336.062 555.612 335.432 554.744 335.432H552.868V338.33ZM562.705 344.154C560.843 344.154 559.205 342.614 559.205 340.5C559.205 338.372 560.843 336.832 562.705 336.832C563.713 336.832 564.525 337.252 565.029 337.854V336.986H566.289V344H565.029V343.118C564.525 343.72 563.713 344.154 562.705 344.154ZM562.817 342.95C564.133 342.95 565.071 341.928 565.071 340.5C565.071 339.072 564.133 338.036 562.817 338.036C561.501 338.036 560.563 339.072 560.563 340.5C560.563 341.928 561.501 342.95 562.817 342.95ZM568.376 344V336.986H569.636V337.756C570.028 337.21 570.756 336.832 571.596 336.832C573.178 336.832 574.396 337.966 574.396 339.73V344H573.08V339.926C573.08 338.778 572.38 338.036 571.4 338.036C570.406 338.036 569.678 338.778 569.678 339.926V344H568.376ZM580.7 344L577.69 340.542V344H576.388V334.2H577.69V340.052L580.63 336.986H582.282L579.062 340.276L582.408 344H580.7ZM329.05 364V356.986H330.352V364H329.05ZM329.694 355.894C329.204 355.894 328.798 355.488 328.798 354.998C328.798 354.494 329.204 354.088 329.694 354.088C330.198 354.088 330.604 354.494 330.604 354.998C330.604 355.488 330.198 355.894 329.694 355.894ZM332.454 364V356.986H333.714V357.756C334.106 357.21 334.834 356.832 335.674 356.832C337.256 356.832 338.474 357.966 338.474 359.73V364H337.158V359.926C337.158 358.778 336.458 358.036 335.478 358.036C334.484 358.036 333.756 358.778 333.756 359.926V364H332.454ZM340.693 356.132C340.693 354.62 341.617 354.116 342.961 354.116H343.591L343.255 355.306H342.989C342.289 355.306 341.995 355.544 341.995 356.23V356.986H343.255V358.134H341.995V364H340.693V358.134H339.811V356.986H340.693V356.132ZM347.58 364.154C345.536 364.154 343.968 362.628 343.968 360.5C343.968 358.372 345.536 356.832 347.58 356.832C349.624 356.832 351.192 358.372 351.192 360.5C351.192 362.628 349.624 364.154 347.58 364.154ZM347.58 362.95C348.896 362.95 349.834 361.928 349.834 360.5C349.834 359.072 348.896 358.036 347.58 358.036C346.264 358.036 345.326 359.072 345.326 360.5C345.326 361.928 346.264 362.95 347.58 362.95ZM352.798 364V356.986H354.058V358.008C354.464 357.322 355.192 356.888 356.256 356.888H356.298V358.19H356.228C355.108 358.19 354.1 358.694 354.1 360.668V364H352.798ZM357.624 364V356.986H358.884V357.756C359.276 357.182 359.92 356.832 360.69 356.832C361.53 356.832 362.258 357.224 362.65 357.924C363.098 357.252 363.826 356.832 364.736 356.832C366.248 356.832 367.256 357.882 367.256 359.408V364H365.94V359.674C365.94 358.694 365.422 358.036 364.54 358.036C363.644 358.036 363.084 358.694 363.084 359.688V364H361.782V359.688C361.782 358.694 361.236 358.036 360.354 358.036C359.458 358.036 358.926 358.694 358.926 359.688V364H357.624ZM372.269 364.154C370.407 364.154 368.769 362.614 368.769 360.5C368.769 358.372 370.407 356.832 372.269 356.832C373.277 356.832 374.089 357.252 374.593 357.854V356.986H375.853V364H374.593V363.118C374.089 363.72 373.277 364.154 372.269 364.154ZM372.381 362.95C373.697 362.95 374.635 361.928 374.635 360.5C374.635 359.072 373.697 358.036 372.381 358.036C371.065 358.036 370.127 359.072 370.127 360.5C370.127 361.928 371.065 362.95 372.381 362.95ZM380.419 364.056C379.131 364.056 378.305 363.51 378.305 361.97V358.134H377.311V356.986H378.305V355.432L379.621 355.04V356.986H380.951V358.134H379.621V361.97C379.621 362.656 379.901 362.908 380.615 362.908H380.965V364.056H380.419ZM382.521 364V356.986H383.823V364H382.521ZM383.165 355.894C382.675 355.894 382.269 355.488 382.269 354.998C382.269 354.494 382.675 354.088 383.165 354.088C383.669 354.088 384.075 354.494 384.075 354.998C384.075 355.488 383.669 355.894 383.165 355.894ZM389.047 364.154C387.003 364.154 385.435 362.628 385.435 360.5C385.435 358.372 387.003 356.832 389.047 356.832C391.091 356.832 392.659 358.372 392.659 360.5C392.659 362.628 391.091 364.154 389.047 364.154ZM389.047 362.95C390.363 362.95 391.301 361.928 391.301 360.5C391.301 359.072 390.363 358.036 389.047 358.036C387.731 358.036 386.793 359.072 386.793 360.5C386.793 361.928 387.731 362.95 389.047 362.95ZM394.265 364V356.986H395.525V357.756C395.917 357.21 396.645 356.832 397.485 356.832C399.067 356.832 400.285 357.966 400.285 359.73V364H398.969V359.926C398.969 358.778 398.269 358.036 397.289 358.036C396.295 358.036 395.567 358.778 395.567 359.926V364H394.265ZM402.949 364.154C402.375 364.154 401.927 363.706 401.927 363.132C401.927 362.572 402.375 362.11 402.949 362.11C403.523 362.11 403.971 362.572 403.971 363.132C403.971 363.706 403.523 364.154 402.949 364.154ZM408.748 364V354.2H411.954C413.732 354.2 414.81 355.376 414.81 356.762C414.81 357.616 414.348 358.33 413.69 358.764C414.656 359.198 415.272 360.164 415.272 361.144C415.272 362.67 414.138 364 411.996 364H408.748ZM411.982 362.768C413.172 362.768 413.942 362.026 413.942 361.088C413.942 360.276 413.284 359.478 412.262 359.478H410.092V362.768H411.982ZM410.092 358.33H411.968C412.836 358.33 413.48 357.658 413.48 356.86C413.48 356.062 412.836 355.432 411.968 355.432H410.092V358.33ZM420.027 364.154C417.983 364.154 416.443 362.628 416.443 360.5C416.443 358.372 417.927 356.832 419.915 356.832C421.973 356.832 423.331 358.372 423.331 360.444C423.331 360.598 423.331 360.71 423.317 360.878H417.773C417.927 362.124 418.823 362.95 420.055 362.95C420.909 362.95 421.497 362.572 421.931 361.9L422.953 362.642C422.239 363.678 421.301 364.154 420.027 364.154ZM417.801 359.842H421.987C421.833 358.722 421.077 357.966 419.929 357.966C418.851 357.966 418.025 358.68 417.801 359.842ZM431.239 364.154C429.181 364.154 427.599 362.614 427.599 360.486C427.599 358.358 429.195 356.832 431.239 356.832C432.723 356.832 433.899 357.672 434.459 358.932L433.269 359.464C432.947 358.582 432.233 358.036 431.267 358.036C429.965 358.036 428.999 359.044 428.999 360.472C428.999 361.9 429.965 362.95 431.281 362.95C432.359 362.95 433.017 362.306 433.325 361.424L434.501 361.872C433.997 363.286 432.807 364.154 431.239 364.154ZM439.029 364.154C437.167 364.154 435.529 362.614 435.529 360.5C435.529 358.372 437.167 356.832 439.029 356.832C440.037 356.832 440.849 357.252 441.353 357.854V356.986H442.613V364H441.353V363.118C440.849 363.72 440.037 364.154 439.029 364.154ZM439.141 362.95C440.457 362.95 441.395 361.928 441.395 360.5C441.395 359.072 440.457 358.036 439.141 358.036C437.825 358.036 436.887 359.072 436.887 360.5C436.887 361.928 437.825 362.95 439.141 362.95ZM444.7 364V356.986H445.96V358.008C446.366 357.322 447.094 356.888 448.158 356.888H448.2V358.19H448.13C447.01 358.19 446.002 358.694 446.002 360.668V364H444.7ZM452.361 364.154C450.317 364.154 448.777 362.628 448.777 360.5C448.777 358.372 450.261 356.832 452.249 356.832C454.307 356.832 455.665 358.372 455.665 360.444C455.665 360.598 455.665 360.71 455.651 360.878H450.107C450.261 362.124 451.157 362.95 452.389 362.95C453.243 362.95 453.831 362.572 454.265 361.9L455.287 362.642C454.573 363.678 453.635 364.154 452.361 364.154ZM450.135 359.842H454.321C454.167 358.722 453.411 357.966 452.263 357.966C451.185 357.966 450.359 358.68 450.135 359.842ZM457.464 356.132C457.464 354.62 458.388 354.116 459.732 354.116H460.362L460.026 355.306H459.76C459.06 355.306 458.766 355.544 458.766 356.23V356.986H460.026V358.134H458.766V364H457.464V358.134H456.582V356.986H457.464V356.132ZM467.261 356.986V364H466.001V363.23C465.609 363.776 464.881 364.154 464.041 364.154C462.459 364.154 461.241 363.02 461.241 361.256V356.986H462.557V361.06C462.557 362.208 463.257 362.95 464.237 362.95C465.231 362.95 465.959 362.208 465.959 361.06V356.986H467.261ZM469.364 364V354.2H470.666V364H469.364ZM472.363 365.778L473.189 364.098C472.755 363.986 472.433 363.608 472.433 363.146C472.433 362.586 472.867 362.152 473.427 362.152C474.001 362.152 474.435 362.586 474.435 363.16C474.435 363.37 474.351 363.594 474.239 363.818L473.217 365.778H472.363ZM479.108 366.59L480.48 363.328L477.89 356.986H479.332L481.166 361.858L483.07 356.986H484.414L480.494 366.59H479.108ZM488.551 364.154C486.507 364.154 484.939 362.628 484.939 360.5C484.939 358.372 486.507 356.832 488.551 356.832C490.595 356.832 492.163 358.372 492.163 360.5C492.163 362.628 490.595 364.154 488.551 364.154ZM488.551 362.95C489.867 362.95 490.805 361.928 490.805 360.5C490.805 359.072 489.867 358.036 488.551 358.036C487.235 358.036 486.297 359.072 486.297 360.5C486.297 361.928 487.235 362.95 488.551 362.95ZM499.677 356.986V364H498.417V363.23C498.025 363.776 497.297 364.154 496.457 364.154C494.875 364.154 493.657 363.02 493.657 361.256V356.986H494.973V361.06C494.973 362.208 495.673 362.95 496.653 362.95C497.647 362.95 498.375 362.208 498.375 361.06V356.986H499.677ZM501.78 364V356.986H503.04V358.008C503.446 357.322 504.174 356.888 505.238 356.888H505.28V358.19H505.21C504.09 358.19 503.082 358.694 503.082 360.668V364H501.78ZM511.508 364.154C510.094 364.154 509.044 363.384 508.904 361.97H510.234C510.318 362.684 510.836 363.076 511.55 363.076C512.222 363.076 512.698 362.712 512.698 362.166C512.698 361.494 512.194 361.256 511.004 360.934C509.814 360.612 509.1 359.954 509.1 358.82C509.1 357.658 510.094 356.832 511.466 356.832C512.796 356.832 513.79 357.518 513.902 358.876H512.586C512.488 358.218 512.04 357.91 511.438 357.91C510.808 357.91 510.374 358.26 510.374 358.75C510.374 359.296 510.752 359.548 511.942 359.87C513.104 360.178 513.972 360.864 513.972 362.068C513.972 363.314 512.992 364.154 511.508 364.154ZM518.711 364.154C516.667 364.154 515.127 362.628 515.127 360.5C515.127 358.372 516.611 356.832 518.599 356.832C520.657 356.832 522.015 358.372 522.015 360.444C522.015 360.598 522.015 360.71 522.001 360.878H516.457C516.611 362.124 517.507 362.95 518.739 362.95C519.593 362.95 520.181 362.572 520.615 361.9L521.637 362.642C520.923 363.678 519.985 364.154 518.711 364.154ZM516.485 359.842H520.671C520.517 358.722 519.761 357.966 518.613 357.966C517.535 357.966 516.709 358.68 516.485 359.842ZM523.573 364V356.986H524.833V357.756C525.225 357.21 525.953 356.832 526.793 356.832C528.375 356.832 529.593 357.966 529.593 359.73V364H528.277V359.926C528.277 358.778 527.577 358.036 526.597 358.036C525.603 358.036 524.875 358.778 524.875 359.926V364H523.573ZM533.629 364.154C532.215 364.154 531.165 363.384 531.025 361.97H532.355C532.439 362.684 532.957 363.076 533.671 363.076C534.343 363.076 534.819 362.712 534.819 362.166C534.819 361.494 534.315 361.256 533.125 360.934C531.935 360.612 531.221 359.954 531.221 358.82C531.221 357.658 532.215 356.832 533.587 356.832C534.917 356.832 535.911 357.518 536.023 358.876H534.707C534.609 358.218 534.161 357.91 533.559 357.91C532.929 357.91 532.495 358.26 532.495 358.75C532.495 359.296 532.873 359.548 534.063 359.87C535.225 360.178 536.093 360.864 536.093 362.068C536.093 363.314 535.113 364.154 533.629 364.154ZM537.724 364V356.986H539.026V364H537.724ZM538.368 355.894C537.878 355.894 537.472 355.488 537.472 354.998C537.472 354.494 537.878 354.088 538.368 354.088C538.872 354.088 539.278 354.494 539.278 354.998C539.278 355.488 538.872 355.894 538.368 355.894ZM543.606 364.056C542.318 364.056 541.492 363.51 541.492 361.97V358.134H540.498V356.986H541.492V355.432L542.808 355.04V356.986H544.138V358.134H542.808V361.97C542.808 362.656 543.088 362.908 543.802 362.908H544.152V364.056H543.606ZM545.708 364V356.986H547.01V364H545.708ZM546.352 355.894C545.862 355.894 545.456 355.488 545.456 354.998C545.456 354.494 545.862 354.088 546.352 354.088C546.856 354.088 547.262 354.494 547.262 354.998C547.262 355.488 546.856 355.894 546.352 355.894ZM551.562 364.084C550.933 364.084 550.653 363.678 550.415 362.992L548.301 356.986H549.701L551.591 362.684L553.481 356.986H554.811L552.683 362.992C552.445 363.664 552.193 364.084 551.562 364.084ZM559.002 364.154C556.958 364.154 555.418 362.628 555.418 360.5C555.418 358.372 556.902 356.832 558.89 356.832C560.948 356.832 562.306 358.372 562.306 360.444C562.306 360.598 562.306 360.71 562.292 360.878H556.748C556.902 362.124 557.798 362.95 559.03 362.95C559.884 362.95 560.472 362.572 560.906 361.9L561.928 362.642C561.214 363.678 560.276 364.154 559.002 364.154ZM556.776 359.842H560.962C560.808 358.722 560.052 357.966 558.904 357.966C557.826 357.966 557 358.68 556.776 359.842ZM567.064 364V356.986H568.366V364H567.064ZM567.708 355.894C567.218 355.894 566.812 355.488 566.812 354.998C566.812 354.494 567.218 354.088 567.708 354.088C568.212 354.088 568.618 354.494 568.618 354.998C568.618 355.488 568.212 355.894 567.708 355.894ZM570.468 364V356.986H571.728V357.756C572.12 357.21 572.848 356.832 573.688 356.832C575.27 356.832 576.488 357.966 576.488 359.73V364H575.172V359.926C575.172 358.778 574.472 358.036 573.492 358.036C572.498 358.036 571.77 358.778 571.77 359.926V364H570.468ZM578.706 356.132C578.706 354.62 579.63 354.116 580.974 354.116H581.604L581.268 355.306H581.002C580.302 355.306 580.008 355.544 580.008 356.23V356.986H581.268V358.134H580.008V364H578.706V358.134H577.824V356.986H578.706V356.132ZM585.594 364.154C583.55 364.154 581.982 362.628 581.982 360.5C581.982 358.372 583.55 356.832 585.594 356.832C587.638 356.832 589.206 358.372 589.206 360.5C589.206 362.628 587.638 364.154 585.594 364.154ZM585.594 362.95C586.91 362.95 587.848 361.928 587.848 360.5C587.848 359.072 586.91 358.036 585.594 358.036C584.278 358.036 583.34 359.072 583.34 360.5C583.34 361.928 584.278 362.95 585.594 362.95ZM590.812 364V356.986H592.072V358.008C592.478 357.322 593.206 356.888 594.27 356.888H594.312V358.19H594.242C593.122 358.19 592.114 358.694 592.114 360.668V364H590.812ZM595.638 364V356.986H596.898V357.756C597.29 357.182 597.934 356.832 598.704 356.832C599.544 356.832 600.272 357.224 600.664 357.924C601.112 357.252 601.84 356.832 602.75 356.832C604.262 356.832 605.27 357.882 605.27 359.408V364H603.954V359.674C603.954 358.694 603.436 358.036 602.554 358.036C601.658 358.036 601.098 358.694 601.098 359.688V364H599.796V359.688C599.796 358.694 599.25 358.036 598.368 358.036C597.472 358.036 596.94 358.694 596.94 359.688V364H595.638ZM610.283 364.154C608.421 364.154 606.783 362.614 606.783 360.5C606.783 358.372 608.421 356.832 610.283 356.832C611.291 356.832 612.103 357.252 612.607 357.854V356.986H613.867V364H612.607V363.118C612.103 363.72 611.291 364.154 610.283 364.154ZM610.395 362.95C611.711 362.95 612.649 361.928 612.649 360.5C612.649 359.072 611.711 358.036 610.395 358.036C609.079 358.036 608.141 359.072 608.141 360.5C608.141 361.928 609.079 362.95 610.395 362.95ZM618.432 364.056C617.144 364.056 616.318 363.51 616.318 361.97V358.134H615.324V356.986H616.318V355.432L617.634 355.04V356.986H618.964V358.134H617.634V361.97C617.634 362.656 617.914 362.908 618.628 362.908H618.978V364.056H618.432ZM620.534 364V356.986H621.836V364H620.534ZM621.178 355.894C620.688 355.894 620.282 355.488 620.282 354.998C620.282 354.494 620.688 354.088 621.178 354.088C621.682 354.088 622.088 354.494 622.088 354.998C622.088 355.488 621.682 355.894 621.178 355.894ZM627.061 364.154C625.017 364.154 623.449 362.628 623.449 360.5C623.449 358.372 625.017 356.832 627.061 356.832C629.105 356.832 630.673 358.372 630.673 360.5C630.673 362.628 629.105 364.154 627.061 364.154ZM627.061 362.95C628.377 362.95 629.315 361.928 629.315 360.5C629.315 359.072 628.377 358.036 627.061 358.036C625.745 358.036 624.807 359.072 624.807 360.5C624.807 361.928 625.745 362.95 627.061 362.95ZM632.279 364V356.986H633.539V357.756C633.931 357.21 634.659 356.832 635.499 356.832C637.081 356.832 638.299 357.966 638.299 359.73V364H636.983V359.926C636.983 358.778 636.283 358.036 635.303 358.036C634.309 358.036 633.581 358.778 633.581 359.926V364H632.279ZM332.2 384.154C330.142 384.154 328.56 382.614 328.56 380.486C328.56 378.358 330.156 376.832 332.2 376.832C333.684 376.832 334.86 377.672 335.42 378.932L334.23 379.464C333.908 378.582 333.194 378.036 332.228 378.036C330.926 378.036 329.96 379.044 329.96 380.472C329.96 381.9 330.926 382.95 332.242 382.95C333.32 382.95 333.978 382.306 334.286 381.424L335.462 381.872C334.958 383.286 333.768 384.154 332.2 384.154ZM339.99 384.154C338.128 384.154 336.49 382.614 336.49 380.5C336.49 378.372 338.128 376.832 339.99 376.832C340.998 376.832 341.81 377.252 342.314 377.854V376.986H343.574V384H342.314V383.118C341.81 383.72 340.998 384.154 339.99 384.154ZM340.102 382.95C341.418 382.95 342.356 381.928 342.356 380.5C342.356 379.072 341.418 378.036 340.102 378.036C338.786 378.036 337.848 379.072 337.848 380.5C337.848 381.928 338.786 382.95 340.102 382.95ZM345.661 384V376.986H346.921V377.756C347.313 377.21 348.041 376.832 348.881 376.832C350.463 376.832 351.681 377.966 351.681 379.73V384H350.365V379.926C350.365 378.778 349.665 378.036 348.685 378.036C347.691 378.036 346.963 378.778 346.963 379.926V384H345.661ZM360.456 384.154C359.434 384.154 358.622 383.72 358.118 383.118V384H356.872V374.2H358.188V377.784C358.706 377.224 359.504 376.832 360.456 376.832C362.304 376.832 363.942 378.372 363.942 380.5C363.942 382.614 362.304 384.154 360.456 384.154ZM360.33 382.95C361.66 382.95 362.598 381.928 362.598 380.5C362.598 379.072 361.66 378.036 360.33 378.036C359.014 378.036 358.076 379.072 358.076 380.5C358.076 381.928 359.014 382.95 360.33 382.95ZM368.662 384.154C366.618 384.154 365.078 382.628 365.078 380.5C365.078 378.372 366.562 376.832 368.55 376.832C370.608 376.832 371.966 378.372 371.966 380.444C371.966 380.598 371.966 380.71 371.952 380.878H366.408C366.562 382.124 367.458 382.95 368.69 382.95C369.544 382.95 370.132 382.572 370.566 381.9L371.588 382.642C370.874 383.678 369.936 384.154 368.662 384.154ZM366.436 379.842H370.622C370.468 378.722 369.712 377.966 368.564 377.966C367.486 377.966 366.66 378.68 366.436 379.842ZM382.632 376.986V384H381.372V383.23C380.98 383.776 380.252 384.154 379.412 384.154C377.83 384.154 376.612 383.02 376.612 381.256V376.986H377.928V381.06C377.928 382.208 378.628 382.95 379.608 382.95C380.602 382.95 381.33 382.208 381.33 381.06V376.986H382.632ZM386.78 384.154C385.366 384.154 384.316 383.384 384.176 381.97H385.506C385.59 382.684 386.108 383.076 386.822 383.076C387.494 383.076 387.97 382.712 387.97 382.166C387.97 381.494 387.466 381.256 386.276 380.934C385.086 380.612 384.372 379.954 384.372 378.82C384.372 377.658 385.366 376.832 386.738 376.832C388.068 376.832 389.062 377.518 389.174 378.876H387.858C387.76 378.218 387.312 377.91 386.71 377.91C386.08 377.91 385.646 378.26 385.646 378.75C385.646 379.296 386.024 379.548 387.214 379.87C388.376 380.178 389.244 380.864 389.244 382.068C389.244 383.314 388.264 384.154 386.78 384.154ZM393.982 384.154C391.938 384.154 390.398 382.628 390.398 380.5C390.398 378.372 391.882 376.832 393.87 376.832C395.928 376.832 397.286 378.372 397.286 380.444C397.286 380.598 397.286 380.71 397.272 380.878H391.728C391.882 382.124 392.778 382.95 394.01 382.95C394.864 382.95 395.452 382.572 395.886 381.9L396.908 382.642C396.194 383.678 395.256 384.154 393.982 384.154ZM391.756 379.842H395.942C395.788 378.722 395.032 377.966 393.884 377.966C392.806 377.966 391.98 378.68 391.756 379.842ZM401.855 384.154C399.993 384.154 398.355 382.614 398.355 380.5C398.355 378.372 399.993 376.832 401.855 376.832C402.821 376.832 403.619 377.224 404.123 377.798V374.2H405.439V384H404.179V383.118C403.675 383.72 402.863 384.154 401.855 384.154ZM401.967 382.95C403.283 382.95 404.221 381.928 404.221 380.5C404.221 379.072 403.283 378.036 401.967 378.036C400.651 378.036 399.713 379.072 399.713 380.5C399.713 381.928 400.651 382.95 401.967 382.95ZM413.204 384.056C411.916 384.056 411.09 383.51 411.09 381.97V378.134H410.096V376.986H411.09V375.432L412.406 375.04V376.986H413.736V378.134H412.406V381.97C412.406 382.656 412.686 382.908 413.4 382.908H413.75V384.056H413.204ZM418.291 384.154C416.247 384.154 414.679 382.628 414.679 380.5C414.679 378.372 416.247 376.832 418.291 376.832C420.335 376.832 421.903 378.372 421.903 380.5C421.903 382.628 420.335 384.154 418.291 384.154ZM418.291 382.95C419.607 382.95 420.545 381.928 420.545 380.5C420.545 379.072 419.607 378.036 418.291 378.036C416.975 378.036 416.037 379.072 416.037 380.5C416.037 381.928 416.975 382.95 418.291 382.95ZM429.718 384.154C427.856 384.154 426.218 382.614 426.218 380.5C426.218 378.372 427.856 376.832 429.718 376.832C430.684 376.832 431.482 377.224 431.986 377.798V374.2H433.302V384H432.042V383.118C431.538 383.72 430.726 384.154 429.718 384.154ZM429.83 382.95C431.146 382.95 432.084 381.928 432.084 380.5C432.084 379.072 431.146 378.036 429.83 378.036C428.514 378.036 427.576 379.072 427.576 380.5C427.576 381.928 428.514 382.95 429.83 382.95ZM438.498 384.154C436.454 384.154 434.914 382.628 434.914 380.5C434.914 378.372 436.398 376.832 438.386 376.832C440.444 376.832 441.802 378.372 441.802 380.444C441.802 380.598 441.802 380.71 441.788 380.878H436.244C436.398 382.124 437.294 382.95 438.526 382.95C439.38 382.95 439.968 382.572 440.402 381.9L441.424 382.642C440.71 383.678 439.772 384.154 438.498 384.154ZM436.272 379.842H440.458C440.304 378.722 439.548 377.966 438.4 377.966C437.322 377.966 436.496 378.68 436.272 379.842ZM443.601 376.132C443.601 374.62 444.525 374.116 445.869 374.116H446.499L446.163 375.306H445.897C445.197 375.306 444.903 375.544 444.903 376.23V376.986H446.163V378.134H444.903V384H443.601V378.134H442.719V376.986H443.601V376.132ZM447.489 384V376.986H448.749V378.008C449.155 377.322 449.883 376.888 450.947 376.888H450.989V378.19H450.919C449.799 378.19 448.791 378.694 448.791 380.668V384H447.489ZM455.052 384.154C453.19 384.154 451.552 382.614 451.552 380.5C451.552 378.372 453.19 376.832 455.052 376.832C456.06 376.832 456.872 377.252 457.376 377.854V376.986H458.636V384H457.376V383.118C456.872 383.72 456.06 384.154 455.052 384.154ZM455.164 382.95C456.48 382.95 457.418 381.928 457.418 380.5C457.418 379.072 456.48 378.036 455.164 378.036C453.848 378.036 452.91 379.072 452.91 380.5C452.91 381.928 453.848 382.95 455.164 382.95ZM466.632 376.986V384H465.372V383.23C464.98 383.776 464.252 384.154 463.412 384.154C461.83 384.154 460.612 383.02 460.612 381.256V376.986H461.928V381.06C461.928 382.208 462.628 382.95 463.608 382.95C464.602 382.95 465.33 382.208 465.33 381.06V376.986H466.632ZM471.746 384.154C469.884 384.154 468.246 382.614 468.246 380.5C468.246 378.372 469.884 376.832 471.746 376.832C472.712 376.832 473.51 377.224 474.014 377.798V374.2H475.33V384H474.07V383.118C473.566 383.72 472.754 384.154 471.746 384.154ZM471.858 382.95C473.174 382.95 474.112 381.928 474.112 380.5C474.112 379.072 473.174 378.036 471.858 378.036C470.542 378.036 469.604 379.072 469.604 380.5C469.604 381.928 470.542 382.95 471.858 382.95ZM480.694 386.59L482.066 383.328L479.476 376.986H480.918L482.752 381.858L484.656 376.986H486L482.08 386.59H480.694ZM490.137 384.154C488.093 384.154 486.525 382.628 486.525 380.5C486.525 378.372 488.093 376.832 490.137 376.832C492.181 376.832 493.749 378.372 493.749 380.5C493.749 382.628 492.181 384.154 490.137 384.154ZM490.137 382.95C491.453 382.95 492.391 381.928 492.391 380.5C492.391 379.072 491.453 378.036 490.137 378.036C488.821 378.036 487.883 379.072 487.883 380.5C487.883 381.928 488.821 382.95 490.137 382.95ZM501.263 376.986V384H500.003V383.23C499.611 383.776 498.883 384.154 498.043 384.154C496.461 384.154 495.243 383.02 495.243 381.256V376.986H496.559V381.06C496.559 382.208 497.259 382.95 498.239 382.95C499.233 382.95 499.961 382.208 499.961 381.06V376.986H501.263ZM509.688 384.154C507.644 384.154 506.076 382.628 506.076 380.5C506.076 378.372 507.644 376.832 509.688 376.832C511.732 376.832 513.3 378.372 513.3 380.5C513.3 382.628 511.732 384.154 509.688 384.154ZM509.688 382.95C511.004 382.95 511.942 381.928 511.942 380.5C511.942 379.072 511.004 378.036 509.688 378.036C508.372 378.036 507.434 379.072 507.434 380.5C507.434 381.928 508.372 382.95 509.688 382.95ZM514.905 384V376.986H516.165V378.008C516.571 377.322 517.299 376.888 518.363 376.888H518.405V378.19H518.335C517.215 378.19 516.207 378.694 516.207 380.668V384H514.905ZM525.739 384.154C523.681 384.154 522.099 382.614 522.099 380.486C522.099 378.358 523.695 376.832 525.739 376.832C527.223 376.832 528.399 377.672 528.959 378.932L527.769 379.464C527.447 378.582 526.733 378.036 525.767 378.036C524.465 378.036 523.499 379.044 523.499 380.472C523.499 381.9 524.465 382.95 525.781 382.95C526.859 382.95 527.517 382.306 527.825 381.424L529.001 381.872C528.497 383.286 527.307 384.154 525.739 384.154ZM533.641 384.154C531.597 384.154 530.029 382.628 530.029 380.5C530.029 378.372 531.597 376.832 533.641 376.832C535.685 376.832 537.253 378.372 537.253 380.5C537.253 382.628 535.685 384.154 533.641 384.154ZM533.641 382.95C534.957 382.95 535.895 381.928 535.895 380.5C535.895 379.072 534.957 378.036 533.641 378.036C532.325 378.036 531.387 379.072 531.387 380.5C531.387 381.928 532.325 382.95 533.641 382.95ZM538.859 384V376.986H540.119V377.756C540.511 377.182 541.155 376.832 541.925 376.832C542.765 376.832 543.493 377.224 543.885 377.924C544.333 377.252 545.061 376.832 545.971 376.832C547.483 376.832 548.491 377.882 548.491 379.408V384H547.175V379.674C547.175 378.694 546.657 378.036 545.775 378.036C544.879 378.036 544.319 378.694 544.319 379.688V384H543.017V379.688C543.017 378.694 542.471 378.036 541.589 378.036C540.693 378.036 540.161 378.694 540.161 379.688V384H538.859ZM550.493 384V376.986H551.753V377.756C552.145 377.182 552.789 376.832 553.559 376.832C554.399 376.832 555.127 377.224 555.519 377.924C555.967 377.252 556.695 376.832 557.605 376.832C559.117 376.832 560.125 377.882 560.125 379.408V384H558.809V379.674C558.809 378.694 558.291 378.036 557.409 378.036C556.513 378.036 555.953 378.694 555.953 379.688V384H554.651V379.688C554.651 378.694 554.105 378.036 553.223 378.036C552.327 378.036 551.795 378.694 551.795 379.688V384H550.493ZM562.128 384V376.986H563.43V384H562.128ZM562.772 375.894C562.282 375.894 561.876 375.488 561.876 374.998C561.876 374.494 562.282 374.088 562.772 374.088C563.276 374.088 563.682 374.494 563.682 374.998C563.682 375.488 563.276 375.894 562.772 375.894ZM568.01 384.056C566.722 384.056 565.896 383.51 565.896 381.97V378.134H564.902V376.986H565.896V375.432L567.212 375.04V376.986H568.542V378.134H567.212V381.97C567.212 382.656 567.492 382.908 568.206 382.908H568.556V384.056H568.01ZM573.648 376.132C573.648 374.62 574.572 374.116 575.916 374.116H576.546L576.21 375.306H575.944C575.244 375.306 574.95 375.544 574.95 376.23V376.986H576.21V378.134H574.95V384H573.648V378.134H572.766V376.986H573.648V376.132ZM577.536 384V376.986H578.796V378.008C579.202 377.322 579.93 376.888 580.994 376.888H581.036V378.19H580.966C579.846 378.19 578.838 378.694 578.838 380.668V384H577.536ZM585.099 384.154C583.237 384.154 581.599 382.614 581.599 380.5C581.599 378.372 583.237 376.832 585.099 376.832C586.107 376.832 586.919 377.252 587.423 377.854V376.986H588.683V384H587.423V383.118C586.919 383.72 586.107 384.154 585.099 384.154ZM585.211 382.95C586.527 382.95 587.465 381.928 587.465 380.5C587.465 379.072 586.527 378.036 585.211 378.036C583.895 378.036 582.957 379.072 582.957 380.5C582.957 381.928 583.895 382.95 585.211 382.95ZM596.679 376.986V384H595.419V383.23C595.027 383.776 594.299 384.154 593.459 384.154C591.877 384.154 590.659 383.02 590.659 381.256V376.986H591.975V381.06C591.975 382.208 592.675 382.95 593.655 382.95C594.649 382.95 595.377 382.208 595.377 381.06V376.986H596.679ZM601.792 384.154C599.93 384.154 598.292 382.614 598.292 380.5C598.292 378.372 599.93 376.832 601.792 376.832C602.758 376.832 603.556 377.224 604.06 377.798V374.2H605.376V384H604.116V383.118C603.612 383.72 602.8 384.154 601.792 384.154ZM601.904 382.95C603.22 382.95 604.158 381.928 604.158 380.5C604.158 379.072 603.22 378.036 601.904 378.036C600.588 378.036 599.65 379.072 599.65 380.5C599.65 381.928 600.588 382.95 601.904 382.95ZM608.136 384.154C607.562 384.154 607.114 383.706 607.114 383.132C607.114 382.572 607.562 382.11 608.136 382.11C608.71 382.11 609.158 382.572 609.158 383.132C609.158 383.706 608.71 384.154 608.136 384.154Z" fill="#1E1F24"/>
<path d="M618.368 384C617.458 384 617.08 383.58 617.08 382.656V374.2H618.452V382.726H622.904V384H618.368ZM626.951 384.154C624.907 384.154 623.367 382.628 623.367 380.5C623.367 378.372 624.851 376.832 626.839 376.832C628.897 376.832 630.255 378.372 630.255 380.444C630.255 380.598 630.255 380.71 630.241 380.878H624.697C624.851 382.124 625.747 382.95 626.979 382.95C627.833 382.95 628.421 382.572 628.855 381.9L629.877 382.642C629.163 383.678 628.225 384.154 626.951 384.154ZM624.725 379.842H628.911C628.757 378.722 628.001 377.966 626.853 377.966C625.775 377.966 624.949 378.68 624.725 379.842ZM634.824 384.154C632.962 384.154 631.324 382.614 631.324 380.5C631.324 378.372 632.962 376.832 634.824 376.832C635.832 376.832 636.644 377.252 637.148 377.854V376.986H638.408V384H637.148V383.118C636.644 383.72 635.832 384.154 634.824 384.154ZM634.936 382.95C636.252 382.95 637.19 381.928 637.19 380.5C637.19 379.072 636.252 378.036 634.936 378.036C633.62 378.036 632.682 379.072 632.682 380.5C632.682 381.928 633.62 382.95 634.936 382.95ZM640.495 384V376.986H641.755V378.008C642.161 377.322 642.889 376.888 643.953 376.888H643.995V378.19H643.925C642.805 378.19 641.797 378.694 641.797 380.668V384H640.495ZM645.321 384V376.986H646.581V377.756C646.973 377.21 647.701 376.832 648.541 376.832C650.123 376.832 651.341 377.966 651.341 379.73V384H650.025V379.926C650.025 378.778 649.325 378.036 648.345 378.036C647.351 378.036 646.623 378.778 646.623 379.926V384H645.321ZM329.05 404V396.986H330.31V397.756C330.702 397.182 331.346 396.832 332.116 396.832C332.956 396.832 333.684 397.224 334.076 397.924C334.524 397.252 335.252 396.832 336.162 396.832C337.674 396.832 338.682 397.882 338.682 399.408V404H337.366V399.674C337.366 398.694 336.848 398.036 335.966 398.036C335.07 398.036 334.51 398.694 334.51 399.688V404H333.208V399.688C333.208 398.694 332.662 398.036 331.78 398.036C330.884 398.036 330.352 398.694 330.352 399.688V404H329.05ZM343.807 404.154C341.763 404.154 340.195 402.628 340.195 400.5C340.195 398.372 341.763 396.832 343.807 396.832C345.851 396.832 347.419 398.372 347.419 400.5C347.419 402.628 345.851 404.154 343.807 404.154ZM343.807 402.95C345.123 402.95 346.061 401.928 346.061 400.5C346.061 399.072 345.123 398.036 343.807 398.036C342.491 398.036 341.553 399.072 341.553 400.5C341.553 401.928 342.491 402.95 343.807 402.95ZM349.025 404V396.986H350.285V398.008C350.691 397.322 351.419 396.888 352.483 396.888H352.525V398.19H352.455C351.335 398.19 350.327 398.694 350.327 400.668V404H349.025ZM356.685 404.154C354.641 404.154 353.101 402.628 353.101 400.5C353.101 398.372 354.585 396.832 356.573 396.832C358.631 396.832 359.989 398.372 359.989 400.444C359.989 400.598 359.989 400.71 359.975 400.878H354.431C354.585 402.124 355.481 402.95 356.713 402.95C357.567 402.95 358.155 402.572 358.589 401.9L359.611 402.642C358.897 403.678 357.959 404.154 356.685 404.154ZM354.459 399.842H358.645C358.491 398.722 357.735 397.966 356.587 397.966C355.509 397.966 354.683 398.68 354.459 399.842Z" fill="#344175"/>
<path d="M615.848 385.47H652.283V386.45H615.848V385.47ZM328 405.47H360.493V406.45H328V405.47Z" fill="#344175"/>
<path d="M336 445.5H634C638.142 445.5 641.5 448.858 641.5 453V481C641.5 485.142 638.142 488.5 634 488.5H336C331.858 488.5 328.5 485.142 328.5 481V453C328.5 448.858 331.858 445.5 336 445.5Z" fill="#DB3000"/>
<path d="M336 445.5H634C638.142 445.5 641.5 448.858 641.5 453V481C641.5 485.142 638.142 488.5 634 488.5H336C331.858 488.5 328.5 485.142 328.5 481V453C328.5 448.858 331.858 445.5 336 445.5Z" stroke="#DB3000"/>
<path d="M444.273 462.447L442.547 460.72C442.027 460.2 441.18 460.2 440.66 460.72L432 469.393V473H435.607L444.273 464.333C444.793 463.813 444.793 462.967 444.273 462.447ZM435.06 471.667H433.333V469.94L439.333 463.94L441.06 465.667L435.06 471.667ZM442 464.727L440.273 463L441.607 461.667L443.333 463.393L442 464.727Z" fill="white"/>
<path d="M455.428 472V462.2H461.728V464.174H457.598V466.05H461.28V467.996H457.598V470.026H461.728V472H455.428ZM466.022 472.154C464.132 472.154 462.536 470.628 462.536 468.5C462.536 466.372 464.132 464.832 466.022 464.832C466.722 464.832 467.38 465.07 467.828 465.462V462.2H469.928V472H468.01V471.356C467.59 471.818 466.862 472.154 466.022 472.154ZM466.274 470.236C467.212 470.236 467.898 469.508 467.898 468.5C467.898 467.464 467.212 466.75 466.274 466.75C465.336 466.75 464.65 467.464 464.65 468.5C464.65 469.536 465.336 470.236 466.274 470.236ZM471.569 472V464.986H473.655V472H471.569ZM472.605 464.37C471.947 464.37 471.401 463.824 471.401 463.166C471.401 462.522 471.947 461.976 472.605 461.976C473.263 461.976 473.795 462.522 473.795 463.166C473.795 463.824 473.263 464.37 472.605 464.37ZM478.284 472.056C476.772 472.056 475.722 471.398 475.722 469.48V466.806H474.91V464.986H475.722V463.572L477.766 462.97V464.986H478.844V466.806H477.766V469.48C477.766 470.026 478.018 470.236 478.578 470.236H478.928V472.056H478.284ZM483.149 472V464.986H485.137V465.616C485.529 465.14 486.187 464.832 486.915 464.832C487.629 464.832 488.301 465.112 488.749 465.658C489.183 465.154 489.827 464.832 490.653 464.832C492.221 464.832 493.299 465.98 493.299 467.618V472H491.255V467.926C491.255 467.226 490.891 466.778 490.261 466.778C489.617 466.778 489.239 467.226 489.239 467.94V472H487.195V467.94C487.195 467.226 486.831 466.778 486.201 466.778C485.557 466.778 485.179 467.226 485.179 467.94V472H483.149ZM498.184 472.154C496.056 472.154 494.46 470.6 494.46 468.5C494.46 466.4 496 464.832 498.072 464.832C500.172 464.832 501.614 466.386 501.614 468.472C501.614 468.71 501.6 468.892 501.586 469.06H496.602C496.798 469.83 497.386 470.264 498.198 470.264C498.814 470.264 499.304 470.012 499.654 469.536L501.166 470.712C500.424 471.72 499.388 472.154 498.184 472.154ZM496.602 467.744H499.542C499.374 467.03 498.87 466.582 498.1 466.582C497.358 466.582 496.812 467.016 496.602 467.744ZM505.161 472.154C503.621 472.154 502.571 471.3 502.445 469.788H504.405C504.433 470.222 504.713 470.544 505.203 470.544C505.609 470.544 505.833 470.32 505.833 470.026C505.833 469.662 505.525 469.48 504.475 469.228C503.383 468.976 502.501 468.29 502.501 467.03C502.501 465.742 503.579 464.832 505.105 464.832C506.547 464.832 507.597 465.602 507.709 467.114H505.805C505.749 466.666 505.497 466.428 505.091 466.428C504.685 466.428 504.489 466.666 504.489 466.918C504.489 467.268 504.727 467.436 505.847 467.716C506.967 467.996 507.807 468.738 507.807 469.9C507.807 471.286 506.743 472.154 505.161 472.154ZM511.395 472.154C509.855 472.154 508.805 471.3 508.679 469.788H510.639C510.667 470.222 510.947 470.544 511.437 470.544C511.843 470.544 512.067 470.32 512.067 470.026C512.067 469.662 511.759 469.48 510.709 469.228C509.617 468.976 508.735 468.29 508.735 467.03C508.735 465.742 509.813 464.832 511.339 464.832C512.781 464.832 513.831 465.602 513.943 467.114H512.039C511.983 466.666 511.731 466.428 511.325 466.428C510.919 466.428 510.723 466.666 510.723 466.918C510.723 467.268 510.961 467.436 512.081 467.716C513.201 467.996 514.041 468.738 514.041 469.9C514.041 471.286 512.977 472.154 511.395 472.154ZM518.372 472.154C516.482 472.154 514.886 470.628 514.886 468.5C514.886 466.372 516.482 464.832 518.372 464.832C519.156 464.832 519.898 465.14 520.346 465.63V464.986H522.278V472H520.346V471.37C519.926 471.832 519.198 472.154 518.372 472.154ZM518.624 470.236C519.562 470.236 520.248 469.508 520.248 468.5C520.248 467.464 519.562 466.75 518.624 466.75C517.686 466.75 517 467.464 517 468.5C517 469.536 517.686 470.236 518.624 470.236ZM527.334 474.744C525.332 474.744 524.072 473.596 523.792 472.028H526.186C526.368 472.756 526.816 473.05 527.502 473.05C528.202 473.05 528.748 472.616 528.748 471.818V470.81C528.678 470.866 528.622 470.922 528.552 470.978C528.062 471.384 527.432 471.552 526.774 471.552C524.87 471.552 523.54 470.054 523.54 468.192C523.54 466.316 524.968 464.832 526.844 464.832C527.614 464.832 528.258 465.098 528.678 465.49C528.776 465.574 528.86 465.644 528.93 465.728V464.986H530.82V471.552C530.82 473.61 529.392 474.744 527.334 474.744ZM527.236 469.788C528.174 469.788 528.79 469.116 528.79 468.234C528.79 467.352 528.174 466.666 527.236 466.666C526.284 466.666 525.654 467.352 525.654 468.22C525.654 469.116 526.298 469.788 527.236 469.788ZM535.795 472.154C533.667 472.154 532.071 470.6 532.071 468.5C532.071 466.4 533.611 464.832 535.683 464.832C537.783 464.832 539.225 466.386 539.225 468.472C539.225 468.71 539.211 468.892 539.197 469.06H534.213C534.409 469.83 534.997 470.264 535.809 470.264C536.425 470.264 536.915 470.012 537.265 469.536L538.777 470.712C538.035 471.72 536.999 472.154 535.795 472.154ZM534.213 467.744H537.153C536.985 467.03 536.481 466.582 535.711 466.582C534.969 466.582 534.423 467.016 534.213 467.744Z" fill="white"/>
<mask id="path-9-inside-1_19_13089" fill="white">
<path d="M328 506C328 501.582 331.582 498 336 498H634C638.418 498 642 501.582 642 506V534C642 538.418 638.418 542 634 542H336C331.582 542 328 538.418 328 534V506Z"/>
</mask>
<path d="M336 498V499.5H634V498V496.5H336V498ZM642 506H640.5V534H642H643.5V506H642ZM634 542V540.5H336V542V543.5H634V542ZM328 534H329.5V506H328H326.5V534H328ZM336 542V540.5C332.41 540.5 329.5 537.59 329.5 534H328H326.5C326.5 539.247 330.753 543.5 336 543.5V542ZM642 534H640.5C640.5 537.59 637.59 540.5 634 540.5V542V543.5C639.247 543.5 643.5 539.247 643.5 534H642ZM634 498V499.5C637.59 499.5 640.5 502.41 640.5 506H642H643.5C643.5 500.753 639.247 496.5 634 496.5V498ZM336 498V496.5C330.753 496.5 326.5 500.753 326.5 506H328H329.5C329.5 502.41 332.41 499.5 336 499.5V498Z" fill="#68298A" mask="url(#path-9-inside-1_19_13089)"/>
<path fill-rule="evenodd" clip-rule="evenodd" d="M432.667 515.053C432.667 514.825 432.784 514.612 432.977 514.49C433.17 514.368 433.413 514.353 433.619 514.451C435.87 515.517 441.521 518.194 444.061 519.397C444.295 519.507 444.443 519.742 444.443 520C444.443 520.257 444.295 520.492 444.061 520.602C441.521 521.806 435.87 524.483 433.619 525.549C433.413 525.647 433.17 525.632 432.977 525.51C432.784 525.387 432.667 525.175 432.667 524.947C432.667 522.673 432.667 517.327 432.667 515.053ZM434 523.893L442.219 520L434 516.107V523.893ZM434 518.667L437 520L434 521.333V518.667Z" fill="#4F166E"/>
<path d="M458.295 525.154C456.265 525.154 454.935 523.978 454.795 521.976H456.741C456.825 522.984 457.483 523.516 458.323 523.516C459.149 523.516 459.639 523.026 459.639 522.368C459.639 521.528 459.065 521.234 457.595 520.842C456.139 520.436 454.935 519.596 454.935 517.902C454.935 516.208 456.265 515.046 458.183 515.046C460.115 515.046 461.305 516.152 461.473 518.042H459.541C459.485 517.174 458.869 516.684 458.127 516.684C457.385 516.684 456.853 517.118 456.853 517.748C456.853 518.546 457.455 518.784 458.813 519.176C460.339 519.638 461.585 520.618 461.585 522.186C461.585 524.062 460.269 525.154 458.295 525.154ZM466.212 525.154C464.112 525.154 462.53 523.6 462.53 521.5C462.53 519.4 464.056 517.832 466.1 517.832C468.2 517.832 469.6 519.386 469.6 521.458C469.6 521.668 469.6 521.836 469.586 522.004H464.42C464.616 522.914 465.302 523.488 466.24 523.488C466.926 523.488 467.444 523.194 467.822 522.648L469.18 523.698C468.452 524.706 467.444 525.154 466.212 525.154ZM464.434 520.786H467.766C467.612 519.946 467.024 519.4 466.128 519.4C465.274 519.4 464.644 519.918 464.434 520.786ZM470.921 525V517.986H472.685V518.644C473.077 518.182 473.735 517.832 474.547 517.832C476.073 517.832 477.291 518.938 477.291 520.702V525H475.443V521.052C475.443 520.128 474.925 519.554 474.113 519.554C473.315 519.554 472.769 520.128 472.769 521.052V525H470.921ZM482.053 525.154C480.177 525.154 478.567 523.628 478.567 521.5C478.567 519.372 480.177 517.832 482.053 517.832C482.823 517.832 483.523 518.112 483.999 518.56V515.2H485.861V525H484.153V524.286C483.705 524.776 482.949 525.154 482.053 525.154ZM482.263 523.46C483.327 523.46 484.097 522.634 484.097 521.5C484.097 520.338 483.327 519.526 482.263 519.526C481.213 519.526 480.443 520.338 480.443 521.5C480.443 522.662 481.213 523.46 482.263 523.46ZM493.702 525.154C491.826 525.154 490.216 523.628 490.216 521.5C490.216 519.372 491.826 517.832 493.702 517.832C494.556 517.832 495.312 518.168 495.788 518.7V517.986H497.524V525H495.788V524.3C495.34 524.79 494.598 525.154 493.702 525.154ZM493.912 523.46C494.976 523.46 495.746 522.634 495.746 521.5C495.746 520.338 494.976 519.526 493.912 519.526C492.862 519.526 492.092 520.338 492.092 521.5C492.092 522.662 492.862 523.46 493.912 523.46ZM499.304 525V517.986H501.068V518.644C501.46 518.182 502.118 517.832 502.93 517.832C504.456 517.832 505.674 518.938 505.674 520.702V525H503.826V521.052C503.826 520.128 503.308 519.554 502.496 519.554C501.698 519.554 501.152 520.128 501.152 521.052V525H499.304ZM507.684 527.59L508.902 524.524L506.41 517.986H508.37L509.868 522.494L511.422 517.986H513.284L509.616 527.59H507.684ZM516.528 525.084C515.66 525.084 515.31 524.482 515.086 523.558L513.672 517.986H515.478L516.626 523.194L517.634 518.952C517.76 518.378 518.124 517.916 518.796 517.916C519.468 517.916 519.874 518.378 520 518.98L520.98 523.222L522.142 517.986H523.892L522.464 523.558C522.24 524.482 521.876 525.084 521.008 525.084C520.196 525.084 519.776 524.594 519.552 523.558L518.754 520.324L517.97 523.544C517.76 524.51 517.382 525.084 516.528 525.084ZM527.909 525.154C526.033 525.154 524.423 523.628 524.423 521.5C524.423 519.372 526.033 517.832 527.909 517.832C528.763 517.832 529.519 518.168 529.995 518.7V517.986H531.731V525H529.995V524.3C529.547 524.79 528.805 525.154 527.909 525.154ZM528.119 523.46C529.183 523.46 529.953 522.634 529.953 521.5C529.953 520.338 529.183 519.526 528.119 519.526C527.069 519.526 526.299 520.338 526.299 521.5C526.299 522.662 527.069 523.46 528.119 523.46ZM534.043 527.59L535.261 524.524L532.769 517.986H534.729L536.227 522.494L537.781 517.986H539.643L535.975 527.59H534.043Z" fill="#4F166E"/>
<path fill-rule="evenodd" clip-rule="evenodd" d="M292 578H678V579H292V578Z" fill="#DCDFE0"/>
</g>
<defs>
<clipPath id="clip0_19_13089">
<path d="M292 259C292 252.373 297.373 247 304 247H666C672.627 247 678 252.373 678 259V567C678 573.628 672.627 579 666 579H304C297.373 579 292 573.628 292 567V259Z" fill="white"/>
</clipPath>
</defs>
</svg>
