<svg width="681" height="596" viewBox="0 0 681 596" fill="none" xmlns="http://www.w3.org/2000/svg">
<rect width="681" height="596" fill="#E2E8F0"/>
<g filter="url(#filter0_d_3_3973)">
<path d="M44 87C44 80.3726 49.3726 75 56 75H433C439.627 75 445 80.3726 445 87V175C445 181.627 439.627 187 433 187H56C49.3726 187 44 181.627 44 175V87Z" fill="white"/>
<path d="M61.642 104.154C58.842 104.154 56.574 101.97 56.574 99.1C56.574 96.3 58.87 94.046 61.67 94.046C63.756 94.046 65.296 95.18 66.108 96.818L64.386 97.686C63.91 96.65 62.986 95.908 61.67 95.908C59.962 95.908 58.674 97.28 58.674 99.072C58.674 100.878 59.962 102.292 61.67 102.292C62.986 102.292 63.924 101.494 64.386 100.472L66.136 101.354C65.324 103.02 63.742 104.154 61.642 104.154ZM70.535 104.154C68.449 104.154 66.839 102.614 66.839 100.5C66.839 98.386 68.449 96.832 70.535 96.832C72.621 96.832 74.231 98.372 74.231 100.5C74.231 102.628 72.621 104.154 70.535 104.154ZM70.535 102.46C71.585 102.46 72.355 101.634 72.355 100.5C72.355 99.352 71.585 98.512 70.535 98.512C69.485 98.512 68.715 99.338 68.715 100.5C68.715 101.634 69.485 102.46 70.535 102.46ZM75.5855 104V96.986H77.3495V97.644C77.7415 97.182 78.3995 96.832 79.2115 96.832C80.7375 96.832 81.9555 97.938 81.9555 99.702V104H80.1075V100.052C80.1075 99.128 79.5895 98.554 78.7775 98.554C77.9795 98.554 77.4335 99.128 77.4335 100.052V104H75.5855ZM86.3842 104.056C84.9282 104.056 83.9622 103.44 83.9622 101.634V98.596H83.0942V96.986H83.9622V95.53L85.7682 94.984V96.986H86.9302V98.596H85.7682V101.634C85.7682 102.222 86.0482 102.446 86.6502 102.446H87.0002V104.056H86.3842ZM88.3823 104V96.986H90.1463V97.854C90.5803 97.252 91.2383 96.888 92.2183 96.888H92.2743V98.68H92.1763C91.2803 98.68 90.1883 98.96 90.1883 100.976V104H88.3823ZM96.4842 104.154C94.3982 104.154 92.7882 102.614 92.7882 100.5C92.7882 98.386 94.3982 96.832 96.4842 96.832C98.5702 96.832 100.18 98.372 100.18 100.5C100.18 102.628 98.5702 104.154 96.4842 104.154ZM96.4842 102.46C97.5342 102.46 98.3042 101.634 98.3042 100.5C98.3042 99.352 97.5342 98.512 96.4842 98.512C95.4342 98.512 94.6642 99.338 94.6642 100.5C94.6642 101.634 95.4342 102.46 96.4842 102.46ZM101.535 104V94.2H103.383V104H101.535ZM109.573 96.006C109.937 94.788 110.371 94.102 111.449 94.102C112.485 94.102 112.947 94.802 113.283 95.992L115.621 104H113.591L113.059 102.054H109.671L109.125 104H107.165L109.573 96.006ZM110.147 100.388H112.611L111.393 95.922L110.147 100.388ZM116.975 104V94.2H118.907V104H116.975ZM126.156 104.154C124.644 104.154 123.608 103.328 123.468 101.844H125.232C125.274 102.362 125.638 102.712 126.198 102.712C126.674 102.712 126.982 102.446 126.982 102.068C126.982 101.606 126.618 101.41 125.526 101.144C124.392 100.864 123.566 100.192 123.566 98.96C123.566 97.714 124.616 96.832 126.086 96.832C127.514 96.832 128.536 97.574 128.648 99.044H126.926C126.856 98.526 126.548 98.26 126.086 98.26C125.61 98.26 125.33 98.54 125.33 98.862C125.33 99.282 125.61 99.478 126.758 99.758C127.892 100.052 128.732 100.78 128.732 101.942C128.732 103.3 127.71 104.154 126.156 104.154ZM136.395 96.986V104H134.631V103.342C134.239 103.804 133.581 104.154 132.769 104.154C131.243 104.154 130.025 103.048 130.025 101.284V96.986H131.873V100.934C131.873 101.858 132.391 102.432 133.203 102.432C134.001 102.432 134.547 101.858 134.547 100.934V96.986H136.395ZM138.189 104V96.986H139.953V97.672C140.331 97.154 140.989 96.832 141.745 96.832C142.487 96.832 143.173 97.14 143.607 97.742C144.055 97.182 144.727 96.832 145.581 96.832C147.121 96.832 148.171 97.952 148.171 99.548V104H146.365V99.856C146.365 99.072 145.945 98.554 145.231 98.554C144.517 98.554 144.083 99.072 144.083 99.856V104H142.277V99.856C142.277 99.072 141.843 98.554 141.129 98.554C140.415 98.554 139.995 99.072 139.995 99.856V104H138.189ZM149.878 104V96.986H151.642V97.672C152.02 97.154 152.678 96.832 153.434 96.832C154.176 96.832 154.862 97.14 155.296 97.742C155.744 97.182 156.416 96.832 157.27 96.832C158.81 96.832 159.86 97.952 159.86 99.548V104H158.054V99.856C158.054 99.072 157.634 98.554 156.92 98.554C156.206 98.554 155.772 99.072 155.772 99.856V104H153.966V99.856C153.966 99.072 153.532 98.554 152.818 98.554C152.104 98.554 151.684 99.072 151.684 99.856V104H149.878ZM164.62 104.154C162.744 104.154 161.134 102.628 161.134 100.5C161.134 98.372 162.744 96.832 164.62 96.832C165.474 96.832 166.23 97.168 166.706 97.7V96.986H168.442V104H166.706V103.3C166.258 103.79 165.516 104.154 164.62 104.154ZM164.83 102.46C165.894 102.46 166.664 101.634 166.664 100.5C166.664 99.338 165.894 98.526 164.83 98.526C163.78 98.526 163.01 99.338 163.01 100.5C163.01 101.662 163.78 102.46 164.83 102.46ZM170.222 104V96.986H171.986V97.854C172.42 97.252 173.078 96.888 174.058 96.888H174.114V98.68H174.016C173.12 98.68 172.028 98.96 172.028 100.976V104H170.222ZM175.826 106.59L177.044 103.524L174.552 96.986H176.512L178.01 101.494L179.564 96.986H181.426L177.758 106.59H175.826ZM188.19 104.154C186.314 104.154 184.704 102.628 184.704 100.5C184.704 98.372 186.314 96.832 188.19 96.832C188.96 96.832 189.66 97.112 190.136 97.56V94.2H191.998V104H190.29V103.286C189.842 103.776 189.086 104.154 188.19 104.154ZM188.4 102.46C189.464 102.46 190.234 101.634 190.234 100.5C190.234 99.338 189.464 98.526 188.4 98.526C187.35 98.526 186.58 99.338 186.58 100.5C186.58 101.662 187.35 102.46 188.4 102.46ZM193.792 104V96.986H195.64V104H193.792ZM194.702 96.23C194.1 96.23 193.596 95.726 193.596 95.124C193.596 94.508 194.1 94.018 194.702 94.018C195.318 94.018 195.808 94.508 195.808 95.124C195.808 95.726 195.318 96.23 194.702 96.23ZM199.67 104.154C198.158 104.154 197.122 103.328 196.982 101.844H198.746C198.788 102.362 199.152 102.712 199.712 102.712C200.188 102.712 200.496 102.446 200.496 102.068C200.496 101.606 200.132 101.41 199.04 101.144C197.906 100.864 197.08 100.192 197.08 98.96C197.08 97.714 198.13 96.832 199.6 96.832C201.028 96.832 202.05 97.574 202.162 99.044H200.44C200.37 98.526 200.062 98.26 199.6 98.26C199.124 98.26 198.844 98.54 198.844 98.862C198.844 99.282 199.124 99.478 200.272 99.758C201.406 100.052 202.246 100.78 202.246 101.942C202.246 103.3 201.224 104.154 199.67 104.154ZM203.623 106.59V96.986H205.331V97.7C205.779 97.21 206.521 96.832 207.417 96.832C209.307 96.832 210.917 98.358 210.917 100.486C210.917 102.614 209.307 104.14 207.417 104.14C206.633 104.14 205.947 103.86 205.471 103.412V106.59H203.623ZM207.207 102.46C208.271 102.46 209.027 101.634 209.027 100.486C209.027 99.352 208.271 98.526 207.207 98.526C206.157 98.526 205.401 99.352 205.401 100.486C205.401 101.648 206.157 102.46 207.207 102.46ZM212.277 104V94.2H214.125V104H212.277ZM218.952 104.154C217.076 104.154 215.466 102.628 215.466 100.5C215.466 98.372 217.076 96.832 218.952 96.832C219.806 96.832 220.562 97.168 221.038 97.7V96.986H222.774V104H221.038V103.3C220.59 103.79 219.848 104.154 218.952 104.154ZM219.162 102.46C220.226 102.46 220.996 101.634 220.996 100.5C220.996 99.338 220.226 98.526 219.162 98.526C218.112 98.526 217.342 99.338 217.342 100.5C217.342 101.662 218.112 102.46 219.162 102.46ZM225.086 106.59L226.304 103.524L223.812 96.986H225.772L227.27 101.494L228.824 96.986H230.686L227.018 106.59H225.086Z" fill="#1B1B21"/>
<path d="M371.354 104.154C368.512 104.154 366.258 101.914 366.258 99.1C366.258 96.272 368.526 94.046 371.354 94.046C374.182 94.046 376.45 96.3 376.45 99.1C376.45 101.914 374.182 104.154 371.354 104.154ZM371.354 102.838C373.412 102.838 374.966 101.2 374.966 99.1C374.966 97.014 373.412 95.362 371.354 95.362C369.282 95.362 367.742 97 367.742 99.1C367.742 101.2 369.268 102.838 371.354 102.838ZM378.038 104V96.986H379.298V97.756C379.69 97.21 380.418 96.832 381.258 96.832C382.84 96.832 384.058 97.966 384.058 99.73V104H382.742V99.926C382.742 98.778 382.042 98.036 381.062 98.036C380.068 98.036 379.34 98.778 379.34 99.926V104H378.038Z" fill="#1B1B21"/>
<rect x="393" y="87" width="40" height="24" rx="12" fill="#350051"/>
<path fill-rule="evenodd" clip-rule="evenodd" d="M421 109C426.523 109 431 104.523 431 99C431 93.4772 426.523 89 421 89C415.477 89 411 93.4772 411 99C411 104.523 415.477 109 421 109Z" fill="white"/>
<path d="M57.26 130V120.2H59.318C63.056 120.2 64.834 122.342 64.834 125.1C64.834 127.83 63.056 130 59.318 130H57.26ZM59.346 128.768C61.852 128.768 63.35 127.452 63.35 125.1C63.35 122.734 61.866 121.432 59.36 121.432H58.646V128.768H59.346ZM69.5916 130.154C67.5476 130.154 66.0076 128.628 66.0076 126.5C66.0076 124.372 67.4916 122.832 69.4796 122.832C71.5376 122.832 72.8956 124.372 72.8956 126.444C72.8956 126.598 72.8956 126.71 72.8816 126.878H67.3376C67.4916 128.124 68.3876 128.95 69.6196 128.95C70.4736 128.95 71.0616 128.572 71.4956 127.9L72.5176 128.642C71.8036 129.678 70.8656 130.154 69.5916 130.154ZM67.3656 125.842H71.5516C71.3976 124.722 70.6416 123.966 69.4936 123.966C68.4156 123.966 67.5896 124.68 67.3656 125.842ZM77.6043 130.154C75.5463 130.154 73.9643 128.614 73.9643 126.486C73.9643 124.358 75.5603 122.832 77.6043 122.832C79.0883 122.832 80.2643 123.672 80.8243 124.932L79.6343 125.464C79.3123 124.582 78.5983 124.036 77.6323 124.036C76.3303 124.036 75.3643 125.044 75.3643 126.472C75.3643 127.9 76.3303 128.95 77.6463 128.95C78.7243 128.95 79.3823 128.306 79.6903 127.424L80.8663 127.872C80.3623 129.286 79.1723 130.154 77.6043 130.154ZM82.384 130V122.986H83.686V130H82.384ZM83.028 121.894C82.538 121.894 82.132 121.488 82.132 120.998C82.132 120.494 82.538 120.088 83.028 120.088C83.532 120.088 83.938 120.494 83.938 120.998C83.938 121.488 83.532 121.894 83.028 121.894ZM88.7983 130.154C86.9363 130.154 85.2983 128.614 85.2983 126.5C85.2983 124.372 86.9363 122.832 88.7983 122.832C89.7643 122.832 90.5623 123.224 91.0663 123.798V120.2H92.3823V130H91.1223V129.118C90.6183 129.72 89.8063 130.154 88.7983 130.154ZM88.9103 128.95C90.2263 128.95 91.1643 127.928 91.1643 126.5C91.1643 125.072 90.2263 124.036 88.9103 124.036C87.5943 124.036 86.6563 125.072 86.6563 126.5C86.6563 127.928 87.5943 128.95 88.9103 128.95ZM97.5779 130.154C95.5339 130.154 93.9939 128.628 93.9939 126.5C93.9939 124.372 95.4779 122.832 97.4659 122.832C99.5239 122.832 100.882 124.372 100.882 126.444C100.882 126.598 100.882 126.71 100.868 126.878H95.3239C95.4779 128.124 96.3739 128.95 97.6059 128.95C98.4599 128.95 99.0479 128.572 99.4819 127.9L100.504 128.642C99.7899 129.678 98.8519 130.154 97.5779 130.154ZM95.3519 125.842H99.5379C99.3839 124.722 98.6279 123.966 97.4799 123.966C96.4019 123.966 95.5759 124.68 95.3519 125.842ZM105.64 130V122.986H106.942V130H105.64ZM106.284 121.894C105.794 121.894 105.388 121.488 105.388 120.998C105.388 120.494 105.794 120.088 106.284 120.088C106.788 120.088 107.194 120.494 107.194 120.998C107.194 121.488 106.788 121.894 106.284 121.894ZM109.38 122.132C109.38 120.62 110.304 120.116 111.648 120.116H112.278L111.942 121.306H111.676C110.976 121.306 110.682 121.544 110.682 122.23V122.986H111.942V124.134H110.682V130H109.38V124.134H108.498V122.986H109.38V122.132ZM119.454 130.154C117.396 130.154 115.814 128.614 115.814 126.486C115.814 124.358 117.41 122.832 119.454 122.832C120.938 122.832 122.114 123.672 122.674 124.932L121.484 125.464C121.162 124.582 120.448 124.036 119.482 124.036C118.18 124.036 117.214 125.044 117.214 126.472C117.214 127.9 118.18 128.95 119.496 128.95C120.574 128.95 121.232 128.306 121.54 127.424L122.716 127.872C122.212 129.286 121.022 130.154 119.454 130.154ZM130.142 122.986V130H128.882V129.23C128.49 129.776 127.762 130.154 126.922 130.154C125.34 130.154 124.122 129.02 124.122 127.256V122.986H125.438V127.06C125.438 128.208 126.138 128.95 127.118 128.95C128.112 128.95 128.84 128.208 128.84 127.06V122.986H130.142ZM134.289 130.154C132.875 130.154 131.825 129.384 131.685 127.97H133.015C133.099 128.684 133.617 129.076 134.331 129.076C135.003 129.076 135.479 128.712 135.479 128.166C135.479 127.494 134.975 127.256 133.785 126.934C132.595 126.612 131.881 125.954 131.881 124.82C131.881 123.658 132.875 122.832 134.247 122.832C135.577 122.832 136.571 123.518 136.683 124.876H135.367C135.269 124.218 134.821 123.91 134.219 123.91C133.589 123.91 133.155 124.26 133.155 124.75C133.155 125.296 133.533 125.548 134.723 125.87C135.885 126.178 136.753 126.864 136.753 128.068C136.753 129.314 135.773 130.154 134.289 130.154ZM140.821 130.056C139.533 130.056 138.707 129.51 138.707 127.97V124.134H137.713V122.986H138.707V121.432L140.023 121.04V122.986H141.353V124.134H140.023V127.97C140.023 128.656 140.303 128.908 141.017 128.908H141.367V130.056H140.821ZM145.908 130.154C143.864 130.154 142.296 128.628 142.296 126.5C142.296 124.372 143.864 122.832 145.908 122.832C147.952 122.832 149.52 124.372 149.52 126.5C149.52 128.628 147.952 130.154 145.908 130.154ZM145.908 128.95C147.224 128.95 148.162 127.928 148.162 126.5C148.162 125.072 147.224 124.036 145.908 124.036C144.592 124.036 143.654 125.072 143.654 126.5C143.654 127.928 144.592 128.95 145.908 128.95ZM151.126 130V122.986H152.386V123.756C152.778 123.182 153.422 122.832 154.192 122.832C155.032 122.832 155.76 123.224 156.152 123.924C156.6 123.252 157.328 122.832 158.238 122.832C159.75 122.832 160.758 123.882 160.758 125.408V130H159.442V125.674C159.442 124.694 158.924 124.036 158.042 124.036C157.146 124.036 156.586 124.694 156.586 125.688V130H155.284V125.688C155.284 124.694 154.738 124.036 153.856 124.036C152.96 124.036 152.428 124.694 152.428 125.688V130H151.126ZM165.869 130.154C163.825 130.154 162.285 128.628 162.285 126.5C162.285 124.372 163.769 122.832 165.757 122.832C167.815 122.832 169.173 124.372 169.173 126.444C169.173 126.598 169.173 126.71 169.159 126.878H163.615C163.769 128.124 164.665 128.95 165.897 128.95C166.751 128.95 167.339 128.572 167.773 127.9L168.795 128.642C168.081 129.678 167.143 130.154 165.869 130.154ZM163.643 125.842H167.829C167.675 124.722 166.919 123.966 165.771 123.966C164.693 123.966 163.867 124.68 163.643 125.842ZM170.732 130V122.986H171.992V124.008C172.398 123.322 173.126 122.888 174.19 122.888H174.232V124.19H174.162C173.042 124.19 172.034 124.694 172.034 126.668V130H170.732ZM177.492 130.154C176.078 130.154 175.028 129.384 174.888 127.97H176.218C176.302 128.684 176.82 129.076 177.534 129.076C178.206 129.076 178.682 128.712 178.682 128.166C178.682 127.494 178.178 127.256 176.988 126.934C175.798 126.612 175.084 125.954 175.084 124.82C175.084 123.658 176.078 122.832 177.45 122.832C178.78 122.832 179.774 123.518 179.886 124.876H178.57C178.472 124.218 178.024 123.91 177.422 123.91C176.792 123.91 176.358 124.26 176.358 124.75C176.358 125.296 176.736 125.548 177.926 125.87C179.088 126.178 179.956 126.864 179.956 128.068C179.956 129.314 178.976 130.154 177.492 130.154ZM186.83 130.154C185.416 130.154 184.366 129.384 184.226 127.97H185.556C185.64 128.684 186.158 129.076 186.872 129.076C187.544 129.076 188.02 128.712 188.02 128.166C188.02 127.494 187.516 127.256 186.326 126.934C185.136 126.612 184.422 125.954 184.422 124.82C184.422 123.658 185.416 122.832 186.788 122.832C188.118 122.832 189.112 123.518 189.224 124.876H187.908C187.81 124.218 187.362 123.91 186.76 123.91C186.13 123.91 185.696 124.26 185.696 124.75C185.696 125.296 186.074 125.548 187.264 125.87C188.426 126.178 189.294 126.864 189.294 128.068C189.294 129.314 188.314 130.154 186.83 130.154ZM190.925 130V120.2H192.227V123.7C192.619 123.182 193.333 122.832 194.145 122.832C195.727 122.832 196.945 123.966 196.945 125.73V130H195.629V125.926C195.629 124.778 194.929 124.036 193.949 124.036C192.955 124.036 192.227 124.778 192.227 125.926V130H190.925ZM202.059 130.154C200.015 130.154 198.447 128.628 198.447 126.5C198.447 124.372 200.015 122.832 202.059 122.832C204.103 122.832 205.671 124.372 205.671 126.5C205.671 128.628 204.103 130.154 202.059 130.154ZM202.059 128.95C203.375 128.95 204.313 127.928 204.313 126.5C204.313 125.072 203.375 124.036 202.059 124.036C200.743 124.036 199.805 125.072 199.805 126.5C199.805 127.928 200.743 128.95 202.059 128.95ZM213.185 122.986V130H211.925V129.23C211.533 129.776 210.805 130.154 209.965 130.154C208.383 130.154 207.165 129.02 207.165 127.256V122.986H208.481V127.06C208.481 128.208 209.181 128.95 210.161 128.95C211.155 128.95 211.883 128.208 211.883 127.06V122.986H213.185ZM215.288 130V120.2H216.59V130H215.288ZM221.703 130.154C219.841 130.154 218.203 128.614 218.203 126.5C218.203 124.372 219.841 122.832 221.703 122.832C222.669 122.832 223.467 123.224 223.971 123.798V120.2H225.287V130H224.027V129.118C223.523 129.72 222.711 130.154 221.703 130.154ZM221.815 128.95C223.131 128.95 224.069 127.928 224.069 126.5C224.069 125.072 223.131 124.036 221.815 124.036C220.499 124.036 219.561 125.072 219.561 126.5C219.561 127.928 220.499 128.95 221.815 128.95ZM232.617 130.154C231.203 130.154 230.153 129.384 230.013 127.97H231.343C231.427 128.684 231.945 129.076 232.659 129.076C233.331 129.076 233.807 128.712 233.807 128.166C233.807 127.494 233.303 127.256 232.113 126.934C230.923 126.612 230.209 125.954 230.209 124.82C230.209 123.658 231.203 122.832 232.575 122.832C233.905 122.832 234.899 123.518 235.011 124.876H233.695C233.597 124.218 233.149 123.91 232.547 123.91C231.917 123.91 231.483 124.26 231.483 124.75C231.483 125.296 231.861 125.548 233.051 125.87C234.213 126.178 235.081 126.864 235.081 128.068C235.081 129.314 234.101 130.154 232.617 130.154ZM239.82 130.154C237.776 130.154 236.236 128.628 236.236 126.5C236.236 124.372 237.72 122.832 239.708 122.832C241.766 122.832 243.124 124.372 243.124 126.444C243.124 126.598 243.124 126.71 243.11 126.878H237.566C237.72 128.124 238.616 128.95 239.848 128.95C240.702 128.95 241.29 128.572 241.724 127.9L242.746 128.642C242.032 129.678 241.094 130.154 239.82 130.154ZM237.594 125.842H241.78C241.626 124.722 240.87 123.966 239.722 123.966C238.644 123.966 237.818 124.68 237.594 125.842ZM247.791 130.154C245.747 130.154 244.207 128.628 244.207 126.5C244.207 124.372 245.691 122.832 247.679 122.832C249.737 122.832 251.095 124.372 251.095 126.444C251.095 126.598 251.095 126.71 251.081 126.878H245.537C245.691 128.124 246.587 128.95 247.819 128.95C248.673 128.95 249.261 128.572 249.695 127.9L250.717 128.642C250.003 129.678 249.065 130.154 247.791 130.154ZM245.565 125.842H249.751C249.597 124.722 248.841 123.966 247.693 123.966C246.615 123.966 245.789 124.68 245.565 125.842ZM258.331 130.056C257.043 130.056 256.217 129.51 256.217 127.97V124.134H255.223V122.986H256.217V121.432L257.533 121.04V122.986H258.863V124.134H257.533V127.97C257.533 128.656 257.813 128.908 258.527 128.908H258.877V130.056H258.331ZM260.433 130V120.2H261.735V123.7C262.127 123.182 262.841 122.832 263.653 122.832C265.235 122.832 266.453 123.966 266.453 125.73V130H265.137V125.926C265.137 124.778 264.437 124.036 263.457 124.036C262.463 124.036 261.735 124.778 261.735 125.926V130H260.433ZM271.553 130.154C269.509 130.154 267.969 128.628 267.969 126.5C267.969 124.372 269.453 122.832 271.441 122.832C273.499 122.832 274.857 124.372 274.857 126.444C274.857 126.598 274.857 126.71 274.843 126.878H269.299C269.453 128.124 270.349 128.95 271.581 128.95C272.435 128.95 273.023 128.572 273.457 127.9L274.479 128.642C273.765 129.678 272.827 130.154 271.553 130.154ZM269.327 125.842H273.513C273.359 124.722 272.603 123.966 271.455 123.966C270.377 123.966 269.551 124.68 269.327 125.842ZM281.302 121.446C281.568 120.62 281.876 120.13 282.632 120.13C283.374 120.13 283.696 120.62 283.962 121.446L286.678 130H285.236L284.522 127.676H280.644L279.916 130H278.53L281.302 121.446ZM281.022 126.444H284.144L282.59 121.376L281.022 126.444ZM288.246 130V120.2H289.632V130H288.246ZM297.19 130.154C295.776 130.154 294.726 129.384 294.586 127.97H295.916C296 128.684 296.518 129.076 297.232 129.076C297.904 129.076 298.38 128.712 298.38 128.166C298.38 127.494 297.876 127.256 296.686 126.934C295.496 126.612 294.782 125.954 294.782 124.82C294.782 123.658 295.776 122.832 297.148 122.832C298.478 122.832 299.472 123.518 299.584 124.876H298.268C298.17 124.218 297.722 123.91 297.12 123.91C296.49 123.91 296.056 124.26 296.056 124.75C296.056 125.296 296.434 125.548 297.624 125.87C298.786 126.178 299.654 126.864 299.654 128.068C299.654 129.314 298.674 130.154 297.19 130.154ZM307.192 122.986V130H305.932V129.23C305.54 129.776 304.812 130.154 303.972 130.154C302.39 130.154 301.172 129.02 301.172 127.256V122.986H302.488V127.06C302.488 128.208 303.188 128.95 304.168 128.95C305.162 128.95 305.89 128.208 305.89 127.06V122.986H307.192ZM309.296 130V122.986H310.556V123.756C310.948 123.182 311.592 122.832 312.362 122.832C313.202 122.832 313.93 123.224 314.322 123.924C314.77 123.252 315.498 122.832 316.408 122.832C317.92 122.832 318.928 123.882 318.928 125.408V130H317.612V125.674C317.612 124.694 317.094 124.036 316.212 124.036C315.316 124.036 314.756 124.694 314.756 125.688V130H313.454V125.688C313.454 124.694 312.908 124.036 312.026 124.036C311.13 124.036 310.598 124.694 310.598 125.688V130H309.296ZM320.931 130V122.986H322.191V123.756C322.583 123.182 323.227 122.832 323.997 122.832C324.837 122.832 325.565 123.224 325.957 123.924C326.405 123.252 327.133 122.832 328.043 122.832C329.555 122.832 330.563 123.882 330.563 125.408V130H329.247V125.674C329.247 124.694 328.729 124.036 327.847 124.036C326.951 124.036 326.391 124.694 326.391 125.688V130H325.089V125.688C325.089 124.694 324.543 124.036 323.661 124.036C322.765 124.036 322.233 124.694 322.233 125.688V130H320.931ZM335.576 130.154C333.714 130.154 332.076 128.614 332.076 126.5C332.076 124.372 333.714 122.832 335.576 122.832C336.584 122.832 337.396 123.252 337.9 123.854V122.986H339.16V130H337.9V129.118C337.396 129.72 336.584 130.154 335.576 130.154ZM335.688 128.95C337.004 128.95 337.942 127.928 337.942 126.5C337.942 125.072 337.004 124.036 335.688 124.036C334.372 124.036 333.434 125.072 333.434 126.5C333.434 127.928 334.372 128.95 335.688 128.95ZM341.247 130V122.986H342.507V124.008C342.913 123.322 343.641 122.888 344.705 122.888H344.747V124.19H344.677C343.557 124.19 342.549 124.694 342.549 126.668V130H341.247ZM346.465 132.59L347.837 129.328L345.247 122.986H346.689L348.523 127.858L350.427 122.986H351.771L347.851 132.59H346.465ZM359.026 130.154C356.982 130.154 355.414 128.628 355.414 126.5C355.414 124.372 356.982 122.832 359.026 122.832C361.07 122.832 362.638 124.372 362.638 126.5C362.638 128.628 361.07 130.154 359.026 130.154ZM359.026 128.95C360.342 128.95 361.28 127.928 361.28 126.5C361.28 125.072 360.342 124.036 359.026 124.036C357.71 124.036 356.772 125.072 356.772 126.5C356.772 127.928 357.71 128.95 359.026 128.95ZM364.456 122.132C364.456 120.62 365.38 120.116 366.724 120.116H367.354L367.018 121.306H366.752C366.052 121.306 365.758 121.544 365.758 122.23V122.986H367.018V124.134H365.758V130H364.456V124.134H363.574V122.986H364.456V122.132ZM371.458 132.59L372.83 129.328L370.24 122.986H371.682L373.516 127.858L375.42 122.986H376.764L372.844 132.59H371.458ZM380.901 130.154C378.857 130.154 377.289 128.628 377.289 126.5C377.289 124.372 378.857 122.832 380.901 122.832C382.945 122.832 384.513 124.372 384.513 126.5C384.513 128.628 382.945 130.154 380.901 130.154ZM380.901 128.95C382.217 128.95 383.155 127.928 383.155 126.5C383.155 125.072 382.217 124.036 380.901 124.036C379.585 124.036 378.647 125.072 378.647 126.5C378.647 127.928 379.585 128.95 380.901 128.95ZM392.026 122.986V130H390.766V129.23C390.374 129.776 389.646 130.154 388.806 130.154C387.224 130.154 386.006 129.02 386.006 127.256V122.986H387.322V127.06C387.322 128.208 388.022 128.95 389.002 128.95C389.996 128.95 390.724 128.208 390.724 127.06V122.986H392.026ZM394.13 130V122.986H395.39V124.008C395.796 123.322 396.524 122.888 397.588 122.888H397.63V124.19H397.56C396.44 124.19 395.432 124.694 395.432 126.668V130H394.13ZM57.05 150V142.986H58.31V144.008C58.716 143.322 59.444 142.888 60.508 142.888H60.55V144.19H60.48C59.36 144.19 58.352 144.694 58.352 146.668V150H57.05ZM64.7107 150.154C62.6667 150.154 61.1267 148.628 61.1267 146.5C61.1267 144.372 62.6107 142.832 64.5987 142.832C66.6567 142.832 68.0147 144.372 68.0147 146.444C68.0147 146.598 68.0147 146.71 68.0007 146.878H62.4567C62.6107 148.124 63.5067 148.95 64.7387 148.95C65.5927 148.95 66.1807 148.572 66.6147 147.9L67.6367 148.642C66.9227 149.678 65.9847 150.154 64.7107 150.154ZM62.4847 145.842H66.6707C66.5167 144.722 65.7607 143.966 64.6127 143.966C63.5347 143.966 62.7087 144.68 62.4847 145.842ZM71.8457 150.084C71.2157 150.084 70.9357 149.678 70.6977 148.992L68.5837 142.986H69.9837L71.8737 148.684L73.7637 142.986H75.0937L72.9657 148.992C72.7277 149.664 72.4757 150.084 71.8457 150.084ZM76.3684 150V142.986H77.6704V150H76.3684ZM77.0124 141.894C76.5224 141.894 76.1164 141.488 76.1164 140.998C76.1164 140.494 76.5224 140.088 77.0124 140.088C77.5164 140.088 77.9224 140.494 77.9224 140.998C77.9224 141.488 77.5164 141.894 77.0124 141.894ZM82.8807 150.154C80.8367 150.154 79.2967 148.628 79.2967 146.5C79.2967 144.372 80.7807 142.832 82.7687 142.832C84.8267 142.832 86.1847 144.372 86.1847 146.444C86.1847 146.598 86.1847 146.71 86.1707 146.878H80.6267C80.7807 148.124 81.6767 148.95 82.9087 148.95C83.7627 148.95 84.3507 148.572 84.7847 147.9L85.8067 148.642C85.0927 149.678 84.1547 150.154 82.8807 150.154ZM80.6547 145.842H84.8407C84.6867 144.722 83.9307 143.966 82.7827 143.966C81.7047 143.966 80.8787 144.68 80.6547 145.842ZM89.5946 150.084C88.9646 150.084 88.7266 149.664 88.5446 148.992L86.8786 142.986H88.2086L89.6226 148.544L90.9806 143.672C91.1066 143.238 91.3726 142.916 91.8626 142.916C92.3526 142.916 92.6326 143.252 92.7446 143.686L94.0886 148.6L95.5166 142.986H96.8186L95.1246 148.992C94.9426 149.664 94.7046 150.084 94.0746 150.084C93.4726 150.084 93.2066 149.706 93.0246 148.992L91.8486 144.708L90.6306 148.978C90.4346 149.678 90.2106 150.084 89.5946 150.084ZM100.082 150.154C98.6683 150.154 97.6183 149.384 97.4783 147.97H98.8083C98.8923 148.684 99.4103 149.076 100.124 149.076C100.796 149.076 101.272 148.712 101.272 148.166C101.272 147.494 100.768 147.256 99.5783 146.934C98.3883 146.612 97.6743 145.954 97.6743 144.82C97.6743 143.658 98.6683 142.832 100.04 142.832C101.37 142.832 102.364 143.518 102.476 144.876H101.16C101.062 144.218 100.614 143.91 100.012 143.91C99.3823 143.91 98.9483 144.26 98.9483 144.75C98.9483 145.296 99.3263 145.548 100.516 145.87C101.678 146.178 102.546 146.864 102.546 148.068C102.546 149.314 101.566 150.154 100.082 150.154ZM104.849 150.154C104.275 150.154 103.827 149.706 103.827 149.132C103.827 148.572 104.275 148.11 104.849 148.11C105.423 148.11 105.871 148.572 105.871 149.132C105.871 149.706 105.423 150.154 104.849 150.154ZM112.812 150.07C112.168 150.07 111.79 149.678 111.622 148.978L109.452 140.2H110.852L112.84 148.726L114.66 141.124C114.8 140.55 115.15 140.13 115.78 140.13C116.438 140.13 116.774 140.564 116.9 141.124L118.748 148.684L120.736 140.2H122.066L119.91 148.978C119.756 149.678 119.364 150.07 118.734 150.07C118.09 150.07 117.712 149.664 117.558 148.978L115.766 141.642L113.988 148.978C113.82 149.664 113.456 150.07 112.812 150.07ZM123.468 150V140.2H124.77V143.7C125.162 143.182 125.876 142.832 126.688 142.832C128.27 142.832 129.488 143.966 129.488 145.73V150H128.172V145.926C128.172 144.778 127.472 144.036 126.492 144.036C125.498 144.036 124.77 144.778 124.77 145.926V150H123.468ZM134.588 150.154C132.544 150.154 131.004 148.628 131.004 146.5C131.004 144.372 132.488 142.832 134.476 142.832C136.534 142.832 137.892 144.372 137.892 146.444C137.892 146.598 137.892 146.71 137.878 146.878H132.334C132.488 148.124 133.384 148.95 134.616 148.95C135.47 148.95 136.058 148.572 136.492 147.9L137.514 148.642C136.8 149.678 135.862 150.154 134.588 150.154ZM132.362 145.842H136.548C136.394 144.722 135.638 143.966 134.49 143.966C133.412 143.966 132.586 144.68 132.362 145.842ZM139.45 150V142.986H140.71V143.756C141.102 143.21 141.83 142.832 142.67 142.832C144.252 142.832 145.47 143.966 145.47 145.73V150H144.154V145.926C144.154 144.778 143.454 144.036 142.474 144.036C141.48 144.036 140.752 144.778 140.752 145.926V150H139.45ZM153.139 150.056C151.851 150.056 151.025 149.51 151.025 147.97V144.134H150.031V142.986H151.025V141.432L152.341 141.04V142.986H153.671V144.134H152.341V147.97C152.341 148.656 152.621 148.908 153.335 148.908H153.685V150.056H153.139ZM161.149 142.986V150H159.889V149.23C159.497 149.776 158.769 150.154 157.929 150.154C156.347 150.154 155.129 149.02 155.129 147.256V142.986H156.445V147.06C156.445 148.208 157.145 148.95 158.125 148.95C159.119 148.95 159.847 148.208 159.847 147.06V142.986H161.149ZM163.253 150V142.986H164.513V144.008C164.919 143.322 165.647 142.888 166.711 142.888H166.753V144.19H166.683C165.563 144.19 164.555 144.694 164.555 146.668V150H163.253ZM168.079 150V142.986H169.339V143.756C169.731 143.21 170.459 142.832 171.299 142.832C172.881 142.832 174.099 143.966 174.099 145.73V150H172.783V145.926C172.783 144.778 172.083 144.036 171.103 144.036C170.109 144.036 169.381 144.778 169.381 145.926V150H168.079ZM179.199 150.154C177.155 150.154 175.615 148.628 175.615 146.5C175.615 144.372 177.099 142.832 179.087 142.832C181.145 142.832 182.503 144.372 182.503 146.444C182.503 146.598 182.503 146.71 182.489 146.878H176.945C177.099 148.124 177.995 148.95 179.227 148.95C180.081 148.95 180.669 148.572 181.103 147.9L182.125 148.642C181.411 149.678 180.473 150.154 179.199 150.154ZM176.973 145.842H181.159C181.005 144.722 180.249 143.966 179.101 143.966C178.023 143.966 177.197 144.68 176.973 145.842ZM187.072 150.154C185.21 150.154 183.572 148.614 183.572 146.5C183.572 144.372 185.21 142.832 187.072 142.832C188.038 142.832 188.836 143.224 189.34 143.798V140.2H190.656V150H189.396V149.118C188.892 149.72 188.08 150.154 187.072 150.154ZM187.184 148.95C188.5 148.95 189.438 147.928 189.438 146.5C189.438 145.072 188.5 144.036 187.184 144.036C185.868 144.036 184.93 145.072 184.93 146.5C184.93 147.928 185.868 148.95 187.184 148.95ZM199.065 150.154C197.021 150.154 195.453 148.628 195.453 146.5C195.453 144.372 197.021 142.832 199.065 142.832C201.109 142.832 202.677 144.372 202.677 146.5C202.677 148.628 201.109 150.154 199.065 150.154ZM199.065 148.95C200.381 148.95 201.319 147.928 201.319 146.5C201.319 145.072 200.381 144.036 199.065 144.036C197.749 144.036 196.811 145.072 196.811 146.5C196.811 147.928 197.749 148.95 199.065 148.95ZM204.282 150V142.986H205.542V143.756C205.934 143.21 206.662 142.832 207.502 142.832C209.084 142.832 210.302 143.966 210.302 145.73V150H208.986V145.926C208.986 144.778 208.286 144.036 207.306 144.036C206.312 144.036 205.584 144.778 205.584 145.926V150H204.282ZM211.888 151.778L212.714 150.098C212.28 149.986 211.958 149.608 211.958 149.146C211.958 148.586 212.392 148.152 212.952 148.152C213.526 148.152 213.96 148.586 213.96 149.16C213.96 149.37 213.876 149.594 213.764 149.818L212.742 151.778H211.888ZM221.706 150.154C219.648 150.154 218.066 148.614 218.066 146.486C218.066 144.358 219.662 142.832 221.706 142.832C223.19 142.832 224.366 143.672 224.926 144.932L223.736 145.464C223.414 144.582 222.7 144.036 221.734 144.036C220.432 144.036 219.466 145.044 219.466 146.472C219.466 147.9 220.432 148.95 221.748 148.95C222.826 148.95 223.484 148.306 223.792 147.424L224.968 147.872C224.464 149.286 223.274 150.154 221.706 150.154ZM232.394 142.986V150H231.134V149.23C230.742 149.776 230.014 150.154 229.174 150.154C227.592 150.154 226.374 149.02 226.374 147.256V142.986H227.69V147.06C227.69 148.208 228.39 148.95 229.37 148.95C230.364 148.95 231.092 148.208 231.092 147.06V142.986H232.394ZM236.541 150.154C235.127 150.154 234.077 149.384 233.937 147.97H235.267C235.351 148.684 235.869 149.076 236.583 149.076C237.255 149.076 237.731 148.712 237.731 148.166C237.731 147.494 237.227 147.256 236.037 146.934C234.847 146.612 234.133 145.954 234.133 144.82C234.133 143.658 235.127 142.832 236.499 142.832C237.829 142.832 238.823 143.518 238.935 144.876H237.619C237.521 144.218 237.073 143.91 236.471 143.91C235.841 143.91 235.407 144.26 235.407 144.75C235.407 145.296 235.785 145.548 236.975 145.87C238.137 146.178 239.005 146.864 239.005 148.068C239.005 149.314 238.025 150.154 236.541 150.154ZM243.073 150.056C241.785 150.056 240.959 149.51 240.959 147.97V144.134H239.965V142.986H240.959V141.432L242.275 141.04V142.986H243.605V144.134H242.275V147.97C242.275 148.656 242.555 148.908 243.269 148.908H243.619V150.056H243.073ZM248.16 150.154C246.116 150.154 244.548 148.628 244.548 146.5C244.548 144.372 246.116 142.832 248.16 142.832C250.204 142.832 251.772 144.372 251.772 146.5C251.772 148.628 250.204 150.154 248.16 150.154ZM248.16 148.95C249.476 148.95 250.414 147.928 250.414 146.5C250.414 145.072 249.476 144.036 248.16 144.036C246.844 144.036 245.906 145.072 245.906 146.5C245.906 147.928 246.844 148.95 248.16 148.95ZM253.378 150V142.986H254.638V143.756C255.03 143.182 255.674 142.832 256.444 142.832C257.284 142.832 258.012 143.224 258.404 143.924C258.852 143.252 259.58 142.832 260.49 142.832C262.002 142.832 263.01 143.882 263.01 145.408V150H261.694V145.674C261.694 144.694 261.176 144.036 260.294 144.036C259.398 144.036 258.838 144.694 258.838 145.688V150H257.536V145.688C257.536 144.694 256.99 144.036 256.108 144.036C255.212 144.036 254.68 144.694 254.68 145.688V150H253.378ZM268.121 150.154C266.077 150.154 264.537 148.628 264.537 146.5C264.537 144.372 266.021 142.832 268.009 142.832C270.067 142.832 271.425 144.372 271.425 146.444C271.425 146.598 271.425 146.71 271.411 146.878H265.867C266.021 148.124 266.917 148.95 268.149 148.95C269.003 148.95 269.591 148.572 270.025 147.9L271.047 148.642C270.333 149.678 269.395 150.154 268.121 150.154ZM265.895 145.842H270.081C269.927 144.722 269.171 143.966 268.023 143.966C266.945 143.966 266.119 144.68 265.895 145.842ZM272.984 150V142.986H274.244V144.008C274.65 143.322 275.378 142.888 276.442 142.888H276.484V144.19H276.414C275.294 144.19 274.286 144.694 274.286 146.668V150H272.984ZM279.744 150.154C278.33 150.154 277.28 149.384 277.14 147.97H278.47C278.554 148.684 279.072 149.076 279.786 149.076C280.458 149.076 280.934 148.712 280.934 148.166C280.934 147.494 280.43 147.256 279.24 146.934C278.05 146.612 277.336 145.954 277.336 144.82C277.336 143.658 278.33 142.832 279.702 142.832C281.032 142.832 282.026 143.518 282.138 144.876H280.822C280.724 144.218 280.276 143.91 279.674 143.91C279.044 143.91 278.61 144.26 278.61 144.75C278.61 145.296 278.988 145.548 280.178 145.87C281.34 146.178 282.208 146.864 282.208 148.068C282.208 149.314 281.228 150.154 279.744 150.154ZM288.808 150.084C288.178 150.084 287.94 149.664 287.758 148.992L286.092 142.986H287.422L288.836 148.544L290.194 143.672C290.32 143.238 290.586 142.916 291.076 142.916C291.566 142.916 291.846 143.252 291.958 143.686L293.302 148.6L294.73 142.986H296.032L294.338 148.992C294.156 149.664 293.918 150.084 293.288 150.084C292.686 150.084 292.42 149.706 292.238 148.992L291.062 144.708L289.844 148.978C289.648 149.678 289.424 150.084 288.808 150.084ZM297.388 150V142.986H298.69V150H297.388ZM298.032 141.894C297.542 141.894 297.136 141.488 297.136 140.998C297.136 140.494 297.542 140.088 298.032 140.088C298.536 140.088 298.942 140.494 298.942 140.998C298.942 141.488 298.536 141.894 298.032 141.894ZM300.792 150V140.2H302.094V150H300.792ZM304.196 150V140.2H305.498V150H304.196ZM312.844 150.154C311.43 150.154 310.38 149.384 310.24 147.97H311.57C311.654 148.684 312.172 149.076 312.886 149.076C313.558 149.076 314.034 148.712 314.034 148.166C314.034 147.494 313.53 147.256 312.34 146.934C311.15 146.612 310.436 145.954 310.436 144.82C310.436 143.658 311.43 142.832 312.802 142.832C314.132 142.832 315.126 143.518 315.238 144.876H313.922C313.824 144.218 313.376 143.91 312.774 143.91C312.144 143.91 311.71 144.26 311.71 144.75C311.71 145.296 312.088 145.548 313.278 145.87C314.44 146.178 315.308 146.864 315.308 148.068C315.308 149.314 314.328 150.154 312.844 150.154ZM320.047 150.154C318.003 150.154 316.463 148.628 316.463 146.5C316.463 144.372 317.947 142.832 319.935 142.832C321.993 142.832 323.351 144.372 323.351 146.444C323.351 146.598 323.351 146.71 323.337 146.878H317.793C317.947 148.124 318.843 148.95 320.075 148.95C320.929 148.95 321.517 148.572 321.951 147.9L322.973 148.642C322.259 149.678 321.321 150.154 320.047 150.154ZM317.821 145.842H322.007C321.853 144.722 321.097 143.966 319.949 143.966C318.871 143.966 318.045 144.68 317.821 145.842ZM328.017 150.154C325.973 150.154 324.433 148.628 324.433 146.5C324.433 144.372 325.917 142.832 327.905 142.832C329.963 142.832 331.321 144.372 331.321 146.444C331.321 146.598 331.321 146.71 331.307 146.878H325.763C325.917 148.124 326.813 148.95 328.045 148.95C328.899 148.95 329.487 148.572 329.921 147.9L330.943 148.642C330.229 149.678 329.291 150.154 328.017 150.154ZM325.791 145.842H329.977C329.823 144.722 329.067 143.966 327.919 143.966C326.841 143.966 326.015 144.68 325.791 145.842ZM338.557 150.056C337.269 150.056 336.443 149.51 336.443 147.97V144.134H335.449V142.986H336.443V141.432L337.759 141.04V142.986H339.089V144.134H337.759V147.97C337.759 148.656 338.039 148.908 338.753 148.908H339.103V150.056H338.557ZM340.659 150V140.2H341.961V143.7C342.353 143.182 343.067 142.832 343.879 142.832C345.461 142.832 346.679 143.966 346.679 145.73V150H345.363V145.926C345.363 144.778 344.663 144.036 343.683 144.036C342.689 144.036 341.961 144.778 341.961 145.926V150H340.659ZM351.779 150.154C349.735 150.154 348.195 148.628 348.195 146.5C348.195 144.372 349.679 142.832 351.667 142.832C353.725 142.832 355.083 144.372 355.083 146.444C355.083 146.598 355.083 146.71 355.069 146.878H349.525C349.679 148.124 350.575 148.95 351.807 148.95C352.661 148.95 353.249 148.572 353.683 147.9L354.705 148.642C353.991 149.678 353.053 150.154 351.779 150.154ZM349.553 145.842H353.739C353.585 144.722 352.829 143.966 351.681 143.966C350.603 143.966 349.777 144.68 349.553 145.842ZM361.885 150.154C360.471 150.154 359.421 149.384 359.281 147.97H360.611C360.695 148.684 361.213 149.076 361.927 149.076C362.599 149.076 363.075 148.712 363.075 148.166C363.075 147.494 362.571 147.256 361.381 146.934C360.191 146.612 359.477 145.954 359.477 144.82C359.477 143.658 360.471 142.832 361.843 142.832C363.173 142.832 364.167 143.518 364.279 144.876H362.963C362.865 144.218 362.417 143.91 361.815 143.91C361.185 143.91 360.751 144.26 360.751 144.75C360.751 145.296 361.129 145.548 362.319 145.87C363.481 146.178 364.349 146.864 364.349 148.068C364.349 149.314 363.369 150.154 361.885 150.154ZM371.888 142.986V150H370.628V149.23C370.236 149.776 369.508 150.154 368.668 150.154C367.086 150.154 365.868 149.02 365.868 147.256V142.986H367.184V147.06C367.184 148.208 367.884 148.95 368.864 148.95C369.858 148.95 370.586 148.208 370.586 147.06V142.986H371.888ZM373.991 150V142.986H375.251V143.756C375.643 143.182 376.287 142.832 377.057 142.832C377.897 142.832 378.625 143.224 379.017 143.924C379.465 143.252 380.193 142.832 381.103 142.832C382.615 142.832 383.623 143.882 383.623 145.408V150H382.307V145.674C382.307 144.694 381.789 144.036 380.907 144.036C380.011 144.036 379.451 144.694 379.451 145.688V150H378.149V145.688C378.149 144.694 377.603 144.036 376.721 144.036C375.825 144.036 375.293 144.694 375.293 145.688V150H373.991ZM385.626 150V142.986H386.886V143.756C387.278 143.182 387.922 142.832 388.692 142.832C389.532 142.832 390.26 143.224 390.652 143.924C391.1 143.252 391.828 142.832 392.738 142.832C394.25 142.832 395.258 143.882 395.258 145.408V150H393.942V145.674C393.942 144.694 393.424 144.036 392.542 144.036C391.646 144.036 391.086 144.694 391.086 145.688V150H389.784V145.688C389.784 144.694 389.238 144.036 388.356 144.036C387.46 144.036 386.928 144.694 386.928 145.688V150H385.626ZM400.271 150.154C398.409 150.154 396.771 148.614 396.771 146.5C396.771 144.372 398.409 142.832 400.271 142.832C401.279 142.832 402.091 143.252 402.595 143.854V142.986H403.855V150H402.595V149.118C402.091 149.72 401.279 150.154 400.271 150.154ZM400.383 148.95C401.699 148.95 402.637 147.928 402.637 146.5C402.637 145.072 401.699 144.036 400.383 144.036C399.067 144.036 398.129 145.072 398.129 146.5C398.129 147.928 399.067 148.95 400.383 148.95ZM405.943 150V142.986H407.203V144.008C407.609 143.322 408.337 142.888 409.401 142.888H409.443V144.19H409.373C408.253 144.19 407.245 144.694 407.245 146.668V150H405.943ZM411.161 152.59L412.533 149.328L409.943 142.986H411.385L413.219 147.858L415.123 142.986H416.467L412.547 152.59H411.161ZM60.172 170.154C58.128 170.154 56.56 168.628 56.56 166.5C56.56 164.372 58.128 162.832 60.172 162.832C62.216 162.832 63.784 164.372 63.784 166.5C63.784 168.628 62.216 170.154 60.172 170.154ZM60.172 168.95C61.488 168.95 62.426 167.928 62.426 166.5C62.426 165.072 61.488 164.036 60.172 164.036C58.856 164.036 57.918 165.072 57.918 166.5C57.918 167.928 58.856 168.95 60.172 168.95ZM65.3898 170V162.986H66.6498V163.756C67.0418 163.21 67.7698 162.832 68.6098 162.832C70.1918 162.832 71.4098 163.966 71.4098 165.73V170H70.0938V165.926C70.0938 164.778 69.3938 164.036 68.4138 164.036C67.4198 164.036 66.6918 164.778 66.6918 165.926V170H65.3898ZM76.6783 172.59L78.0503 169.328L75.4603 162.986H76.9023L78.7363 167.858L80.6403 162.986H81.9843L78.0643 172.59H76.6783ZM86.1212 170.154C84.0772 170.154 82.5092 168.628 82.5092 166.5C82.5092 164.372 84.0772 162.832 86.1212 162.832C88.1652 162.832 89.7332 164.372 89.7332 166.5C89.7332 168.628 88.1652 170.154 86.1212 170.154ZM86.1212 168.95C87.4372 168.95 88.3752 167.928 88.3752 166.5C88.3752 165.072 87.4372 164.036 86.1212 164.036C84.8052 164.036 83.8672 165.072 83.8672 166.5C83.8672 167.928 84.8052 168.95 86.1212 168.95ZM97.2471 162.986V170H95.9871V169.23C95.5951 169.776 94.8671 170.154 94.0271 170.154C92.4451 170.154 91.2271 169.02 91.2271 167.256V162.986H92.5431V167.06C92.5431 168.208 93.2431 168.95 94.2231 168.95C95.2171 168.95 95.9451 168.208 95.9451 167.06V162.986H97.2471ZM99.3508 170V162.986H100.611V164.008C101.017 163.322 101.745 162.888 102.809 162.888H102.851V164.19H102.781C101.661 164.19 100.653 164.694 100.653 166.668V170H99.3508ZM107.034 170V162.986H108.294V164.008C108.7 163.322 109.428 162.888 110.492 162.888H110.534V164.19H110.464C109.344 164.19 108.336 164.694 108.336 166.668V170H107.034ZM114.597 170.154C112.735 170.154 111.097 168.614 111.097 166.5C111.097 164.372 112.735 162.832 114.597 162.832C115.605 162.832 116.417 163.252 116.921 163.854V162.986H118.181V170H116.921V169.118C116.417 169.72 115.605 170.154 114.597 170.154ZM114.709 168.95C116.025 168.95 116.963 167.928 116.963 166.5C116.963 165.072 116.025 164.036 114.709 164.036C113.393 164.036 112.455 165.072 112.455 166.5C112.455 167.928 113.393 168.95 114.709 168.95ZM122.747 170.056C121.459 170.056 120.633 169.51 120.633 167.97V164.134H119.639V162.986H120.633V161.432L121.949 161.04V162.986H123.279V164.134H121.949V167.97C121.949 168.656 122.229 168.908 122.943 168.908H123.293V170.056H122.747ZM124.849 170V162.986H126.151V170H124.849ZM125.493 161.894C125.003 161.894 124.597 161.488 124.597 160.998C124.597 160.494 125.003 160.088 125.493 160.088C125.997 160.088 126.403 160.494 126.403 160.998C126.403 161.488 125.997 161.894 125.493 161.894ZM128.253 170V162.986H129.513V163.756C129.905 163.21 130.633 162.832 131.473 162.832C133.055 162.832 134.273 163.966 134.273 165.73V170H132.957V165.926C132.957 164.778 132.257 164.036 131.277 164.036C130.283 164.036 129.555 164.778 129.555 165.926V170H128.253ZM139.443 172.744C137.413 172.744 136.321 171.568 136.041 170.126H137.497C137.777 171.12 138.505 171.582 139.555 171.582C140.675 171.582 141.501 170.91 141.501 169.72V168.418C141.445 168.502 141.375 168.572 141.305 168.642C140.731 169.244 139.961 169.552 139.051 169.552C137.175 169.552 135.789 168.082 135.789 166.192C135.789 164.302 137.217 162.832 139.093 162.832C140.115 162.832 140.983 163.266 141.487 163.91C141.529 163.966 141.571 164.008 141.599 164.064V162.986H142.817V169.566C142.817 171.54 141.473 172.744 139.443 172.744ZM139.317 168.39C140.619 168.39 141.515 167.424 141.515 166.206C141.515 164.988 140.619 164.022 139.317 164.022C138.029 164.022 137.119 164.96 137.119 166.192C137.119 167.438 138.029 168.39 139.317 168.39ZM146.949 170.154C145.535 170.154 144.485 169.384 144.345 167.97H145.675C145.759 168.684 146.277 169.076 146.991 169.076C147.663 169.076 148.139 168.712 148.139 168.166C148.139 167.494 147.635 167.256 146.445 166.934C145.255 166.612 144.541 165.954 144.541 164.82C144.541 163.658 145.535 162.832 146.907 162.832C148.237 162.832 149.231 163.518 149.343 164.876H148.027C147.929 164.218 147.481 163.91 146.879 163.91C146.249 163.91 145.815 164.26 145.815 164.75C145.815 165.296 146.193 165.548 147.383 165.87C148.545 166.178 149.413 166.864 149.413 168.068C149.413 169.314 148.433 170.154 146.949 170.154ZM154.243 172.59V162.986H155.489V163.868C155.993 163.266 156.805 162.832 157.827 162.832C159.675 162.832 161.313 164.372 161.313 166.486C161.313 168.614 159.675 170.154 157.827 170.154C156.875 170.154 156.077 169.762 155.559 169.202V172.59H154.243ZM157.701 168.95C159.031 168.95 159.969 167.914 159.969 166.486C159.969 165.058 159.031 164.036 157.701 164.036C156.385 164.036 155.447 165.058 155.447 166.486C155.447 167.914 156.385 168.95 157.701 168.95ZM165.935 170.154C164.073 170.154 162.435 168.614 162.435 166.5C162.435 164.372 164.073 162.832 165.935 162.832C166.943 162.832 167.755 163.252 168.259 163.854V162.986H169.519V170H168.259V169.118C167.755 169.72 166.943 170.154 165.935 170.154ZM166.047 168.95C167.363 168.95 168.301 167.928 168.301 166.5C168.301 165.072 167.363 164.036 166.047 164.036C164.731 164.036 163.793 165.072 163.793 166.5C163.793 167.928 164.731 168.95 166.047 168.95ZM174.785 172.744C172.755 172.744 171.663 171.568 171.383 170.126H172.839C173.119 171.12 173.847 171.582 174.897 171.582C176.017 171.582 176.843 170.91 176.843 169.72V168.418C176.787 168.502 176.717 168.572 176.647 168.642C176.073 169.244 175.303 169.552 174.393 169.552C172.517 169.552 171.131 168.082 171.131 166.192C171.131 164.302 172.559 162.832 174.435 162.832C175.457 162.832 176.325 163.266 176.829 163.91C176.871 163.966 176.913 164.008 176.941 164.064V162.986H178.159V169.566C178.159 171.54 176.815 172.744 174.785 172.744ZM174.659 168.39C175.961 168.39 176.857 167.424 176.857 166.206C176.857 164.988 175.961 164.022 174.659 164.022C173.371 164.022 172.461 164.96 172.461 166.192C172.461 167.438 173.371 168.39 174.659 168.39ZM183.355 170.154C181.311 170.154 179.771 168.628 179.771 166.5C179.771 164.372 181.255 162.832 183.243 162.832C185.301 162.832 186.659 164.372 186.659 166.444C186.659 166.598 186.659 166.71 186.645 166.878H181.101C181.255 168.124 182.151 168.95 183.383 168.95C184.237 168.95 184.825 168.572 185.259 167.9L186.281 168.642C185.567 169.678 184.629 170.154 183.355 170.154ZM181.129 165.842H185.315C185.161 164.722 184.405 163.966 183.257 163.966C182.179 163.966 181.353 164.68 181.129 165.842ZM188.699 170.154C188.125 170.154 187.677 169.706 187.677 169.132C187.677 168.572 188.125 168.11 188.699 168.11C189.273 168.11 189.721 168.572 189.721 169.132C189.721 169.706 189.273 170.154 188.699 170.154Z" fill="#5D616B"/>
</g>
<g filter="url(#filter1_ddddd_3_3973)">
<g clip-path="url(#clip0_3_3973)">
<path d="M44 252C44 245.373 49.3726 240 56 240H584C590.627 240 596 245.373 596 252V480C596 486.627 590.627 492 584 492H56C49.3726 492 44 486.627 44 480V252Z" fill="white"/>
<rect width="552" height="68" transform="translate(44 240)" fill="white"/>
<path d="M81.56 293.14C80.04 293.14 79.26 292.22 78.88 290.38L76.42 279H79.5L81.66 289.7L83.48 281.08C83.74 279.82 84.44 278.86 85.82 278.86C87.22 278.86 87.96 279.84 88.2 281.08L90.04 289.76L92.22 279H95.14L92.7 290.38C92.32 292.22 91.54 293.14 90.02 293.14C88.46 293.14 87.74 292.16 87.4 290.38L85.8 282.58L84.18 290.38C83.84 292.16 83.12 293.14 81.56 293.14ZM96.5941 293V279H99.5741V283.7C100.154 283.12 100.994 282.76 102.034 282.76C104.194 282.76 105.934 284.3 105.934 286.86V293H102.934V287.44C102.934 286.28 102.314 285.54 101.274 285.54C100.234 285.54 99.5741 286.28 99.5741 287.44V293H96.5941ZM108.704 296.7L110.324 292.44L106.844 282.98H109.964L111.904 289.16L113.904 282.98H116.884L111.784 296.7H108.704ZM126.346 293.22C123.646 293.22 121.366 291.04 121.366 288C121.366 284.96 123.646 282.76 126.346 282.76C127.466 282.76 128.526 283.2 129.166 283.9V282.98H131.926V293H129.166V292.1C128.566 292.76 127.526 293.22 126.346 293.22ZM126.706 290.48C128.046 290.48 129.026 289.44 129.026 288C129.026 286.52 128.046 285.5 126.706 285.5C125.366 285.5 124.386 286.52 124.386 288C124.386 289.48 125.366 290.48 126.706 290.48ZM134.289 293V282.98H137.129V284.12C137.749 283.32 138.649 282.84 140.009 282.84H140.109V285.72H139.929C138.809 285.72 137.209 285.98 137.209 288.88V293H134.289ZM146.119 293.22C143.079 293.22 140.799 291 140.799 288C140.799 285 142.999 282.76 145.959 282.76C148.959 282.76 151.019 284.98 151.019 287.96C151.019 288.3 150.999 288.56 150.979 288.8H143.859C144.139 289.9 144.979 290.52 146.139 290.52C147.019 290.52 147.719 290.16 148.219 289.48L150.379 291.16C149.319 292.6 147.839 293.22 146.119 293.22ZM143.859 286.92H148.059C147.819 285.9 147.099 285.26 145.999 285.26C144.939 285.26 144.159 285.88 143.859 286.92ZM157.337 296.7L158.957 292.44L155.477 282.98H158.597L160.537 289.16L162.537 282.98H165.517L160.417 296.7H157.337ZM171.197 293.22C168.197 293.22 165.877 291.02 165.877 288C165.877 284.98 168.197 282.76 171.197 282.76C174.237 282.76 176.557 284.96 176.557 288C176.557 291.04 174.237 293.22 171.197 293.22ZM171.197 290.48C172.537 290.48 173.537 289.44 173.537 288C173.537 286.54 172.537 285.48 171.197 285.48C169.877 285.48 168.897 286.52 168.897 288C168.897 289.44 169.877 290.48 171.197 290.48ZM187.552 282.98V293H184.712V292.12C184.152 292.76 183.252 293.22 182.112 293.22C179.952 293.22 178.212 291.68 178.212 289.12V282.98H181.212V288.54C181.212 289.7 181.832 290.44 182.872 290.44C183.912 290.44 184.572 289.7 184.572 288.54V282.98H187.552ZM197.415 293.22C195.215 293.22 193.715 292 193.535 289.84H196.335C196.375 290.46 196.775 290.92 197.475 290.92C198.055 290.92 198.375 290.6 198.375 290.18C198.375 289.66 197.935 289.4 196.435 289.04C194.875 288.68 193.615 287.7 193.615 285.9C193.615 284.06 195.155 282.76 197.335 282.76C199.395 282.76 200.895 283.86 201.055 286.02H198.335C198.255 285.38 197.895 285.04 197.315 285.04C196.735 285.04 196.455 285.38 196.455 285.74C196.455 286.24 196.795 286.48 198.395 286.88C199.995 287.28 201.195 288.34 201.195 290C201.195 291.98 199.675 293.22 197.415 293.22ZM206.085 293.12C204.705 293.12 204.125 292.14 203.785 290.66L201.925 282.98H204.805L206.265 290.18L207.485 284.56C207.685 283.62 208.265 282.88 209.345 282.88C210.405 282.88 211.045 283.6 211.245 284.58L212.445 290.22L213.905 282.98H216.685L214.825 290.66C214.465 292.14 213.885 293.12 212.485 293.12C211.185 293.12 210.505 292.34 210.145 290.66L209.265 286.72L208.405 290.64C208.105 292.2 207.465 293.12 206.085 293.12ZM218.176 293V282.98H221.156V293H218.176ZM219.656 282.1C218.716 282.1 217.936 281.32 217.936 280.38C217.936 279.46 218.716 278.68 219.656 278.68C220.596 278.68 221.356 279.46 221.356 280.38C221.356 281.32 220.596 282.1 219.656 282.1ZM227.768 293.08C225.608 293.08 224.108 292.14 224.108 289.4V285.58H222.948V282.98H224.108V280.96L227.028 280.1V282.98H228.568V285.58H227.028V289.4C227.028 290.18 227.388 290.48 228.188 290.48H228.688V293.08H227.768ZM235.103 293.22C232.163 293.22 229.823 291 229.823 287.98C229.823 284.96 232.183 282.76 235.143 282.76C237.383 282.76 239.163 284.04 239.903 286L237.323 287.08C237.023 286.08 236.223 285.48 235.203 285.48C233.883 285.48 232.903 286.52 232.903 288C232.903 289.42 233.883 290.48 235.203 290.48C236.343 290.48 237.063 289.82 237.343 288.86L239.983 289.66C239.363 291.8 237.523 293.22 235.103 293.22ZM241.575 293V279H244.555V283.7C245.135 283.12 245.975 282.76 247.015 282.76C249.175 282.76 250.915 284.3 250.915 286.86V293H247.915V287.44C247.915 286.28 247.295 285.54 246.255 285.54C245.215 285.54 244.555 286.28 244.555 287.44V293H241.575ZM253.157 293V282.98H256.137V293H253.157ZM254.637 282.1C253.697 282.1 252.917 281.32 252.917 280.38C252.917 279.46 253.697 278.68 254.637 278.68C255.577 278.68 256.337 279.46 256.337 280.38C256.337 281.32 255.577 282.1 254.637 282.1ZM258.489 293V282.98H261.329V283.86C261.889 283.22 262.789 282.76 263.929 282.76C266.089 282.76 267.829 284.3 267.829 286.86V293H264.829V287.44C264.829 286.28 264.209 285.54 263.169 285.54C262.129 285.54 261.469 286.28 261.469 287.44V293H258.489ZM274.931 296.92C272.071 296.92 270.271 295.28 269.871 293.04H273.291C273.551 294.08 274.191 294.5 275.171 294.5C276.171 294.5 276.951 293.88 276.951 292.74V291.3C276.851 291.38 276.771 291.46 276.671 291.54C275.971 292.12 275.071 292.36 274.131 292.36C271.411 292.36 269.511 290.22 269.511 287.56C269.511 284.88 271.551 282.76 274.231 282.76C275.331 282.76 276.251 283.14 276.851 283.7C276.991 283.82 277.111 283.92 277.211 284.04V282.98H279.911V292.36C279.911 295.3 277.871 296.92 274.931 296.92ZM274.791 289.84C276.131 289.84 277.011 288.88 277.011 287.62C277.011 286.36 276.131 285.38 274.791 285.38C273.431 285.38 272.531 286.36 272.531 287.6C272.531 288.88 273.451 289.84 274.791 289.84ZM290.698 293.08C288.538 293.08 287.038 292.14 287.038 289.4V285.58H285.878V282.98H287.038V280.96L289.958 280.1V282.98H291.498V285.58H289.958V289.4C289.958 290.18 290.318 290.48 291.118 290.48H291.618V293.08H290.698ZM293.489 293V279H296.469V283.7C297.049 283.12 297.889 282.76 298.929 282.76C301.089 282.76 302.829 284.3 302.829 286.86V293H299.829V287.44C299.829 286.28 299.209 285.54 298.169 285.54C297.129 285.54 296.469 286.28 296.469 287.44V293H293.489ZM309.811 293.22C306.771 293.22 304.491 291 304.491 288C304.491 285 306.691 282.76 309.651 282.76C312.651 282.76 314.711 284.98 314.711 287.96C314.711 288.3 314.691 288.56 314.671 288.8H307.551C307.831 289.9 308.671 290.52 309.831 290.52C310.711 290.52 311.411 290.16 311.911 289.48L314.071 291.16C313.011 292.6 311.531 293.22 309.811 293.22ZM307.551 286.92H311.751C311.511 285.9 310.791 285.26 309.691 285.26C308.631 285.26 307.851 285.88 307.551 286.92ZM323.938 293.22C321.738 293.22 320.238 292 320.058 289.84H322.858C322.898 290.46 323.298 290.92 323.998 290.92C324.578 290.92 324.898 290.6 324.898 290.18C324.898 289.66 324.458 289.4 322.958 289.04C321.398 288.68 320.138 287.7 320.138 285.9C320.138 284.06 321.678 282.76 323.858 282.76C325.918 282.76 327.418 283.86 327.578 286.02H324.858C324.778 285.38 324.418 285.04 323.838 285.04C323.258 285.04 322.978 285.38 322.978 285.74C322.978 286.24 323.318 286.48 324.918 286.88C326.518 287.28 327.718 288.34 327.718 290C327.718 291.98 326.198 293.22 323.938 293.22ZM338.724 282.98V293H335.884V292.12C335.324 292.76 334.424 293.22 333.284 293.22C331.124 293.22 329.384 291.68 329.384 289.12V282.98H332.384V288.54C332.384 289.7 333.004 290.44 334.044 290.44C335.084 290.44 335.744 289.7 335.744 288.54V282.98H338.724ZM341.086 293V282.98H343.926V283.88C344.486 283.2 345.426 282.76 346.466 282.76C347.486 282.76 348.446 283.16 349.086 283.94C349.706 283.22 350.626 282.76 351.806 282.76C354.046 282.76 355.586 284.4 355.586 286.74V293H352.666V287.18C352.666 286.18 352.146 285.54 351.246 285.54C350.326 285.54 349.786 286.18 349.786 287.2V293H346.866V287.2C346.866 286.18 346.346 285.54 345.446 285.54C344.526 285.54 343.986 286.18 343.986 287.2V293H341.086ZM357.825 293V282.98H360.665V283.88C361.225 283.2 362.165 282.76 363.205 282.76C364.225 282.76 365.185 283.16 365.825 283.94C366.445 283.22 367.365 282.76 368.545 282.76C370.785 282.76 372.325 284.4 372.325 286.74V293H369.405V287.18C369.405 286.18 368.885 285.54 367.985 285.54C367.065 285.54 366.525 286.18 366.525 287.2V293H363.605V287.2C363.605 286.18 363.085 285.54 362.185 285.54C361.265 285.54 360.725 286.18 360.725 287.2V293H357.825ZM378.963 293.22C376.263 293.22 373.983 291.04 373.983 288C373.983 284.96 376.263 282.76 378.963 282.76C380.083 282.76 381.143 283.2 381.783 283.9V282.98H384.543V293H381.783V292.1C381.183 292.76 380.143 293.22 378.963 293.22ZM379.323 290.48C380.663 290.48 381.643 289.44 381.643 288C381.643 286.52 380.663 285.5 379.323 285.5C377.983 285.5 377.003 286.52 377.003 288C377.003 289.48 377.983 290.48 379.323 290.48ZM386.907 293V282.98H389.747V284.12C390.367 283.32 391.267 282.84 392.627 282.84H392.727V285.72H392.547C391.427 285.72 389.827 285.98 389.827 288.88V293H386.907ZM395.169 296.7L396.789 292.44L393.309 282.98H396.429L398.369 289.16L400.369 282.98H403.349L398.249 296.7H395.169ZM413.15 293.22C410.15 293.22 407.83 291.02 407.83 288C407.83 284.98 410.15 282.76 413.15 282.76C416.19 282.76 418.51 284.96 418.51 288C418.51 291.04 416.19 293.22 413.15 293.22ZM413.15 290.48C414.49 290.48 415.49 289.44 415.49 288C415.49 286.54 414.49 285.48 413.15 285.48C411.83 285.48 410.85 286.52 410.85 288C410.85 289.44 411.83 290.48 413.15 290.48ZM420.789 282.18C420.789 279.56 422.469 278.8 424.649 278.8H425.869L425.189 281.46H424.729C424.069 281.46 423.769 281.72 423.769 282.38V282.98H425.329V285.58H423.769V293H420.789V285.58H419.629V282.98H420.789V282.18ZM427.684 282.18C427.684 279.56 429.364 278.8 431.544 278.8H432.764L432.084 281.46H431.624C430.964 281.46 430.664 281.72 430.664 282.38V282.98H432.224V285.58H430.664V293H427.684V285.58H426.524V282.98H427.684V282.18ZM436.874 286.92C436.874 285.76 437.334 285.16 438.234 284.74C439.254 284.3 439.794 283.86 439.794 282.92C439.794 282.06 439.134 281.44 438.194 281.44C437.174 281.44 436.454 282.1 436.414 283.34H433.314C433.414 280.46 435.274 278.78 438.114 278.78C441.094 278.78 442.834 280.52 442.834 283.06C442.834 285.42 441.054 286.5 439.274 287.14V288.3H436.874V286.92ZM438.074 293.22C436.974 293.22 436.114 292.34 436.114 291.26C436.114 290.18 436.974 289.3 438.074 289.3C439.174 289.3 440.034 290.18 440.034 291.26C440.034 292.34 439.174 293.22 438.074 293.22Z" fill="#1B1B21"/>
<path d="M582.59 252L576 258.59L569.41 252L568 253.41L574.59 260L568 266.59L569.41 268L576 261.41L582.59 268L584 266.59L577.41 260L584 253.41L582.59 252Z" fill="#5D616B"/>
<g clip-path="url(#clip1_3_3973)">
<path d="M82 316.5H558C561.038 316.5 563.5 318.962 563.5 322V386C563.5 389.038 561.038 391.5 558 391.5H82C78.9624 391.5 76.5 389.038 76.5 386V322C76.5 318.962 78.9624 316.5 82 316.5Z" fill="white"/>
<path d="M82 316.5H558C561.038 316.5 563.5 318.962 563.5 322V386C563.5 389.038 561.038 391.5 558 391.5H82C78.9624 391.5 76.5 389.038 76.5 386V322C76.5 318.962 78.9624 316.5 82 316.5Z" stroke="#7E838F"/>
<path d="M87.408 339V329.224H84.272V327.8H92.112V329.224H88.976V339H87.408ZM95.7364 339.176C93.4004 339.176 91.6404 337.432 91.6404 335C91.6404 332.568 93.3364 330.808 95.6084 330.808C97.9604 330.808 99.5124 332.568 99.5124 334.936C99.5124 335.112 99.5124 335.24 99.4964 335.432H93.1604C93.3364 336.856 94.3604 337.8 95.7684 337.8C96.7444 337.8 97.4164 337.368 97.9124 336.6L99.0804 337.448C98.2644 338.632 97.1924 339.176 95.7364 339.176ZM93.1924 334.248H97.9764C97.8004 332.968 96.9364 332.104 95.6244 332.104C94.3924 332.104 93.4484 332.92 93.1924 334.248ZM101.294 339V327.8H102.782V339H101.294ZM105.184 339V327.8H106.672V339H105.184ZM119.483 330.984V339H118.043V338.12C117.595 338.744 116.763 339.176 115.803 339.176C113.995 339.176 112.603 337.88 112.603 335.864V330.984H114.107V335.64C114.107 336.952 114.907 337.8 116.027 337.8C117.163 337.8 117.995 336.952 117.995 335.64V330.984H119.483ZM124.224 339.176C122.608 339.176 121.408 338.296 121.248 336.68H122.768C122.864 337.496 123.456 337.944 124.272 337.944C125.04 337.944 125.584 337.528 125.584 336.904C125.584 336.136 125.008 335.864 123.648 335.496C122.288 335.128 121.472 334.376 121.472 333.08C121.472 331.752 122.608 330.808 124.176 330.808C125.696 330.808 126.832 331.592 126.96 333.144H125.456C125.344 332.392 124.832 332.04 124.144 332.04C123.424 332.04 122.928 332.44 122.928 333C122.928 333.624 123.36 333.912 124.72 334.28C126.048 334.632 127.04 335.416 127.04 336.792C127.04 338.216 125.92 339.176 124.224 339.176ZM134.581 339.096C133.861 339.096 133.589 338.616 133.381 337.848L131.477 330.984H132.997L134.613 337.336L136.165 331.768C136.309 331.272 136.613 330.904 137.173 330.904C137.733 330.904 138.053 331.288 138.181 331.784L139.717 337.4L141.349 330.984H142.837L140.901 337.848C140.693 338.616 140.421 339.096 139.701 339.096C139.013 339.096 138.709 338.664 138.501 337.848L137.157 332.952L135.765 337.832C135.541 338.632 135.285 339.096 134.581 339.096ZM144.388 339V327.8H145.876V331.8C146.324 331.208 147.14 330.808 148.068 330.808C149.876 330.808 151.267 332.104 151.267 334.12V339H149.764V334.344C149.764 333.032 148.964 332.184 147.844 332.184C146.708 332.184 145.876 333.032 145.876 334.344V339H144.388ZM156.984 339.176C154.856 339.176 152.984 337.416 152.984 335C152.984 332.568 154.856 330.808 156.984 330.808C158.136 330.808 159.064 331.288 159.64 331.976V330.984H161.08V339H159.64V337.992C159.064 338.68 158.136 339.176 156.984 339.176ZM157.112 337.8C158.616 337.8 159.688 336.632 159.688 335C159.688 333.368 158.616 332.184 157.112 332.184C155.608 332.184 154.536 333.368 154.536 335C154.536 336.632 155.608 337.8 157.112 337.8ZM166.298 339.064C164.826 339.064 163.882 338.44 163.882 336.68V332.296H162.746V330.984H163.882V329.208L165.386 328.76V330.984H166.906V332.296H165.386V336.68C165.386 337.464 165.706 337.752 166.522 337.752H166.922V339.064H166.298ZM172.356 339V330.984H173.844V339H172.356ZM173.092 329.736C172.532 329.736 172.068 329.272 172.068 328.712C172.068 328.136 172.532 327.672 173.092 327.672C173.668 327.672 174.132 328.136 174.132 328.712C174.132 329.272 173.668 329.736 173.092 329.736ZM178.583 339.176C176.967 339.176 175.767 338.296 175.607 336.68H177.127C177.223 337.496 177.815 337.944 178.631 337.944C179.399 337.944 179.943 337.528 179.943 336.904C179.943 336.136 179.367 335.864 178.007 335.496C176.647 335.128 175.831 334.376 175.831 333.08C175.831 331.752 176.967 330.808 178.535 330.808C180.055 330.808 181.191 331.592 181.319 333.144H179.815C179.703 332.392 179.191 332.04 178.503 332.04C177.783 332.04 177.287 332.44 177.287 333C177.287 333.624 177.719 333.912 179.079 334.28C180.407 334.632 181.399 335.416 181.399 336.792C181.399 338.216 180.279 339.176 178.583 339.176ZM188.941 339.096C188.221 339.096 187.949 338.616 187.741 337.848L185.837 330.984H187.357L188.973 337.336L190.525 331.768C190.669 331.272 190.973 330.904 191.533 330.904C192.093 330.904 192.413 331.288 192.541 331.784L194.077 337.4L195.709 330.984H197.197L195.261 337.848C195.053 338.616 194.781 339.096 194.061 339.096C193.373 339.096 193.069 338.664 192.861 337.848L191.517 332.952L190.125 337.832C189.901 338.632 189.645 339.096 188.941 339.096ZM198.747 339V330.984H200.187V332.152C200.651 331.368 201.483 330.872 202.699 330.872H202.747V332.36H202.667C201.387 332.36 200.235 332.936 200.235 335.192V339H198.747ZM207.518 339.176C205.182 339.176 203.39 337.432 203.39 335C203.39 332.568 205.182 330.808 207.518 330.808C209.854 330.808 211.646 332.568 211.646 335C211.646 337.432 209.854 339.176 207.518 339.176ZM207.518 337.8C209.022 337.8 210.094 336.632 210.094 335C210.094 333.368 209.022 332.184 207.518 332.184C206.014 332.184 204.942 333.368 204.942 335C204.942 336.632 206.014 337.8 207.518 337.8ZM213.481 339V330.984H214.921V331.864C215.369 331.24 216.201 330.808 217.161 330.808C218.969 330.808 220.361 332.104 220.361 334.12V339H218.857V334.344C218.857 333.032 218.057 332.184 216.937 332.184C215.801 332.184 214.969 333.032 214.969 334.344V339H213.481ZM226.27 342.136C223.95 342.136 222.702 340.792 222.382 339.144H224.046C224.366 340.28 225.198 340.808 226.398 340.808C227.678 340.808 228.622 340.04 228.622 338.68V337.192C228.558 337.288 228.478 337.368 228.398 337.448C227.742 338.136 226.862 338.488 225.822 338.488C223.678 338.488 222.094 336.808 222.094 334.648C222.094 332.488 223.726 330.808 225.87 330.808C227.038 330.808 228.03 331.304 228.606 332.04C228.654 332.104 228.702 332.152 228.734 332.216V330.984H230.126V338.504C230.126 340.76 228.59 342.136 226.27 342.136ZM226.126 337.16C227.614 337.16 228.638 336.056 228.638 334.664C228.638 333.272 227.614 332.168 226.126 332.168C224.654 332.168 223.614 333.24 223.614 334.648C223.614 336.072 224.654 337.16 226.126 337.16ZM233.281 339.176C232.625 339.176 232.113 338.664 232.113 338.008C232.113 337.368 232.625 336.84 233.281 336.84C233.937 336.84 234.449 337.368 234.449 338.008C234.449 338.664 233.937 339.176 233.281 339.176ZM241.907 339V334.488L238.099 327.8H239.859L242.707 332.968L245.555 327.8H247.251L243.491 334.52V339H241.907ZM250.581 339.176C248.245 339.176 246.453 337.432 246.453 335C246.453 332.568 248.245 330.808 250.581 330.808C252.917 330.808 254.709 332.568 254.709 335C254.709 337.432 252.917 339.176 250.581 339.176ZM250.581 337.8C252.085 337.8 253.157 336.632 253.157 335C253.157 333.368 252.085 332.184 250.581 332.184C249.077 332.184 248.005 333.368 248.005 335C248.005 336.632 249.077 337.8 250.581 337.8ZM263.296 330.984V339H261.856V338.12C261.408 338.744 260.576 339.176 259.616 339.176C257.808 339.176 256.416 337.88 256.416 335.864V330.984H257.92V335.64C257.92 336.952 258.72 337.8 259.84 337.8C260.976 337.8 261.808 336.952 261.808 335.64V330.984H263.296ZM265.7 339V330.984H267.14V332.152C267.604 331.368 268.436 330.872 269.652 330.872H269.7V332.36H269.62C268.34 332.36 267.188 332.936 267.188 335.192V339H265.7ZM274.865 330.008C274.865 328.28 275.921 327.704 277.457 327.704H278.177L277.793 329.064H277.489C276.689 329.064 276.353 329.336 276.353 330.12V330.984H277.793V332.296H276.353V339H274.865V332.296H273.857V330.984H274.865V330.008ZM282.721 339.176C280.385 339.176 278.625 337.432 278.625 335C278.625 332.568 280.321 330.808 282.593 330.808C284.945 330.808 286.497 332.568 286.497 334.936C286.497 335.112 286.497 335.24 286.481 335.432H280.145C280.321 336.856 281.345 337.8 282.753 337.8C283.729 337.8 284.401 337.368 284.897 336.6L286.065 337.448C285.249 338.632 284.177 339.176 282.721 339.176ZM280.177 334.248H284.961C284.785 332.968 283.921 332.104 282.609 332.104C281.377 332.104 280.433 332.92 280.177 334.248ZM291.83 339.176C289.494 339.176 287.734 337.432 287.734 335C287.734 332.568 289.43 330.808 291.702 330.808C294.054 330.808 295.606 332.568 295.606 334.936C295.606 335.112 295.606 335.24 295.59 335.432H289.254C289.43 336.856 290.454 337.8 291.862 337.8C292.838 337.8 293.51 337.368 294.006 336.6L295.174 337.448C294.358 338.632 293.286 339.176 291.83 339.176ZM289.286 334.248H294.07C293.894 332.968 293.03 332.104 291.718 332.104C290.486 332.104 289.542 332.92 289.286 334.248ZM300.828 339.176C298.7 339.176 296.828 337.416 296.828 335C296.828 332.568 298.7 330.808 300.828 330.808C301.932 330.808 302.844 331.256 303.42 331.912V327.8H304.924V339H303.484V337.992C302.908 338.68 301.98 339.176 300.828 339.176ZM300.956 337.8C302.46 337.8 303.532 336.632 303.532 335C303.532 333.368 302.46 332.184 300.956 332.184C299.452 332.184 298.38 333.368 298.38 335C298.38 336.632 299.452 337.8 300.956 337.8ZM311.405 339.176C310.237 339.176 309.309 338.68 308.733 337.992V339H307.309V327.8H308.813V331.896C309.405 331.256 310.317 330.808 311.405 330.808C313.517 330.808 315.389 332.568 315.389 335C315.389 337.416 313.517 339.176 311.405 339.176ZM311.261 337.8C312.781 337.8 313.853 336.632 313.853 335C313.853 333.368 312.781 332.184 311.261 332.184C309.757 332.184 308.685 333.368 308.685 335C308.685 336.632 309.757 337.8 311.261 337.8ZM320.671 339.176C318.543 339.176 316.671 337.416 316.671 335C316.671 332.568 318.543 330.808 320.671 330.808C321.823 330.808 322.751 331.288 323.327 331.976V330.984H324.767V339H323.327V337.992C322.751 338.68 321.823 339.176 320.671 339.176ZM320.799 337.8C322.303 337.8 323.375 336.632 323.375 335C323.375 333.368 322.303 332.184 320.799 332.184C319.295 332.184 318.223 333.368 318.223 335C318.223 336.632 319.295 337.8 320.799 337.8ZM330.753 339.176C328.401 339.176 326.593 337.416 326.593 334.984C326.593 332.552 328.417 330.808 330.753 330.808C332.449 330.808 333.793 331.768 334.433 333.208L333.073 333.816C332.705 332.808 331.889 332.184 330.785 332.184C329.297 332.184 328.193 333.336 328.193 334.968C328.193 336.6 329.297 337.8 330.801 337.8C332.033 337.8 332.785 337.064 333.137 336.056L334.481 336.568C333.905 338.184 332.545 339.176 330.753 339.176ZM341.144 339L337.704 335.048V339H336.216V327.8H337.704V334.488L341.064 330.984H342.952L339.272 334.744L343.096 339H341.144ZM347.684 339V327.8H349.172V331.8C349.62 331.208 350.436 330.808 351.364 330.808C353.172 330.808 354.564 332.104 354.564 334.12V339H353.06V334.344C353.06 333.032 352.26 332.184 351.14 332.184C350.004 332.184 349.172 333.032 349.172 334.344V339H347.684ZM360.393 339.176C358.057 339.176 356.297 337.432 356.297 335C356.297 332.568 357.993 330.808 360.265 330.808C362.617 330.808 364.169 332.568 364.169 334.936C364.169 335.112 364.169 335.24 364.153 335.432H357.817C357.993 336.856 359.017 337.8 360.425 337.8C361.401 337.8 362.073 337.368 362.569 336.6L363.737 337.448C362.921 338.632 361.849 339.176 360.393 339.176ZM357.849 334.248H362.633C362.457 332.968 361.593 332.104 360.281 332.104C359.049 332.104 358.105 332.92 357.849 334.248ZM365.95 339V327.8H367.438V339H365.95ZM369.841 341.96V330.984H371.265V331.992C371.841 331.304 372.769 330.808 373.937 330.808C376.049 330.808 377.921 332.568 377.921 334.984C377.921 337.416 376.049 339.176 373.937 339.176C372.849 339.176 371.937 338.728 371.345 338.088V341.96H369.841ZM373.793 337.8C375.313 337.8 376.385 336.616 376.385 334.984C376.385 333.352 375.313 332.184 373.793 332.184C372.289 332.184 371.217 333.352 371.217 334.984C371.217 336.616 372.289 337.8 373.793 337.8ZM382.099 339.176C380.483 339.176 379.283 338.296 379.123 336.68H380.643C380.739 337.496 381.331 337.944 382.147 337.944C382.915 337.944 383.459 337.528 383.459 336.904C383.459 336.136 382.883 335.864 381.523 335.496C380.163 335.128 379.347 334.376 379.347 333.08C379.347 331.752 380.483 330.808 382.051 330.808C383.571 330.808 384.707 331.592 384.835 333.144H383.331C383.219 332.392 382.707 332.04 382.019 332.04C381.299 332.04 380.803 332.44 380.803 333C380.803 333.624 381.235 333.912 382.595 334.28C383.923 334.632 384.915 335.416 384.915 336.792C384.915 338.216 383.795 339.176 382.099 339.176ZM390.434 339V330.984H391.874V331.864C392.322 331.208 393.058 330.808 393.938 330.808C394.898 330.808 395.73 331.256 396.178 332.056C396.69 331.288 397.522 330.808 398.562 330.808C400.29 330.808 401.442 332.008 401.442 333.752V339H399.938V334.056C399.938 332.936 399.346 332.184 398.338 332.184C397.314 332.184 396.674 332.936 396.674 334.072V339H395.186V334.072C395.186 332.936 394.562 332.184 393.554 332.184C392.53 332.184 391.922 332.936 391.922 334.072V339H390.434ZM407.171 339.176C405.043 339.176 403.171 337.416 403.171 335C403.171 332.568 405.043 330.808 407.171 330.808C408.323 330.808 409.251 331.288 409.827 331.976V330.984H411.267V339H409.827V337.992C409.251 338.68 408.323 339.176 407.171 339.176ZM407.299 337.8C408.803 337.8 409.875 336.632 409.875 335C409.875 333.368 408.803 332.184 407.299 332.184C405.795 332.184 404.723 333.368 404.723 335C404.723 336.632 405.795 337.8 407.299 337.8ZM418.581 339L415.141 335.048V339H413.653V327.8H415.141V334.488L418.501 330.984H420.389L416.709 334.744L420.533 339H418.581ZM424.799 339.176C422.463 339.176 420.703 337.432 420.703 335C420.703 332.568 422.399 330.808 424.671 330.808C427.023 330.808 428.575 332.568 428.575 334.936C428.575 335.112 428.575 335.24 428.559 335.432H422.223C422.399 336.856 423.423 337.8 424.831 337.8C425.807 337.8 426.479 337.368 426.975 336.6L428.143 337.448C427.327 338.632 426.255 339.176 424.799 339.176ZM422.255 334.248H427.039C426.863 332.968 425.999 332.104 424.687 332.104C423.455 332.104 422.511 332.92 422.255 334.248ZM436.845 339.064C435.373 339.064 434.429 338.44 434.429 336.68V332.296H433.293V330.984H434.429V329.208L435.933 328.76V330.984H437.453V332.296H435.933V336.68C435.933 337.464 436.253 337.752 437.069 337.752H437.469V339.064H436.845ZM439.247 339V327.8H440.735V331.8C441.183 331.208 441.999 330.808 442.927 330.808C444.735 330.808 446.127 332.104 446.127 334.12V339H444.623V334.344C444.623 333.032 443.823 332.184 442.703 332.184C441.567 332.184 440.735 333.032 440.735 334.344V339H439.247ZM451.955 339.176C449.619 339.176 447.859 337.432 447.859 335C447.859 332.568 449.555 330.808 451.827 330.808C454.179 330.808 455.731 332.568 455.731 334.936C455.731 335.112 455.731 335.24 455.715 335.432H449.379C449.555 336.856 450.579 337.8 451.987 337.8C452.963 337.8 453.635 337.368 454.131 336.6L455.299 337.448C454.483 338.632 453.411 339.176 451.955 339.176ZM449.411 334.248H454.195C454.019 332.968 453.155 332.104 451.843 332.104C450.611 332.104 449.667 332.92 449.411 334.248ZM463.097 329.224C463.401 328.28 463.753 327.72 464.617 327.72C465.465 327.72 465.833 328.28 466.137 329.224L469.241 339H467.593L466.777 336.344H462.345L461.513 339H459.929L463.097 329.224ZM462.777 334.936H466.345L464.569 329.144L462.777 334.936ZM471.034 339V327.8H472.618V339H471.034ZM481.255 339.176C479.639 339.176 478.439 338.296 478.279 336.68H479.799C479.895 337.496 480.487 337.944 481.303 337.944C482.071 337.944 482.615 337.528 482.615 336.904C482.615 336.136 482.039 335.864 480.679 335.496C479.319 335.128 478.503 334.376 478.503 333.08C478.503 331.752 479.639 330.808 481.207 330.808C482.727 330.808 483.863 331.592 483.991 333.144H482.487C482.375 332.392 481.863 332.04 481.175 332.04C480.455 332.04 479.959 332.44 479.959 333C479.959 333.624 480.391 333.912 481.751 334.28C483.079 334.632 484.071 335.416 484.071 336.792C484.071 338.216 482.951 339.176 481.255 339.176ZM492.686 330.984V339H491.246V338.12C490.798 338.744 489.966 339.176 489.006 339.176C487.198 339.176 485.806 337.88 485.806 335.864V330.984H487.31V335.64C487.31 336.952 488.11 337.8 489.23 337.8C490.366 337.8 491.198 336.952 491.198 335.64V330.984H492.686ZM495.091 339V330.984H496.531V331.864C496.979 331.208 497.715 330.808 498.595 330.808C499.555 330.808 500.387 331.256 500.835 332.056C501.347 331.288 502.179 330.808 503.219 330.808C504.947 330.808 506.099 332.008 506.099 333.752V339H504.595V334.056C504.595 332.936 504.003 332.184 502.995 332.184C501.971 332.184 501.331 332.936 501.331 334.072V339H499.843V334.072C499.843 332.936 499.219 332.184 498.211 332.184C497.187 332.184 496.579 332.936 496.579 334.072V339H495.091ZM508.388 339V330.984H509.828V331.864C510.276 331.208 511.012 330.808 511.891 330.808C512.852 330.808 513.684 331.256 514.132 332.056C514.644 331.288 515.476 330.808 516.516 330.808C518.244 330.808 519.396 332.008 519.396 333.752V339H517.892V334.056C517.892 332.936 517.3 332.184 516.292 332.184C515.267 332.184 514.628 332.936 514.628 334.072V339H513.14V334.072C513.14 332.936 512.516 332.184 511.508 332.184C510.484 332.184 509.876 332.936 509.876 334.072V339H508.388ZM525.124 339.176C522.996 339.176 521.124 337.416 521.124 335C521.124 332.568 522.996 330.808 525.124 330.808C526.276 330.808 527.204 331.288 527.78 331.976V330.984H529.22V339H527.78V337.992C527.204 338.68 526.276 339.176 525.124 339.176ZM525.252 337.8C526.756 337.8 527.828 336.632 527.828 335C527.828 333.368 526.756 332.184 525.252 332.184C523.748 332.184 522.676 333.368 522.676 335C522.676 336.632 523.748 337.8 525.252 337.8ZM531.606 339V330.984H533.046V332.152C533.51 331.368 534.342 330.872 535.558 330.872H535.606V332.36H535.526C534.246 332.36 533.094 332.936 533.094 335.192V339H531.606ZM537.57 341.96L539.138 338.232L536.178 330.984H537.826L539.922 336.552L542.098 330.984H543.634L539.154 341.96H537.57ZM89.296 363.176C88.128 363.176 87.2 362.68 86.624 361.992V363H85.2V351.8H86.704V355.896C87.296 355.256 88.208 354.808 89.296 354.808C91.408 354.808 93.28 356.568 93.28 359C93.28 361.416 91.408 363.176 89.296 363.176ZM89.152 361.8C90.672 361.8 91.744 360.632 91.744 359C91.744 357.368 90.672 356.184 89.152 356.184C87.648 356.184 86.576 357.368 86.576 359C86.576 360.632 87.648 361.8 89.152 361.8ZM98.6739 363.176C96.3379 363.176 94.5779 361.432 94.5779 359C94.5779 356.568 96.2739 354.808 98.5459 354.808C100.898 354.808 102.45 356.568 102.45 358.936C102.45 359.112 102.45 359.24 102.434 359.432H96.0979C96.2739 360.856 97.2979 361.8 98.7059 361.8C99.6819 361.8 100.354 361.368 100.85 360.6L102.018 361.448C101.202 362.632 100.13 363.176 98.6739 363.176ZM96.1299 358.248H100.914C100.738 356.968 99.8739 356.104 98.5619 356.104C97.3299 356.104 96.3859 356.92 96.1299 358.248ZM106.938 363.064C105.466 363.064 104.522 362.44 104.522 360.68V356.296H103.386V354.984H104.522V353.208L106.026 352.76V354.984H107.546V356.296H106.026V360.68C106.026 361.464 106.346 361.752 107.162 361.752H107.562V363.064H106.938ZM112.173 363.064C110.701 363.064 109.757 362.44 109.757 360.68V356.296H108.621V354.984H109.757V353.208L111.261 352.76V354.984H112.781V356.296H111.261V360.68C111.261 361.464 111.581 361.752 112.397 361.752H112.797V363.064H112.173ZM117.971 363.176C115.635 363.176 113.875 361.432 113.875 359C113.875 356.568 115.571 354.808 117.843 354.808C120.195 354.808 121.747 356.568 121.747 358.936C121.747 359.112 121.747 359.24 121.731 359.432H115.395C115.571 360.856 116.595 361.8 118.003 361.8C118.979 361.8 119.651 361.368 120.147 360.6L121.315 361.448C120.499 362.632 119.427 363.176 117.971 363.176ZM115.427 358.248H120.211C120.035 356.968 119.171 356.104 117.859 356.104C116.627 356.104 115.683 356.92 115.427 358.248ZM123.528 363V354.984H124.968V356.152C125.432 355.368 126.264 354.872 127.48 354.872H127.528V356.36H127.448C126.168 356.36 125.016 356.936 125.016 359.192V363H123.528ZM128.718 363.176C128.062 363.176 127.55 362.664 127.55 362.008C127.55 361.368 128.062 360.84 128.718 360.84C129.374 360.84 129.886 361.368 129.886 362.008C129.886 362.664 129.374 363.176 128.718 363.176Z" fill="#7E838F"/>
<path d="M560.821 380.75L552.735 389L552 388.25L560.087 380L560.821 380.75ZM561 384.811L557.324 388.561L556.589 387.811L560.265 384.061L561 384.811Z" fill="#7E838F"/>
</g>
<path d="M438 424.5H556C560.142 424.5 563.5 427.858 563.5 432V452C563.5 456.142 560.142 459.5 556 459.5H438C433.858 459.5 430.5 456.142 430.5 452V432C430.5 427.858 433.858 424.5 438 424.5Z" fill="#350051"/>
<path d="M438 424.5H556C560.142 424.5 563.5 427.858 563.5 432V452C563.5 456.142 560.142 459.5 556 459.5H438C433.858 459.5 430.5 456.142 430.5 452V432C430.5 427.858 433.858 424.5 438 424.5Z" stroke="#350051"/>
<path d="M446.434 447.154C444.404 447.154 443.074 445.978 442.934 443.976H444.88C444.964 444.984 445.622 445.516 446.462 445.516C447.288 445.516 447.778 445.026 447.778 444.368C447.778 443.528 447.204 443.234 445.734 442.842C444.278 442.436 443.074 441.596 443.074 439.902C443.074 438.208 444.404 437.046 446.322 437.046C448.254 437.046 449.444 438.152 449.612 440.042H447.68C447.624 439.174 447.008 438.684 446.266 438.684C445.524 438.684 444.992 439.118 444.992 439.748C444.992 440.546 445.594 440.784 446.952 441.176C448.478 441.638 449.724 442.618 449.724 444.186C449.724 446.062 448.408 447.154 446.434 447.154ZM457.363 439.986V447H455.599V446.342C455.207 446.804 454.549 447.154 453.737 447.154C452.211 447.154 450.993 446.048 450.993 444.284V439.986H452.841V443.934C452.841 444.858 453.359 445.432 454.171 445.432C454.969 445.432 455.515 444.858 455.515 443.934V439.986H457.363ZM462.951 447.154C462.055 447.154 461.313 446.776 460.865 446.286V447H459.157V437.2H461.005V440.574C461.481 440.112 462.167 439.832 462.951 439.832C464.841 439.832 466.451 441.372 466.451 443.5C466.451 445.628 464.841 447.154 462.951 447.154ZM462.741 445.46C463.805 445.46 464.561 444.662 464.561 443.5C464.561 442.338 463.805 441.526 462.741 441.526C461.691 441.526 460.921 442.338 460.921 443.5C460.921 444.634 461.691 445.46 462.741 445.46ZM467.811 447V439.986H469.575V440.672C469.953 440.154 470.611 439.832 471.367 439.832C472.109 439.832 472.795 440.14 473.229 440.742C473.677 440.182 474.349 439.832 475.203 439.832C476.743 439.832 477.793 440.952 477.793 442.548V447H475.987V442.856C475.987 442.072 475.567 441.554 474.853 441.554C474.139 441.554 473.705 442.072 473.705 442.856V447H471.899V442.856C471.899 442.072 471.465 441.554 470.751 441.554C470.037 441.554 469.617 442.072 469.617 442.856V447H467.811ZM479.5 447V439.986H481.348V447H479.5ZM480.41 439.23C479.808 439.23 479.304 438.726 479.304 438.124C479.304 437.508 479.808 437.018 480.41 437.018C481.026 437.018 481.516 437.508 481.516 438.124C481.516 438.726 481.026 439.23 480.41 439.23ZM485.952 447.056C484.496 447.056 483.53 446.44 483.53 444.634V441.596H482.662V439.986H483.53V438.53L485.336 437.984V439.986H486.498V441.596H485.336V444.634C485.336 445.222 485.616 445.446 486.218 445.446H486.568V447.056H485.952ZM491.364 439.342C491.364 437.606 492.47 437.088 493.94 437.088H494.724L494.29 438.726H493.982C493.45 438.726 493.212 438.922 493.212 439.454V439.986H494.346V441.596H493.212V447H491.364V441.596H490.538V439.986H491.364V439.342ZM498.704 447.154C496.604 447.154 495.022 445.6 495.022 443.5C495.022 441.4 496.548 439.832 498.592 439.832C500.692 439.832 502.092 441.386 502.092 443.458C502.092 443.668 502.092 443.836 502.078 444.004H496.912C497.108 444.914 497.794 445.488 498.732 445.488C499.418 445.488 499.936 445.194 500.314 444.648L501.672 445.698C500.944 446.706 499.936 447.154 498.704 447.154ZM496.926 442.786H500.258C500.104 441.946 499.516 441.4 498.62 441.4C497.766 441.4 497.136 441.918 496.926 442.786ZM506.661 447.154C504.561 447.154 502.979 445.6 502.979 443.5C502.979 441.4 504.505 439.832 506.549 439.832C508.649 439.832 510.049 441.386 510.049 443.458C510.049 443.668 510.049 443.836 510.035 444.004H504.869C505.065 444.914 505.751 445.488 506.689 445.488C507.375 445.488 507.893 445.194 508.271 444.648L509.629 445.698C508.901 446.706 507.893 447.154 506.661 447.154ZM504.883 442.786H508.215C508.061 441.946 507.473 441.4 506.577 441.4C505.723 441.4 505.093 441.918 504.883 442.786ZM514.422 447.154C512.546 447.154 510.936 445.628 510.936 443.5C510.936 441.372 512.546 439.832 514.422 439.832C515.192 439.832 515.892 440.112 516.368 440.56V437.2H518.23V447H516.522V446.286C516.074 446.776 515.318 447.154 514.422 447.154ZM514.632 445.46C515.696 445.46 516.466 444.634 516.466 443.5C516.466 442.338 515.696 441.526 514.632 441.526C513.582 441.526 512.812 442.338 512.812 443.5C512.812 444.662 513.582 445.46 514.632 445.46ZM523.818 447.154C522.922 447.154 522.18 446.776 521.732 446.286V447H520.024V437.2H521.872V440.574C522.348 440.112 523.034 439.832 523.818 439.832C525.708 439.832 527.318 441.372 527.318 443.5C527.318 445.628 525.708 447.154 523.818 447.154ZM523.608 445.46C524.672 445.46 525.428 444.662 525.428 443.5C525.428 442.338 524.672 441.526 523.608 441.526C522.558 441.526 521.788 442.338 521.788 443.5C521.788 444.634 522.558 445.46 523.608 445.46ZM531.73 447.154C529.854 447.154 528.244 445.628 528.244 443.5C528.244 441.372 529.854 439.832 531.73 439.832C532.584 439.832 533.34 440.168 533.816 440.7V439.986H535.552V447H533.816V446.3C533.368 446.79 532.626 447.154 531.73 447.154ZM531.94 445.46C533.004 445.46 533.774 444.634 533.774 443.5C533.774 442.338 533.004 441.526 531.94 441.526C530.89 441.526 530.12 442.338 530.12 443.5C530.12 444.662 530.89 445.46 531.94 445.46ZM540.581 447.154C538.523 447.154 536.899 445.6 536.899 443.486C536.899 441.372 538.537 439.832 540.595 439.832C542.135 439.832 543.367 440.714 543.899 442.044L542.289 442.73C542.037 441.974 541.421 441.512 540.637 441.512C539.601 441.512 538.817 442.338 538.817 443.486C538.817 444.62 539.601 445.46 540.651 445.46C541.519 445.46 542.079 444.928 542.303 444.2L543.955 444.732C543.493 446.202 542.233 447.154 540.581 447.154ZM549.408 447L547.028 443.696V447H545.18V437.2H547.028V442.926L549.366 439.986H551.55L548.862 443.276L551.69 447H549.408Z" fill="white"/>
</g>
</g>
<defs>
<filter id="filter0_d_3_3973" x="43" y="74" width="403" height="114" filterUnits="userSpaceOnUse" color-interpolation-filters="sRGB">
<feFlood flood-opacity="0" result="BackgroundImageFix"/>
<feColorMatrix in="SourceAlpha" type="matrix" values="0 0 0 0 0 0 0 0 0 0 0 0 0 0 0 0 0 0 127 0" result="hardAlpha"/>
<feMorphology radius="1" operator="dilate" in="SourceAlpha" result="effect1_dropShadow_3_3973"/>
<feOffset/>
<feComposite in2="hardAlpha" operator="out"/>
<feColorMatrix type="matrix" values="0 0 0 0 0.835294 0 0 0 0 0.854902 0 0 0 0 0.878431 0 0 0 1 0"/>
<feBlend mode="normal" in2="BackgroundImageFix" result="effect1_dropShadow_3_3973"/>
<feBlend mode="normal" in="SourceGraphic" in2="effect1_dropShadow_3_3973" result="shape"/>
</filter>
<filter id="filter1_ddddd_3_3973" x="4" y="232" width="632" height="332" filterUnits="userSpaceOnUse" color-interpolation-filters="sRGB">
<feFlood flood-opacity="0" result="BackgroundImageFix"/>
<feColorMatrix in="SourceAlpha" type="matrix" values="0 0 0 0 0 0 0 0 0 0 0 0 0 0 0 0 0 0 127 0" result="hardAlpha"/>
<feMorphology radius="8" operator="erode" in="SourceAlpha" result="effect1_dropShadow_3_3973"/>
<feOffset dy="32"/>
<feGaussianBlur stdDeviation="24"/>
<feComposite in2="hardAlpha" operator="out"/>
<feColorMatrix type="matrix" values="0 0 0 0 0 0 0 0 0 0 0 0 0 0 0 0 0 0 0.12 0"/>
<feBlend mode="normal" in2="BackgroundImageFix" result="effect1_dropShadow_3_3973"/>
<feColorMatrix in="SourceAlpha" type="matrix" values="0 0 0 0 0 0 0 0 0 0 0 0 0 0 0 0 0 0 127 0" result="hardAlpha"/>
<feMorphology radius="4" operator="erode" in="SourceAlpha" result="effect2_dropShadow_3_3973"/>
<feOffset dy="16"/>
<feGaussianBlur stdDeviation="12"/>
<feComposite in2="hardAlpha" operator="out"/>
<feColorMatrix type="matrix" values="0 0 0 0 0 0 0 0 0 0 0 0 0 0 0 0 0 0 0.1 0"/>
<feBlend mode="normal" in2="effect1_dropShadow_3_3973" result="effect2_dropShadow_3_3973"/>
<feColorMatrix in="SourceAlpha" type="matrix" values="0 0 0 0 0 0 0 0 0 0 0 0 0 0 0 0 0 0 127 0" result="hardAlpha"/>
<feOffset dy="4"/>
<feGaussianBlur stdDeviation="6"/>
<feComposite in2="hardAlpha" operator="out"/>
<feColorMatrix type="matrix" values="0 0 0 0 0 0 0 0 0 0 0 0 0 0 0 0 0 0 0.08 0"/>
<feBlend mode="normal" in2="effect2_dropShadow_3_3973" result="effect3_dropShadow_3_3973"/>
<feColorMatrix in="SourceAlpha" type="matrix" values="0 0 0 0 0 0 0 0 0 0 0 0 0 0 0 0 0 0 127 0" result="hardAlpha"/>
<feOffset dy="2"/>
<feGaussianBlur stdDeviation="4"/>
<feComposite in2="hardAlpha" operator="out"/>
<feColorMatrix type="matrix" values="0 0 0 0 0 0 0 0 0 0 0 0 0 0 0 0 0 0 0.06 0"/>
<feBlend mode="normal" in2="effect3_dropShadow_3_3973" result="effect4_dropShadow_3_3973"/>
<feColorMatrix in="SourceAlpha" type="matrix" values="0 0 0 0 0 0 0 0 0 0 0 0 0 0 0 0 0 0 127 0" result="hardAlpha"/>
<feOffset/>
<feGaussianBlur stdDeviation="2"/>
<feComposite in2="hardAlpha" operator="out"/>
<feColorMatrix type="matrix" values="0 0 0 0 0 0 0 0 0 0 0 0 0 0 0 0 0 0 0.04 0"/>
<feBlend mode="normal" in2="effect4_dropShadow_3_3973" result="effect5_dropShadow_3_3973"/>
<feBlend mode="normal" in="SourceGraphic" in2="effect5_dropShadow_3_3973" result="shape"/>
</filter>
<clipPath id="clip0_3_3973">
<path d="M44 252C44 245.373 49.3726 240 56 240H584C590.627 240 596 245.373 596 252V480C596 486.627 590.627 492 584 492H56C49.3726 492 44 486.627 44 480V252Z" fill="white"/>
</clipPath>
<clipPath id="clip1_3_3973">
<rect width="488" height="76" fill="white" transform="translate(76 316)"/>
</clipPath>
</defs>
</svg>
