<svg width="1062" height="308" viewBox="0 0 1062 308" fill="none" xmlns="http://www.w3.org/2000/svg">
<g filter="url(#filter0_d)">
<path d="M945 54H91C85.4772 54 81 58.4772 81 64V244C81 249.523 85.4772 254 91 254H945C950.523 254 955 249.523 955 244V64C955 58.4772 950.523 54 945 54Z" fill="white"/>
</g>
<path d="M900 107H120C110.059 107 102 115.059 102 125C102 134.941 110.059 143 120 143H900C909.941 143 918 134.941 918 125C918 115.059 909.941 107 900 107Z" fill="#0578B4"/>
<path d="M885 119L894 112L903 119V130C903 130.53 902.789 131.039 902.414 131.414C902.039 131.789 901.53 132 901 132H887C886.47 132 885.961 131.789 885.586 131.414C885.211 131.039 885 130.53 885 130V119Z" stroke="white" stroke-width="2" stroke-linecap="round" stroke-linejoin="round"/>
<path d="M891 132V122H897V132" stroke="white" stroke-width="2" stroke-linecap="round" stroke-linejoin="round"/>
<path d="M679.771 169H678.138V160.407H675.198V159.006H682.711V160.407H679.771V169ZM685.685 169H684.078V161.439H685.685V169ZM683.982 159.437C683.982 159.149 684.06 158.928 684.215 158.773C684.374 158.618 684.6 158.541 684.892 158.541C685.174 158.541 685.393 158.618 685.548 158.773C685.707 158.928 685.787 159.149 685.787 159.437C685.787 159.71 685.707 159.926 685.548 160.086C685.393 160.241 685.174 160.318 684.892 160.318C684.6 160.318 684.374 160.241 684.215 160.086C684.06 159.926 683.982 159.71 683.982 159.437ZM692.719 169L692.397 167.947H692.343C691.978 168.408 691.611 168.722 691.242 168.891C690.873 169.055 690.399 169.137 689.82 169.137C689.077 169.137 688.496 168.936 688.077 168.535C687.662 168.134 687.455 167.567 687.455 166.833C687.455 166.054 687.744 165.466 688.323 165.069C688.902 164.673 689.784 164.456 690.969 164.42L692.274 164.379V163.976C692.274 163.493 692.16 163.132 691.933 162.896C691.709 162.654 691.361 162.533 690.887 162.533C690.499 162.533 690.128 162.59 689.772 162.704C689.417 162.818 689.075 162.952 688.747 163.107L688.228 161.959C688.638 161.745 689.087 161.583 689.574 161.474C690.062 161.36 690.522 161.303 690.955 161.303C691.917 161.303 692.641 161.512 693.129 161.932C693.621 162.351 693.867 163.009 693.867 163.907V169H692.719ZM690.326 167.906C690.91 167.906 691.377 167.744 691.728 167.421C692.083 167.093 692.261 166.635 692.261 166.047V165.391L691.29 165.432C690.534 165.459 689.982 165.587 689.636 165.814C689.294 166.038 689.123 166.382 689.123 166.847C689.123 167.184 689.223 167.446 689.424 167.633C689.624 167.815 689.925 167.906 690.326 167.906ZM702.761 169H701.147V164.352C701.147 163.768 701.029 163.333 700.792 163.046C700.56 162.759 700.188 162.615 699.678 162.615C698.999 162.615 698.502 162.816 698.188 163.217C697.873 163.618 697.716 164.29 697.716 165.233V169H696.109V161.439H697.367L697.593 162.431H697.675C697.903 162.071 698.226 161.793 698.646 161.597C699.065 161.401 699.53 161.303 700.04 161.303C701.854 161.303 702.761 162.226 702.761 164.071V169ZM704.224 172.363C703.741 172.363 703.34 172.306 703.021 172.192V170.921C703.33 171.003 703.647 171.044 703.971 171.044C704.654 171.044 704.996 170.657 704.996 169.882V161.439H706.603V169.991C706.603 170.771 706.397 171.361 705.987 171.762C705.582 172.163 704.994 172.363 704.224 172.363ZM704.9 159.437C704.9 159.149 704.978 158.928 705.133 158.773C705.292 158.618 705.518 158.541 705.81 158.541C706.092 158.541 706.311 158.618 706.466 158.773C706.625 158.928 706.705 159.149 706.705 159.437C706.705 159.71 706.625 159.926 706.466 160.086C706.311 160.241 706.092 160.318 705.81 160.318C705.518 160.318 705.292 160.241 705.133 160.086C704.978 159.926 704.9 159.71 704.9 159.437ZM710.513 169H708.906V161.439H710.513V169ZM708.811 159.437C708.811 159.149 708.888 158.928 709.043 158.773C709.202 158.618 709.428 158.541 709.72 158.541C710.002 158.541 710.221 158.618 710.376 158.773C710.535 158.928 710.615 159.149 710.615 159.437C710.615 159.71 710.535 159.926 710.376 160.086C710.221 160.241 710.002 160.318 709.72 160.318C709.428 160.318 709.202 160.241 709.043 160.086C708.888 159.926 708.811 159.71 708.811 159.437ZM719.468 169H717.854V164.352C717.854 163.768 717.736 163.333 717.499 163.046C717.267 162.759 716.895 162.615 716.385 162.615C715.706 162.615 715.209 162.816 714.895 163.217C714.58 163.618 714.423 164.29 714.423 165.233V169H712.816V161.439H714.074L714.3 162.431H714.382C714.61 162.071 714.933 161.793 715.353 161.597C715.772 161.401 716.237 161.303 716.747 161.303C718.561 161.303 719.468 162.226 719.468 164.071V169Z" fill="#333333"/>
<path d="M664.797 189L661.406 180.141H661.352C661.415 180.842 661.447 181.676 661.447 182.643V189H660.374V179.006H662.124L665.289 187.25H665.344L668.536 179.006H670.272V189H669.11V182.561C669.11 181.822 669.142 181.02 669.206 180.154H669.151L665.733 189H664.797ZM677.457 189L677.231 187.934H677.177C676.803 188.403 676.429 188.722 676.056 188.891C675.687 189.055 675.224 189.137 674.668 189.137C673.925 189.137 673.342 188.945 672.918 188.562C672.499 188.18 672.289 187.635 672.289 186.929C672.289 185.416 673.499 184.623 675.919 184.55L677.19 184.509V184.044C677.19 183.456 677.063 183.023 676.808 182.745C676.557 182.463 676.154 182.321 675.598 182.321C674.973 182.321 674.267 182.513 673.479 182.896L673.13 182.027C673.499 181.827 673.902 181.67 674.34 181.556C674.782 181.442 675.224 181.385 675.666 181.385C676.559 181.385 677.22 181.583 677.648 181.979C678.081 182.376 678.298 183.012 678.298 183.887V189H677.457ZM674.894 188.2C675.6 188.2 676.154 188.007 676.555 187.619C676.96 187.232 677.163 186.689 677.163 185.992V185.315L676.028 185.363C675.126 185.395 674.474 185.536 674.073 185.787C673.677 186.033 673.479 186.418 673.479 186.942C673.479 187.353 673.602 187.665 673.848 187.879C674.098 188.093 674.447 188.2 674.894 188.2ZM684.061 181.371C684.393 181.371 684.692 181.398 684.956 181.453L684.799 182.506C684.489 182.438 684.215 182.403 683.979 182.403C683.372 182.403 682.853 182.649 682.42 183.142C681.992 183.634 681.777 184.247 681.777 184.98V189H680.643V181.508H681.579L681.709 182.896H681.764C682.042 182.408 682.377 182.032 682.769 181.768C683.16 181.503 683.591 181.371 684.061 181.371ZM690.739 189L694.882 180.052H689.434V179.006H696.085V179.915L691.997 189H690.739ZM699.195 187.373L699.298 187.53C699.179 187.986 699.008 188.515 698.785 189.116C698.562 189.722 698.329 190.285 698.088 190.805H697.233C697.356 190.331 697.491 189.745 697.637 189.048C697.787 188.351 697.892 187.792 697.951 187.373H699.195ZM711.124 189H704.555V188.022L707.187 185.377C707.989 184.566 708.517 183.987 708.772 183.641C709.028 183.294 709.219 182.957 709.347 182.629C709.474 182.301 709.538 181.948 709.538 181.569C709.538 181.036 709.376 180.615 709.053 180.305C708.729 179.99 708.28 179.833 707.706 179.833C707.291 179.833 706.897 179.901 706.523 180.038C706.154 180.175 705.742 180.423 705.286 180.783L704.685 180.011C705.605 179.245 706.608 178.862 707.692 178.862C708.631 178.862 709.367 179.104 709.9 179.587C710.434 180.065 710.7 180.71 710.7 181.521C710.7 182.155 710.522 182.782 710.167 183.401C709.812 184.021 709.146 184.805 708.171 185.753L705.983 187.893V187.947H711.124V189ZM719.19 183.989C719.19 185.716 718.917 187.006 718.37 187.858C717.828 188.711 716.996 189.137 715.875 189.137C714.799 189.137 713.981 188.701 713.421 187.831C712.86 186.956 712.58 185.675 712.58 183.989C712.58 182.248 712.851 180.956 713.394 180.113C713.936 179.27 714.763 178.849 715.875 178.849C716.96 178.849 717.782 179.288 718.343 180.168C718.908 181.048 719.19 182.321 719.19 183.989ZM713.729 183.989C713.729 185.443 713.899 186.503 714.241 187.168C714.583 187.829 715.128 188.159 715.875 188.159C716.632 188.159 717.178 187.824 717.516 187.154C717.857 186.48 718.028 185.425 718.028 183.989C718.028 182.554 717.857 181.503 717.516 180.838C717.178 180.168 716.632 179.833 715.875 179.833C715.128 179.833 714.583 180.163 714.241 180.824C713.899 181.48 713.729 182.535 713.729 183.989ZM724.782 189H723.675V181.877C723.675 181.285 723.693 180.724 723.729 180.195C723.634 180.291 723.527 180.391 723.408 180.496C723.29 180.601 722.747 181.045 721.781 181.829L721.18 181.05L723.825 179.006H724.782V189ZM735.159 183.271C735.159 187.182 733.646 189.137 730.62 189.137C730.091 189.137 729.672 189.091 729.362 189V188.022C729.727 188.141 730.142 188.2 730.606 188.2C731.7 188.2 732.525 187.863 733.081 187.188C733.642 186.509 733.947 185.47 733.997 184.071H733.915C733.664 184.45 733.332 184.739 732.917 184.939C732.502 185.135 732.035 185.233 731.516 185.233C730.632 185.233 729.93 184.969 729.41 184.44C728.891 183.912 728.631 183.174 728.631 182.226C728.631 181.187 728.92 180.366 729.499 179.765C730.082 179.163 730.848 178.862 731.796 178.862C732.475 178.862 733.067 179.038 733.573 179.389C734.084 179.735 734.476 180.243 734.749 180.913C735.022 181.578 735.159 182.365 735.159 183.271ZM731.796 179.833C731.144 179.833 730.641 180.043 730.285 180.462C729.93 180.881 729.752 181.465 729.752 182.212C729.752 182.868 729.916 183.385 730.244 183.764C730.572 184.137 731.071 184.324 731.741 184.324C732.156 184.324 732.536 184.24 732.883 184.071C733.234 183.903 733.509 183.673 733.71 183.381C733.91 183.089 734.011 182.784 734.011 182.465C734.011 181.986 733.917 181.544 733.73 181.139C733.544 180.733 733.282 180.414 732.944 180.182C732.612 179.949 732.229 179.833 731.796 179.833ZM674.798 208H673.69V200.877C673.69 200.285 673.709 199.724 673.745 199.195C673.649 199.291 673.542 199.391 673.424 199.496C673.305 199.601 672.763 200.045 671.797 200.829L671.195 200.05L673.841 198.006H674.798V208ZM685.175 208H678.605V207.022L681.237 204.377C682.039 203.566 682.568 202.987 682.823 202.641C683.078 202.294 683.27 201.957 683.397 201.629C683.525 201.301 683.589 200.948 683.589 200.569C683.589 200.036 683.427 199.615 683.104 199.305C682.78 198.99 682.331 198.833 681.757 198.833C681.342 198.833 680.948 198.901 680.574 199.038C680.205 199.175 679.793 199.423 679.337 199.783L678.735 199.011C679.656 198.245 680.659 197.862 681.743 197.862C682.682 197.862 683.418 198.104 683.951 198.587C684.484 199.065 684.751 199.71 684.751 200.521C684.751 201.155 684.573 201.782 684.218 202.401C683.862 203.021 683.197 203.805 682.222 204.753L680.034 206.893V206.947H685.175V208ZM686.973 207.275C686.973 206.97 687.041 206.74 687.178 206.585C687.319 206.425 687.52 206.346 687.779 206.346C688.044 206.346 688.249 206.425 688.395 206.585C688.545 206.74 688.62 206.97 688.62 207.275C688.62 207.572 688.545 207.799 688.395 207.959C688.244 208.118 688.039 208.198 687.779 208.198C687.547 208.198 687.353 208.128 687.198 207.986C687.048 207.84 686.973 207.604 686.973 207.275ZM686.973 201.239C686.973 200.624 687.242 200.316 687.779 200.316C688.34 200.316 688.62 200.624 688.62 201.239C688.62 201.535 688.545 201.763 688.395 201.923C688.244 202.082 688.039 202.162 687.779 202.162C687.547 202.162 687.353 202.091 687.198 201.95C687.048 201.804 686.973 201.567 686.973 201.239ZM696.974 202.989C696.974 204.716 696.7 206.006 696.153 206.858C695.611 207.711 694.779 208.137 693.658 208.137C692.583 208.137 691.765 207.701 691.204 206.831C690.644 205.956 690.363 204.675 690.363 202.989C690.363 201.248 690.634 199.956 691.177 199.113C691.719 198.27 692.546 197.849 693.658 197.849C694.743 197.849 695.565 198.288 696.126 199.168C696.691 200.048 696.974 201.321 696.974 202.989ZM691.512 202.989C691.512 204.443 691.683 205.503 692.024 206.168C692.366 206.829 692.911 207.159 693.658 207.159C694.415 207.159 694.962 206.824 695.299 206.154C695.641 205.48 695.812 204.425 695.812 202.989C695.812 201.554 695.641 200.503 695.299 199.838C694.962 199.168 694.415 198.833 693.658 198.833C692.911 198.833 692.366 199.163 692.024 199.824C691.683 200.48 691.512 201.535 691.512 202.989ZM704.985 202.989C704.985 204.716 704.712 206.006 704.165 206.858C703.623 207.711 702.791 208.137 701.67 208.137C700.594 208.137 699.776 207.701 699.216 206.831C698.655 205.956 698.375 204.675 698.375 202.989C698.375 201.248 698.646 199.956 699.188 199.113C699.731 198.27 700.558 197.849 701.67 197.849C702.755 197.849 703.577 198.288 704.138 199.168C704.703 200.048 704.985 201.321 704.985 202.989ZM699.523 202.989C699.523 204.443 699.694 205.503 700.036 206.168C700.378 206.829 700.923 207.159 701.67 207.159C702.426 207.159 702.973 206.824 703.311 206.154C703.652 205.48 703.823 204.425 703.823 202.989C703.823 201.554 703.652 200.503 703.311 199.838C702.973 199.168 702.426 198.833 701.67 198.833C700.923 198.833 700.378 199.163 700.036 199.824C699.694 200.48 699.523 201.535 699.523 202.989ZM716.982 208L715.738 204.821H711.732L710.502 208H709.326L713.277 197.965H714.255L718.186 208H716.982ZM715.376 203.775L714.214 200.679C714.063 200.287 713.909 199.806 713.749 199.236C713.649 199.674 713.505 200.155 713.318 200.679L712.143 203.775H715.376ZM723.982 208L720.592 199.141H720.537C720.601 199.842 720.633 200.676 720.633 201.643V208H719.56V198.006H721.31L724.475 206.25H724.529L727.722 198.006H729.458V208H728.296V201.561C728.296 200.822 728.328 200.02 728.392 199.154H728.337L724.919 208H723.982Z" fill="#666666"/>
<path d="M568.771 169H567.138V160.407H564.198V159.006H571.711V160.407H568.771V169ZM574.685 169H573.078V161.439H574.685V169ZM572.982 159.437C572.982 159.149 573.06 158.928 573.215 158.773C573.374 158.618 573.6 158.541 573.892 158.541C574.174 158.541 574.393 158.618 574.548 158.773C574.707 158.928 574.787 159.149 574.787 159.437C574.787 159.71 574.707 159.926 574.548 160.086C574.393 160.241 574.174 160.318 573.892 160.318C573.6 160.318 573.374 160.241 573.215 160.086C573.06 159.926 572.982 159.71 572.982 159.437ZM581.719 169L581.397 167.947H581.343C580.978 168.408 580.611 168.722 580.242 168.891C579.873 169.055 579.399 169.137 578.82 169.137C578.077 169.137 577.496 168.936 577.077 168.535C576.662 168.134 576.455 167.567 576.455 166.833C576.455 166.054 576.744 165.466 577.323 165.069C577.902 164.673 578.784 164.456 579.969 164.42L581.274 164.379V163.976C581.274 163.493 581.16 163.132 580.933 162.896C580.709 162.654 580.361 162.533 579.887 162.533C579.499 162.533 579.128 162.59 578.772 162.704C578.417 162.818 578.075 162.952 577.747 163.107L577.228 161.959C577.638 161.745 578.087 161.583 578.574 161.474C579.062 161.36 579.522 161.303 579.955 161.303C580.917 161.303 581.641 161.512 582.129 161.932C582.621 162.351 582.867 163.009 582.867 163.907V169H581.719ZM579.326 167.906C579.91 167.906 580.377 167.744 580.728 167.421C581.083 167.093 581.261 166.635 581.261 166.047V165.391L580.29 165.432C579.534 165.459 578.982 165.587 578.636 165.814C578.294 166.038 578.123 166.382 578.123 166.847C578.123 167.184 578.223 167.446 578.424 167.633C578.624 167.815 578.925 167.906 579.326 167.906ZM591.761 169H590.147V164.352C590.147 163.768 590.029 163.333 589.792 163.046C589.56 162.759 589.188 162.615 588.678 162.615C587.999 162.615 587.502 162.816 587.188 163.217C586.873 163.618 586.716 164.29 586.716 165.233V169H585.109V161.439H586.367L586.593 162.431H586.675C586.903 162.071 587.226 161.793 587.646 161.597C588.065 161.401 588.53 161.303 589.04 161.303C590.854 161.303 591.761 162.226 591.761 164.071V169ZM593.224 172.363C592.741 172.363 592.34 172.306 592.021 172.192V170.921C592.33 171.003 592.647 171.044 592.971 171.044C593.654 171.044 593.996 170.657 593.996 169.882V161.439H595.603V169.991C595.603 170.771 595.397 171.361 594.987 171.762C594.582 172.163 593.994 172.363 593.224 172.363ZM593.9 159.437C593.9 159.149 593.978 158.928 594.133 158.773C594.292 158.618 594.518 158.541 594.81 158.541C595.092 158.541 595.311 158.618 595.466 158.773C595.625 158.928 595.705 159.149 595.705 159.437C595.705 159.71 595.625 159.926 595.466 160.086C595.311 160.241 595.092 160.318 594.81 160.318C594.518 160.318 594.292 160.241 594.133 160.086C593.978 159.926 593.9 159.71 593.9 159.437ZM599.513 169H597.906V161.439H599.513V169ZM597.811 159.437C597.811 159.149 597.888 158.928 598.043 158.773C598.202 158.618 598.428 158.541 598.72 158.541C599.002 158.541 599.221 158.618 599.376 158.773C599.535 158.928 599.615 159.149 599.615 159.437C599.615 159.71 599.535 159.926 599.376 160.086C599.221 160.241 599.002 160.318 598.72 160.318C598.428 160.318 598.202 160.241 598.043 160.086C597.888 159.926 597.811 159.71 597.811 159.437ZM608.468 169H606.854V164.352C606.854 163.768 606.736 163.333 606.499 163.046C606.267 162.759 605.895 162.615 605.385 162.615C604.706 162.615 604.209 162.816 603.895 163.217C603.58 163.618 603.423 164.29 603.423 165.233V169H601.816V161.439H603.074L603.3 162.431H603.382C603.61 162.071 603.933 161.793 604.353 161.597C604.772 161.401 605.237 161.303 605.747 161.303C607.561 161.303 608.468 162.226 608.468 164.071V169Z" fill="#333333"/>
<path d="M553.797 189L550.406 180.141H550.352C550.415 180.842 550.447 181.676 550.447 182.643V189H549.374V179.006H551.124L554.289 187.25H554.344L557.536 179.006H559.272V189H558.11V182.561C558.11 181.822 558.142 181.02 558.206 180.154H558.151L554.733 189H553.797ZM566.457 189L566.231 187.934H566.177C565.803 188.403 565.429 188.722 565.056 188.891C564.687 189.055 564.224 189.137 563.668 189.137C562.925 189.137 562.342 188.945 561.918 188.562C561.499 188.18 561.289 187.635 561.289 186.929C561.289 185.416 562.499 184.623 564.919 184.55L566.19 184.509V184.044C566.19 183.456 566.063 183.023 565.808 182.745C565.557 182.463 565.154 182.321 564.598 182.321C563.973 182.321 563.267 182.513 562.479 182.896L562.13 182.027C562.499 181.827 562.902 181.67 563.34 181.556C563.782 181.442 564.224 181.385 564.666 181.385C565.559 181.385 566.22 181.583 566.648 181.979C567.081 182.376 567.298 183.012 567.298 183.887V189H566.457ZM563.894 188.2C564.6 188.2 565.154 188.007 565.555 187.619C565.96 187.232 566.163 186.689 566.163 185.992V185.315L565.028 185.363C564.126 185.395 563.474 185.536 563.073 185.787C562.677 186.033 562.479 186.418 562.479 186.942C562.479 187.353 562.602 187.665 562.848 187.879C563.098 188.093 563.447 188.2 563.894 188.2ZM573.061 181.371C573.393 181.371 573.692 181.398 573.956 181.453L573.799 182.506C573.489 182.438 573.215 182.403 572.979 182.403C572.372 182.403 571.853 182.649 571.42 183.142C570.992 183.634 570.777 184.247 570.777 184.98V189H569.643V181.508H570.579L570.709 182.896H570.764C571.042 182.408 571.377 182.032 571.769 181.768C572.16 181.503 572.591 181.371 573.061 181.371ZM579.739 189L583.882 180.052H578.434V179.006H585.085V179.915L580.997 189H579.739ZM588.195 187.373L588.298 187.53C588.179 187.986 588.008 188.515 587.785 189.116C587.562 189.722 587.329 190.285 587.088 190.805H586.233C586.356 190.331 586.491 189.745 586.637 189.048C586.787 188.351 586.892 187.792 586.951 187.373H588.195ZM600.124 189H593.555V188.022L596.187 185.377C596.989 184.566 597.517 183.987 597.772 183.641C598.028 183.294 598.219 182.957 598.347 182.629C598.474 182.301 598.538 181.948 598.538 181.569C598.538 181.036 598.376 180.615 598.053 180.305C597.729 179.99 597.28 179.833 596.706 179.833C596.291 179.833 595.897 179.901 595.523 180.038C595.154 180.175 594.742 180.423 594.286 180.783L593.685 180.011C594.605 179.245 595.608 178.862 596.692 178.862C597.631 178.862 598.367 179.104 598.9 179.587C599.434 180.065 599.7 180.71 599.7 181.521C599.7 182.155 599.522 182.782 599.167 183.401C598.812 184.021 598.146 184.805 597.171 185.753L594.983 187.893V187.947H600.124V189ZM608.19 183.989C608.19 185.716 607.917 187.006 607.37 187.858C606.828 188.711 605.996 189.137 604.875 189.137C603.799 189.137 602.981 188.701 602.421 187.831C601.86 186.956 601.58 185.675 601.58 183.989C601.58 182.248 601.851 180.956 602.394 180.113C602.936 179.27 603.763 178.849 604.875 178.849C605.96 178.849 606.782 179.288 607.343 180.168C607.908 181.048 608.19 182.321 608.19 183.989ZM602.729 183.989C602.729 185.443 602.899 186.503 603.241 187.168C603.583 187.829 604.128 188.159 604.875 188.159C605.632 188.159 606.178 187.824 606.516 187.154C606.857 186.48 607.028 185.425 607.028 183.989C607.028 182.554 606.857 181.503 606.516 180.838C606.178 180.168 605.632 179.833 604.875 179.833C604.128 179.833 603.583 180.163 603.241 180.824C602.899 181.48 602.729 182.535 602.729 183.989ZM613.782 189H612.675V181.877C612.675 181.285 612.693 180.724 612.729 180.195C612.634 180.291 612.527 180.391 612.408 180.496C612.29 180.601 611.747 181.045 610.781 181.829L610.18 181.05L612.825 179.006H613.782V189ZM624.159 183.271C624.159 187.182 622.646 189.137 619.62 189.137C619.091 189.137 618.672 189.091 618.362 189V188.022C618.727 188.141 619.142 188.2 619.606 188.2C620.7 188.2 621.525 187.863 622.081 187.188C622.642 186.509 622.947 185.47 622.997 184.071H622.915C622.664 184.45 622.332 184.739 621.917 184.939C621.502 185.135 621.035 185.233 620.516 185.233C619.632 185.233 618.93 184.969 618.41 184.44C617.891 183.912 617.631 183.174 617.631 182.226C617.631 181.187 617.92 180.366 618.499 179.765C619.082 179.163 619.848 178.862 620.796 178.862C621.475 178.862 622.067 179.038 622.573 179.389C623.084 179.735 623.476 180.243 623.749 180.913C624.022 181.578 624.159 182.365 624.159 183.271ZM620.796 179.833C620.144 179.833 619.641 180.043 619.285 180.462C618.93 180.881 618.752 181.465 618.752 182.212C618.752 182.868 618.916 183.385 619.244 183.764C619.572 184.137 620.071 184.324 620.741 184.324C621.156 184.324 621.536 184.24 621.883 184.071C622.234 183.903 622.509 183.673 622.71 183.381C622.91 183.089 623.011 182.784 623.011 182.465C623.011 181.986 622.917 181.544 622.73 181.139C622.544 180.733 622.282 180.414 621.944 180.182C621.612 179.949 621.229 179.833 620.796 179.833ZM563.798 208H562.69V200.877C562.69 200.285 562.709 199.724 562.745 199.195C562.649 199.291 562.542 199.391 562.424 199.496C562.305 199.601 561.763 200.045 560.797 200.829L560.195 200.05L562.841 198.006H563.798V208ZM574.175 208H567.605V207.022L570.237 204.377C571.039 203.566 571.568 202.987 571.823 202.641C572.078 202.294 572.27 201.957 572.397 201.629C572.525 201.301 572.589 200.948 572.589 200.569C572.589 200.036 572.427 199.615 572.104 199.305C571.78 198.99 571.331 198.833 570.757 198.833C570.342 198.833 569.948 198.901 569.574 199.038C569.205 199.175 568.793 199.423 568.337 199.783L567.735 199.011C568.656 198.245 569.659 197.862 570.743 197.862C571.682 197.862 572.418 198.104 572.951 198.587C573.484 199.065 573.751 199.71 573.751 200.521C573.751 201.155 573.573 201.782 573.218 202.401C572.862 203.021 572.197 203.805 571.222 204.753L569.034 206.893V206.947H574.175V208ZM575.973 207.275C575.973 206.97 576.041 206.74 576.178 206.585C576.319 206.425 576.52 206.346 576.779 206.346C577.044 206.346 577.249 206.425 577.395 206.585C577.545 206.74 577.62 206.97 577.62 207.275C577.62 207.572 577.545 207.799 577.395 207.959C577.244 208.118 577.039 208.198 576.779 208.198C576.547 208.198 576.353 208.128 576.198 207.986C576.048 207.84 575.973 207.604 575.973 207.275ZM575.973 201.239C575.973 200.624 576.242 200.316 576.779 200.316C577.34 200.316 577.62 200.624 577.62 201.239C577.62 201.535 577.545 201.763 577.395 201.923C577.244 202.082 577.039 202.162 576.779 202.162C576.547 202.162 576.353 202.091 576.198 201.95C576.048 201.804 575.973 201.567 575.973 201.239ZM585.974 202.989C585.974 204.716 585.7 206.006 585.153 206.858C584.611 207.711 583.779 208.137 582.658 208.137C581.583 208.137 580.765 207.701 580.204 206.831C579.644 205.956 579.363 204.675 579.363 202.989C579.363 201.248 579.634 199.956 580.177 199.113C580.719 198.27 581.546 197.849 582.658 197.849C583.743 197.849 584.565 198.288 585.126 199.168C585.691 200.048 585.974 201.321 585.974 202.989ZM580.512 202.989C580.512 204.443 580.683 205.503 581.024 206.168C581.366 206.829 581.911 207.159 582.658 207.159C583.415 207.159 583.962 206.824 584.299 206.154C584.641 205.48 584.812 204.425 584.812 202.989C584.812 201.554 584.641 200.503 584.299 199.838C583.962 199.168 583.415 198.833 582.658 198.833C581.911 198.833 581.366 199.163 581.024 199.824C580.683 200.48 580.512 201.535 580.512 202.989ZM593.985 202.989C593.985 204.716 593.712 206.006 593.165 206.858C592.623 207.711 591.791 208.137 590.67 208.137C589.594 208.137 588.776 207.701 588.216 206.831C587.655 205.956 587.375 204.675 587.375 202.989C587.375 201.248 587.646 199.956 588.188 199.113C588.731 198.27 589.558 197.849 590.67 197.849C591.755 197.849 592.577 198.288 593.138 199.168C593.703 200.048 593.985 201.321 593.985 202.989ZM588.523 202.989C588.523 204.443 588.694 205.503 589.036 206.168C589.378 206.829 589.923 207.159 590.67 207.159C591.426 207.159 591.973 206.824 592.311 206.154C592.652 205.48 592.823 204.425 592.823 202.989C592.823 201.554 592.652 200.503 592.311 199.838C591.973 199.168 591.426 198.833 590.67 198.833C589.923 198.833 589.378 199.163 589.036 199.824C588.694 200.48 588.523 201.535 588.523 202.989ZM605.982 208L604.738 204.821H600.732L599.502 208H598.326L602.277 197.965H603.255L607.186 208H605.982ZM604.376 203.775L603.214 200.679C603.063 200.287 602.909 199.806 602.749 199.236C602.649 199.674 602.505 200.155 602.318 200.679L601.143 203.775H604.376ZM612.982 208L609.592 199.141H609.537C609.601 199.842 609.633 200.676 609.633 201.643V208H608.56V198.006H610.31L613.475 206.25H613.529L616.722 198.006H618.458V208H617.296V201.561C617.296 200.822 617.328 200.02 617.392 199.154H617.337L613.919 208H612.982Z" fill="#666666"/>
<path d="M299.771 168H298.138V159.407H295.198V158.006H302.711V159.407H299.771V168ZM305.685 168H304.078V160.439H305.685V168ZM303.982 158.437C303.982 158.149 304.06 157.928 304.215 157.773C304.374 157.618 304.6 157.541 304.892 157.541C305.174 157.541 305.393 157.618 305.548 157.773C305.707 157.928 305.787 158.149 305.787 158.437C305.787 158.71 305.707 158.926 305.548 159.086C305.393 159.241 305.174 159.318 304.892 159.318C304.6 159.318 304.374 159.241 304.215 159.086C304.06 158.926 303.982 158.71 303.982 158.437ZM312.719 168L312.397 166.947H312.343C311.978 167.408 311.611 167.722 311.242 167.891C310.873 168.055 310.399 168.137 309.82 168.137C309.077 168.137 308.496 167.936 308.077 167.535C307.662 167.134 307.455 166.567 307.455 165.833C307.455 165.054 307.744 164.466 308.323 164.069C308.902 163.673 309.784 163.456 310.969 163.42L312.274 163.379V162.976C312.274 162.493 312.16 162.132 311.933 161.896C311.709 161.654 311.361 161.533 310.887 161.533C310.499 161.533 310.128 161.59 309.772 161.704C309.417 161.818 309.075 161.952 308.747 162.107L308.228 160.959C308.638 160.745 309.087 160.583 309.574 160.474C310.062 160.36 310.522 160.303 310.955 160.303C311.917 160.303 312.641 160.512 313.129 160.932C313.621 161.351 313.867 162.009 313.867 162.907V168H312.719ZM310.326 166.906C310.91 166.906 311.377 166.744 311.728 166.421C312.083 166.093 312.261 165.635 312.261 165.047V164.391L311.29 164.432C310.534 164.459 309.982 164.587 309.636 164.814C309.294 165.038 309.123 165.382 309.123 165.847C309.123 166.184 309.223 166.446 309.424 166.633C309.624 166.815 309.925 166.906 310.326 166.906ZM322.761 168H321.147V163.352C321.147 162.768 321.029 162.333 320.792 162.046C320.56 161.759 320.188 161.615 319.678 161.615C318.999 161.615 318.502 161.816 318.188 162.217C317.873 162.618 317.716 163.29 317.716 164.233V168H316.109V160.439H317.367L317.593 161.431H317.675C317.903 161.071 318.226 160.793 318.646 160.597C319.065 160.401 319.53 160.303 320.04 160.303C321.854 160.303 322.761 161.226 322.761 163.071V168ZM324.224 171.363C323.741 171.363 323.34 171.306 323.021 171.192V169.921C323.33 170.003 323.647 170.044 323.971 170.044C324.654 170.044 324.996 169.657 324.996 168.882V160.439H326.603V168.991C326.603 169.771 326.397 170.361 325.987 170.762C325.582 171.163 324.994 171.363 324.224 171.363ZM324.9 158.437C324.9 158.149 324.978 157.928 325.133 157.773C325.292 157.618 325.518 157.541 325.81 157.541C326.092 157.541 326.311 157.618 326.466 157.773C326.625 157.928 326.705 158.149 326.705 158.437C326.705 158.71 326.625 158.926 326.466 159.086C326.311 159.241 326.092 159.318 325.81 159.318C325.518 159.318 325.292 159.241 325.133 159.086C324.978 158.926 324.9 158.71 324.9 158.437ZM330.513 168H328.906V160.439H330.513V168ZM328.811 158.437C328.811 158.149 328.888 157.928 329.043 157.773C329.202 157.618 329.428 157.541 329.72 157.541C330.002 157.541 330.221 157.618 330.376 157.773C330.535 157.928 330.615 158.149 330.615 158.437C330.615 158.71 330.535 158.926 330.376 159.086C330.221 159.241 330.002 159.318 329.72 159.318C329.428 159.318 329.202 159.241 329.043 159.086C328.888 158.926 328.811 158.71 328.811 158.437ZM339.468 168H337.854V163.352C337.854 162.768 337.736 162.333 337.499 162.046C337.267 161.759 336.895 161.615 336.385 161.615C335.706 161.615 335.209 161.816 334.895 162.217C334.58 162.618 334.423 163.29 334.423 164.233V168H332.816V160.439H334.074L334.3 161.431H334.382C334.61 161.071 334.933 160.793 335.353 160.597C335.772 160.401 336.237 160.303 336.747 160.303C338.561 160.303 339.468 161.226 339.468 163.071V168Z" fill="#333333"/>
<path d="M284.797 188L281.406 179.141H281.352C281.415 179.842 281.447 180.676 281.447 181.643V188H280.374V178.006H282.124L285.289 186.25H285.344L288.536 178.006H290.272V188H289.11V181.561C289.11 180.822 289.142 180.02 289.206 179.154H289.151L285.733 188H284.797ZM297.457 188L297.231 186.934H297.177C296.803 187.403 296.429 187.722 296.056 187.891C295.687 188.055 295.224 188.137 294.668 188.137C293.925 188.137 293.342 187.945 292.918 187.562C292.499 187.18 292.289 186.635 292.289 185.929C292.289 184.416 293.499 183.623 295.919 183.55L297.19 183.509V183.044C297.19 182.456 297.063 182.023 296.808 181.745C296.557 181.463 296.154 181.321 295.598 181.321C294.973 181.321 294.267 181.513 293.479 181.896L293.13 181.027C293.499 180.827 293.902 180.67 294.34 180.556C294.782 180.442 295.224 180.385 295.666 180.385C296.559 180.385 297.22 180.583 297.648 180.979C298.081 181.376 298.298 182.012 298.298 182.887V188H297.457ZM294.894 187.2C295.6 187.2 296.154 187.007 296.555 186.619C296.96 186.232 297.163 185.689 297.163 184.992V184.315L296.028 184.363C295.126 184.395 294.474 184.536 294.073 184.787C293.677 185.033 293.479 185.418 293.479 185.942C293.479 186.353 293.602 186.665 293.848 186.879C294.098 187.093 294.447 187.2 294.894 187.2ZM304.061 180.371C304.393 180.371 304.692 180.398 304.956 180.453L304.799 181.506C304.489 181.438 304.215 181.403 303.979 181.403C303.372 181.403 302.853 181.649 302.42 182.142C301.992 182.634 301.777 183.247 301.777 183.98V188H300.643V180.508H301.579L301.709 181.896H301.764C302.042 181.408 302.377 181.032 302.769 180.768C303.16 180.503 303.591 180.371 304.061 180.371ZM310.739 188L314.882 179.052H309.434V178.006H316.085V178.915L311.997 188H310.739ZM319.195 186.373L319.298 186.53C319.179 186.986 319.008 187.515 318.785 188.116C318.562 188.722 318.329 189.285 318.088 189.805H317.233C317.356 189.331 317.491 188.745 317.637 188.048C317.787 187.351 317.892 186.792 317.951 186.373H319.195ZM331.124 188H324.555V187.022L327.187 184.377C327.989 183.566 328.517 182.987 328.772 182.641C329.028 182.294 329.219 181.957 329.347 181.629C329.474 181.301 329.538 180.948 329.538 180.569C329.538 180.036 329.376 179.615 329.053 179.305C328.729 178.99 328.28 178.833 327.706 178.833C327.291 178.833 326.897 178.901 326.523 179.038C326.154 179.175 325.742 179.423 325.286 179.783L324.685 179.011C325.605 178.245 326.608 177.862 327.692 177.862C328.631 177.862 329.367 178.104 329.9 178.587C330.434 179.065 330.7 179.71 330.7 180.521C330.7 181.155 330.522 181.782 330.167 182.401C329.812 183.021 329.146 183.805 328.171 184.753L325.983 186.893V186.947H331.124V188ZM339.19 182.989C339.19 184.716 338.917 186.006 338.37 186.858C337.828 187.711 336.996 188.137 335.875 188.137C334.799 188.137 333.981 187.701 333.421 186.831C332.86 185.956 332.58 184.675 332.58 182.989C332.58 181.248 332.851 179.956 333.394 179.113C333.936 178.27 334.763 177.849 335.875 177.849C336.96 177.849 337.782 178.288 338.343 179.168C338.908 180.048 339.19 181.321 339.19 182.989ZM333.729 182.989C333.729 184.443 333.899 185.503 334.241 186.168C334.583 186.829 335.128 187.159 335.875 187.159C336.632 187.159 337.178 186.824 337.516 186.154C337.857 185.48 338.028 184.425 338.028 182.989C338.028 181.554 337.857 180.503 337.516 179.838C337.178 179.168 336.632 178.833 335.875 178.833C335.128 178.833 334.583 179.163 334.241 179.824C333.899 180.48 333.729 181.535 333.729 182.989ZM344.782 188H343.675V180.877C343.675 180.285 343.693 179.724 343.729 179.195C343.634 179.291 343.527 179.391 343.408 179.496C343.29 179.601 342.747 180.045 341.781 180.829L341.18 180.05L343.825 178.006H344.782V188ZM355.159 182.271C355.159 186.182 353.646 188.137 350.62 188.137C350.091 188.137 349.672 188.091 349.362 188V187.022C349.727 187.141 350.142 187.2 350.606 187.2C351.7 187.2 352.525 186.863 353.081 186.188C353.642 185.509 353.947 184.47 353.997 183.071H353.915C353.664 183.45 353.332 183.739 352.917 183.939C352.502 184.135 352.035 184.233 351.516 184.233C350.632 184.233 349.93 183.969 349.41 183.44C348.891 182.912 348.631 182.174 348.631 181.226C348.631 180.187 348.92 179.366 349.499 178.765C350.082 178.163 350.848 177.862 351.796 177.862C352.475 177.862 353.067 178.038 353.573 178.389C354.084 178.735 354.476 179.243 354.749 179.913C355.022 180.578 355.159 181.365 355.159 182.271ZM351.796 178.833C351.144 178.833 350.641 179.043 350.285 179.462C349.93 179.881 349.752 180.465 349.752 181.212C349.752 181.868 349.916 182.385 350.244 182.764C350.572 183.137 351.071 183.324 351.741 183.324C352.156 183.324 352.536 183.24 352.883 183.071C353.234 182.903 353.509 182.673 353.71 182.381C353.91 182.089 354.011 181.784 354.011 181.465C354.011 180.986 353.917 180.544 353.73 180.139C353.544 179.733 353.282 179.414 352.944 179.182C352.612 178.949 352.229 178.833 351.796 178.833ZM294.798 207H293.69V199.877C293.69 199.285 293.709 198.724 293.745 198.195C293.649 198.291 293.542 198.391 293.424 198.496C293.305 198.601 292.763 199.045 291.797 199.829L291.195 199.05L293.841 197.006H294.798V207ZM305.175 207H298.605V206.022L301.237 203.377C302.039 202.566 302.568 201.987 302.823 201.641C303.078 201.294 303.27 200.957 303.397 200.629C303.525 200.301 303.589 199.948 303.589 199.569C303.589 199.036 303.427 198.615 303.104 198.305C302.78 197.99 302.331 197.833 301.757 197.833C301.342 197.833 300.948 197.901 300.574 198.038C300.205 198.175 299.793 198.423 299.337 198.783L298.735 198.011C299.656 197.245 300.659 196.862 301.743 196.862C302.682 196.862 303.418 197.104 303.951 197.587C304.484 198.065 304.751 198.71 304.751 199.521C304.751 200.155 304.573 200.782 304.218 201.401C303.862 202.021 303.197 202.805 302.222 203.753L300.034 205.893V205.947H305.175V207ZM306.973 206.275C306.973 205.97 307.041 205.74 307.178 205.585C307.319 205.425 307.52 205.346 307.779 205.346C308.044 205.346 308.249 205.425 308.395 205.585C308.545 205.74 308.62 205.97 308.62 206.275C308.62 206.572 308.545 206.799 308.395 206.959C308.244 207.118 308.039 207.198 307.779 207.198C307.547 207.198 307.353 207.128 307.198 206.986C307.048 206.84 306.973 206.604 306.973 206.275ZM306.973 200.239C306.973 199.624 307.242 199.316 307.779 199.316C308.34 199.316 308.62 199.624 308.62 200.239C308.62 200.535 308.545 200.763 308.395 200.923C308.244 201.082 308.039 201.162 307.779 201.162C307.547 201.162 307.353 201.091 307.198 200.95C307.048 200.804 306.973 200.567 306.973 200.239ZM316.974 201.989C316.974 203.716 316.7 205.006 316.153 205.858C315.611 206.711 314.779 207.137 313.658 207.137C312.583 207.137 311.765 206.701 311.204 205.831C310.644 204.956 310.363 203.675 310.363 201.989C310.363 200.248 310.634 198.956 311.177 198.113C311.719 197.27 312.546 196.849 313.658 196.849C314.743 196.849 315.565 197.288 316.126 198.168C316.691 199.048 316.974 200.321 316.974 201.989ZM311.512 201.989C311.512 203.443 311.683 204.503 312.024 205.168C312.366 205.829 312.911 206.159 313.658 206.159C314.415 206.159 314.962 205.824 315.299 205.154C315.641 204.48 315.812 203.425 315.812 201.989C315.812 200.554 315.641 199.503 315.299 198.838C314.962 198.168 314.415 197.833 313.658 197.833C312.911 197.833 312.366 198.163 312.024 198.824C311.683 199.48 311.512 200.535 311.512 201.989ZM324.985 201.989C324.985 203.716 324.712 205.006 324.165 205.858C323.623 206.711 322.791 207.137 321.67 207.137C320.594 207.137 319.776 206.701 319.216 205.831C318.655 204.956 318.375 203.675 318.375 201.989C318.375 200.248 318.646 198.956 319.188 198.113C319.731 197.27 320.558 196.849 321.67 196.849C322.755 196.849 323.577 197.288 324.138 198.168C324.703 199.048 324.985 200.321 324.985 201.989ZM319.523 201.989C319.523 203.443 319.694 204.503 320.036 205.168C320.378 205.829 320.923 206.159 321.67 206.159C322.426 206.159 322.973 205.824 323.311 205.154C323.652 204.48 323.823 203.425 323.823 201.989C323.823 200.554 323.652 199.503 323.311 198.838C322.973 198.168 322.426 197.833 321.67 197.833C320.923 197.833 320.378 198.163 320.036 198.824C319.694 199.48 319.523 200.535 319.523 201.989ZM336.982 207L335.738 203.821H331.732L330.502 207H329.326L333.277 196.965H334.255L338.186 207H336.982ZM335.376 202.775L334.214 199.679C334.063 199.287 333.909 198.806 333.749 198.236C333.649 198.674 333.505 199.155 333.318 199.679L332.143 202.775H335.376ZM343.982 207L340.592 198.141H340.537C340.601 198.842 340.633 199.676 340.633 200.643V207H339.56V197.006H341.31L344.475 205.25H344.529L347.722 197.006H349.458V207H348.296V200.561C348.296 199.822 348.328 199.02 348.392 198.154H348.337L344.919 207H343.982Z" fill="#666666"/>
<path d="M439.771 164H438.138V155.407H435.198V154.006H442.711V155.407H439.771V164ZM445.685 164H444.078V156.439H445.685V164ZM443.982 154.437C443.982 154.149 444.06 153.928 444.215 153.773C444.374 153.618 444.6 153.541 444.892 153.541C445.174 153.541 445.393 153.618 445.548 153.773C445.707 153.928 445.787 154.149 445.787 154.437C445.787 154.71 445.707 154.926 445.548 155.086C445.393 155.241 445.174 155.318 444.892 155.318C444.6 155.318 444.374 155.241 444.215 155.086C444.06 154.926 443.982 154.71 443.982 154.437ZM452.719 164L452.397 162.947H452.343C451.978 163.408 451.611 163.722 451.242 163.891C450.873 164.055 450.399 164.137 449.82 164.137C449.077 164.137 448.496 163.936 448.077 163.535C447.662 163.134 447.455 162.567 447.455 161.833C447.455 161.054 447.744 160.466 448.323 160.069C448.902 159.673 449.784 159.456 450.969 159.42L452.274 159.379V158.976C452.274 158.493 452.16 158.132 451.933 157.896C451.709 157.654 451.361 157.533 450.887 157.533C450.499 157.533 450.128 157.59 449.772 157.704C449.417 157.818 449.075 157.952 448.747 158.107L448.228 156.959C448.638 156.745 449.087 156.583 449.574 156.474C450.062 156.36 450.522 156.303 450.955 156.303C451.917 156.303 452.641 156.512 453.129 156.932C453.621 157.351 453.867 158.009 453.867 158.907V164H452.719ZM450.326 162.906C450.91 162.906 451.377 162.744 451.728 162.421C452.083 162.093 452.261 161.635 452.261 161.047V160.391L451.29 160.432C450.534 160.459 449.982 160.587 449.636 160.814C449.294 161.038 449.123 161.382 449.123 161.847C449.123 162.184 449.223 162.446 449.424 162.633C449.624 162.815 449.925 162.906 450.326 162.906ZM462.761 164H461.147V159.352C461.147 158.768 461.029 158.333 460.792 158.046C460.56 157.759 460.188 157.615 459.678 157.615C458.999 157.615 458.502 157.816 458.188 158.217C457.873 158.618 457.716 159.29 457.716 160.233V164H456.109V156.439H457.367L457.593 157.431H457.675C457.903 157.071 458.226 156.793 458.646 156.597C459.065 156.401 459.53 156.303 460.04 156.303C461.854 156.303 462.761 157.226 462.761 159.071V164ZM464.224 167.363C463.741 167.363 463.34 167.306 463.021 167.192V165.921C463.33 166.003 463.647 166.044 463.971 166.044C464.654 166.044 464.996 165.657 464.996 164.882V156.439H466.603V164.991C466.603 165.771 466.397 166.361 465.987 166.762C465.582 167.163 464.994 167.363 464.224 167.363ZM464.9 154.437C464.9 154.149 464.978 153.928 465.133 153.773C465.292 153.618 465.518 153.541 465.81 153.541C466.092 153.541 466.311 153.618 466.466 153.773C466.625 153.928 466.705 154.149 466.705 154.437C466.705 154.71 466.625 154.926 466.466 155.086C466.311 155.241 466.092 155.318 465.81 155.318C465.518 155.318 465.292 155.241 465.133 155.086C464.978 154.926 464.9 154.71 464.9 154.437ZM470.513 164H468.906V156.439H470.513V164ZM468.811 154.437C468.811 154.149 468.888 153.928 469.043 153.773C469.202 153.618 469.428 153.541 469.72 153.541C470.002 153.541 470.221 153.618 470.376 153.773C470.535 153.928 470.615 154.149 470.615 154.437C470.615 154.71 470.535 154.926 470.376 155.086C470.221 155.241 470.002 155.318 469.72 155.318C469.428 155.318 469.202 155.241 469.043 155.086C468.888 154.926 468.811 154.71 468.811 154.437ZM479.468 164H477.854V159.352C477.854 158.768 477.736 158.333 477.499 158.046C477.267 157.759 476.895 157.615 476.385 157.615C475.706 157.615 475.209 157.816 474.895 158.217C474.58 158.618 474.423 159.29 474.423 160.233V164H472.816V156.439H474.074L474.3 157.431H474.382C474.61 157.071 474.933 156.793 475.353 156.597C475.772 156.401 476.237 156.303 476.747 156.303C478.561 156.303 479.468 157.226 479.468 159.071V164Z" fill="#333333"/>
<path d="M424.797 184L421.406 175.141H421.352C421.415 175.842 421.447 176.676 421.447 177.643V184H420.374V174.006H422.124L425.289 182.25H425.344L428.536 174.006H430.272V184H429.11V177.561C429.11 176.822 429.142 176.02 429.206 175.154H429.151L425.733 184H424.797ZM437.457 184L437.231 182.934H437.177C436.803 183.403 436.429 183.722 436.056 183.891C435.687 184.055 435.224 184.137 434.668 184.137C433.925 184.137 433.342 183.945 432.918 183.562C432.499 183.18 432.289 182.635 432.289 181.929C432.289 180.416 433.499 179.623 435.919 179.55L437.19 179.509V179.044C437.19 178.456 437.063 178.023 436.808 177.745C436.557 177.463 436.154 177.321 435.598 177.321C434.973 177.321 434.267 177.513 433.479 177.896L433.13 177.027C433.499 176.827 433.902 176.67 434.34 176.556C434.782 176.442 435.224 176.385 435.666 176.385C436.559 176.385 437.22 176.583 437.648 176.979C438.081 177.376 438.298 178.012 438.298 178.887V184H437.457ZM434.894 183.2C435.6 183.2 436.154 183.007 436.555 182.619C436.96 182.232 437.163 181.689 437.163 180.992V180.315L436.028 180.363C435.126 180.395 434.474 180.536 434.073 180.787C433.677 181.033 433.479 181.418 433.479 181.942C433.479 182.353 433.602 182.665 433.848 182.879C434.098 183.093 434.447 183.2 434.894 183.2ZM444.061 176.371C444.393 176.371 444.692 176.398 444.956 176.453L444.799 177.506C444.489 177.438 444.215 177.403 443.979 177.403C443.372 177.403 442.853 177.649 442.42 178.142C441.992 178.634 441.777 179.247 441.777 179.98V184H440.643V176.508H441.579L441.709 177.896H441.764C442.042 177.408 442.377 177.032 442.769 176.768C443.16 176.503 443.591 176.371 444.061 176.371ZM450.739 184L454.882 175.052H449.434V174.006H456.085V174.915L451.997 184H450.739ZM459.195 182.373L459.298 182.53C459.179 182.986 459.008 183.515 458.785 184.116C458.562 184.722 458.329 185.285 458.088 185.805H457.233C457.356 185.331 457.491 184.745 457.637 184.048C457.787 183.351 457.892 182.792 457.951 182.373H459.195ZM471.124 184H464.555V183.022L467.187 180.377C467.989 179.566 468.517 178.987 468.772 178.641C469.028 178.294 469.219 177.957 469.347 177.629C469.474 177.301 469.538 176.948 469.538 176.569C469.538 176.036 469.376 175.615 469.053 175.305C468.729 174.99 468.28 174.833 467.706 174.833C467.291 174.833 466.897 174.901 466.523 175.038C466.154 175.175 465.742 175.423 465.286 175.783L464.685 175.011C465.605 174.245 466.608 173.862 467.692 173.862C468.631 173.862 469.367 174.104 469.9 174.587C470.434 175.065 470.7 175.71 470.7 176.521C470.7 177.155 470.522 177.782 470.167 178.401C469.812 179.021 469.146 179.805 468.171 180.753L465.983 182.893V182.947H471.124V184ZM479.19 178.989C479.19 180.716 478.917 182.006 478.37 182.858C477.828 183.711 476.996 184.137 475.875 184.137C474.799 184.137 473.981 183.701 473.421 182.831C472.86 181.956 472.58 180.675 472.58 178.989C472.58 177.248 472.851 175.956 473.394 175.113C473.936 174.27 474.763 173.849 475.875 173.849C476.96 173.849 477.782 174.288 478.343 175.168C478.908 176.048 479.19 177.321 479.19 178.989ZM473.729 178.989C473.729 180.443 473.899 181.503 474.241 182.168C474.583 182.829 475.128 183.159 475.875 183.159C476.632 183.159 477.178 182.824 477.516 182.154C477.857 181.48 478.028 180.425 478.028 178.989C478.028 177.554 477.857 176.503 477.516 175.838C477.178 175.168 476.632 174.833 475.875 174.833C475.128 174.833 474.583 175.163 474.241 175.824C473.899 176.48 473.729 177.535 473.729 178.989ZM484.782 184H483.675V176.877C483.675 176.285 483.693 175.724 483.729 175.195C483.634 175.291 483.527 175.391 483.408 175.496C483.29 175.601 482.747 176.045 481.781 176.829L481.18 176.05L483.825 174.006H484.782V184ZM495.159 178.271C495.159 182.182 493.646 184.137 490.62 184.137C490.091 184.137 489.672 184.091 489.362 184V183.022C489.727 183.141 490.142 183.2 490.606 183.2C491.7 183.2 492.525 182.863 493.081 182.188C493.642 181.509 493.947 180.47 493.997 179.071H493.915C493.664 179.45 493.332 179.739 492.917 179.939C492.502 180.135 492.035 180.233 491.516 180.233C490.632 180.233 489.93 179.969 489.41 179.44C488.891 178.912 488.631 178.174 488.631 177.226C488.631 176.187 488.92 175.366 489.499 174.765C490.082 174.163 490.848 173.862 491.796 173.862C492.475 173.862 493.067 174.038 493.573 174.389C494.084 174.735 494.476 175.243 494.749 175.913C495.022 176.578 495.159 177.365 495.159 178.271ZM491.796 174.833C491.144 174.833 490.641 175.043 490.285 175.462C489.93 175.881 489.752 176.465 489.752 177.212C489.752 177.868 489.916 178.385 490.244 178.764C490.572 179.137 491.071 179.324 491.741 179.324C492.156 179.324 492.536 179.24 492.883 179.071C493.234 178.903 493.509 178.673 493.71 178.381C493.91 178.089 494.011 177.784 494.011 177.465C494.011 176.986 493.917 176.544 493.73 176.139C493.544 175.733 493.282 175.414 492.944 175.182C492.612 174.949 492.229 174.833 491.796 174.833ZM434.798 203H433.69V195.877C433.69 195.285 433.709 194.724 433.745 194.195C433.649 194.291 433.542 194.391 433.424 194.496C433.305 194.601 432.763 195.045 431.797 195.829L431.195 195.05L433.841 193.006H434.798V203ZM445.175 203H438.605V202.022L441.237 199.377C442.039 198.566 442.568 197.987 442.823 197.641C443.078 197.294 443.27 196.957 443.397 196.629C443.525 196.301 443.589 195.948 443.589 195.569C443.589 195.036 443.427 194.615 443.104 194.305C442.78 193.99 442.331 193.833 441.757 193.833C441.342 193.833 440.948 193.901 440.574 194.038C440.205 194.175 439.793 194.423 439.337 194.783L438.735 194.011C439.656 193.245 440.659 192.862 441.743 192.862C442.682 192.862 443.418 193.104 443.951 193.587C444.484 194.065 444.751 194.71 444.751 195.521C444.751 196.155 444.573 196.782 444.218 197.401C443.862 198.021 443.197 198.805 442.222 199.753L440.034 201.893V201.947H445.175V203ZM446.973 202.275C446.973 201.97 447.041 201.74 447.178 201.585C447.319 201.425 447.52 201.346 447.779 201.346C448.044 201.346 448.249 201.425 448.395 201.585C448.545 201.74 448.62 201.97 448.62 202.275C448.62 202.572 448.545 202.799 448.395 202.959C448.244 203.118 448.039 203.198 447.779 203.198C447.547 203.198 447.353 203.128 447.198 202.986C447.048 202.84 446.973 202.604 446.973 202.275ZM446.973 196.239C446.973 195.624 447.242 195.316 447.779 195.316C448.34 195.316 448.62 195.624 448.62 196.239C448.62 196.535 448.545 196.763 448.395 196.923C448.244 197.082 448.039 197.162 447.779 197.162C447.547 197.162 447.353 197.091 447.198 196.95C447.048 196.804 446.973 196.567 446.973 196.239ZM456.974 197.989C456.974 199.716 456.7 201.006 456.153 201.858C455.611 202.711 454.779 203.137 453.658 203.137C452.583 203.137 451.765 202.701 451.204 201.831C450.644 200.956 450.363 199.675 450.363 197.989C450.363 196.248 450.634 194.956 451.177 194.113C451.719 193.27 452.546 192.849 453.658 192.849C454.743 192.849 455.565 193.288 456.126 194.168C456.691 195.048 456.974 196.321 456.974 197.989ZM451.512 197.989C451.512 199.443 451.683 200.503 452.024 201.168C452.366 201.829 452.911 202.159 453.658 202.159C454.415 202.159 454.962 201.824 455.299 201.154C455.641 200.48 455.812 199.425 455.812 197.989C455.812 196.554 455.641 195.503 455.299 194.838C454.962 194.168 454.415 193.833 453.658 193.833C452.911 193.833 452.366 194.163 452.024 194.824C451.683 195.48 451.512 196.535 451.512 197.989ZM464.985 197.989C464.985 199.716 464.712 201.006 464.165 201.858C463.623 202.711 462.791 203.137 461.67 203.137C460.594 203.137 459.776 202.701 459.216 201.831C458.655 200.956 458.375 199.675 458.375 197.989C458.375 196.248 458.646 194.956 459.188 194.113C459.731 193.27 460.558 192.849 461.67 192.849C462.755 192.849 463.577 193.288 464.138 194.168C464.703 195.048 464.985 196.321 464.985 197.989ZM459.523 197.989C459.523 199.443 459.694 200.503 460.036 201.168C460.378 201.829 460.923 202.159 461.67 202.159C462.426 202.159 462.973 201.824 463.311 201.154C463.652 200.48 463.823 199.425 463.823 197.989C463.823 196.554 463.652 195.503 463.311 194.838C462.973 194.168 462.426 193.833 461.67 193.833C460.923 193.833 460.378 194.163 460.036 194.824C459.694 195.48 459.523 196.535 459.523 197.989ZM476.982 203L475.738 199.821H471.732L470.502 203H469.326L473.277 192.965H474.255L478.186 203H476.982ZM475.376 198.775L474.214 195.679C474.063 195.287 473.909 194.806 473.749 194.236C473.649 194.674 473.505 195.155 473.318 195.679L472.143 198.775H475.376ZM483.982 203L480.592 194.141H480.537C480.601 194.842 480.633 195.676 480.633 196.643V203H479.56V193.006H481.31L484.475 201.25H484.529L487.722 193.006H489.458V203H488.296V196.561C488.296 195.822 488.328 195.02 488.392 194.154H488.337L484.919 203H483.982Z" fill="#666666"/>
<path d="M695.5 136C701.851 136 707 130.851 707 124.5C707 118.149 701.851 113 695.5 113C689.149 113 684 118.149 684 124.5C684 130.851 689.149 136 695.5 136Z" fill="#0578B4" stroke="white" stroke-width="2"/>
<path d="M695.5 130C698.538 130 701 127.538 701 124.5C701 121.462 698.538 119 695.5 119C692.462 119 690 121.462 690 124.5C690 127.538 692.462 130 695.5 130Z" fill="#0578B4" stroke="#F2C94C" stroke-width="2"/>
<path d="M739.5 133C744.194 133 748 129.194 748 124.5C748 119.806 744.194 116 739.5 116C734.806 116 731 119.806 731 124.5C731 129.194 734.806 133 739.5 133Z" fill="white"/>
<path d="M855.5 134C860.194 134 864 130.194 864 125.5C864 120.806 860.194 117 855.5 117C850.806 117 847 120.806 847 125.5C847 130.194 850.806 134 855.5 134Z" fill="white"/>
<path d="M817.5 134C822.194 134 826 130.194 826 125.5C826 120.806 822.194 117 817.5 117C812.806 117 809 120.806 809 125.5C809 130.194 812.806 134 817.5 134Z" fill="white"/>
<path d="M779.5 134C784.194 134 788 130.194 788 125.5C788 120.806 784.194 117 779.5 117C774.806 117 771 120.806 771 125.5C771 130.194 774.806 134 779.5 134Z" fill="white"/>
<path d="M147 125H191" stroke="white" stroke-width="2"/>
<path d="M148 125H683" stroke="white" stroke-width="3"/>
<path d="M716 126L874.005 125.958" stroke="white" stroke-width="2" stroke-dasharray="3.7 3.7"/>
<path d="M140 115H125V128H140V115Z" stroke="white" stroke-width="2" stroke-linecap="round" stroke-linejoin="round"/>
<path d="M140 120H144L147 123V128H140V120Z" stroke="white" stroke-width="2" stroke-linecap="round" stroke-linejoin="round"/>
<path d="M129.5 133C130.881 133 132 131.881 132 130.5C132 129.119 130.881 128 129.5 128C128.119 128 127 129.119 127 130.5C127 131.881 128.119 133 129.5 133Z" stroke="white" stroke-width="2" stroke-linecap="round" stroke-linejoin="round"/>
<path d="M142.5 133C143.881 133 145 131.881 145 130.5C145 129.119 143.881 128 142.5 128C141.119 128 140 129.119 140 130.5C140 131.881 141.119 133 142.5 133Z" stroke="white" stroke-width="2" stroke-linecap="round" stroke-linejoin="round"/>
<path d="M313.5 131C317.642 131 321 127.642 321 123.5C321 119.358 317.642 116 313.5 116C309.358 116 306 119.358 306 123.5C306 127.642 309.358 131 313.5 131Z" fill="white" stroke="white" stroke-width="2"/>
<path d="M318.087 120.059L311.78 126.367L308.913 123.5" stroke="#008737" stroke-width="2" stroke-linecap="round" stroke-linejoin="round"/>
<path d="M453.5 133C457.642 133 461 129.642 461 125.5C461 121.358 457.642 118 453.5 118C449.358 118 446 121.358 446 125.5C446 129.642 449.358 133 453.5 133Z" fill="white" stroke="white" stroke-width="2"/>
<path d="M458.087 122.06L451.78 128.367L448.913 125.5" stroke="#008737" stroke-width="2" stroke-linecap="round" stroke-linejoin="round"/>
<path d="M588.5 133C592.642 133 596 129.642 596 125.5C596 121.358 592.642 118 588.5 118C584.358 118 581 121.358 581 125.5C581 129.642 584.358 133 588.5 133Z" fill="white" stroke="white" stroke-width="2"/>
<path d="M593.087 122.06L586.78 128.367L583.913 125.5" stroke="#008737" stroke-width="2" stroke-linecap="round" stroke-linejoin="round"/>
<path d="M110.082 165.286C110.082 166.175 109.761 166.872 109.118 167.378C108.476 167.884 107.589 168.137 106.459 168.137C105.329 168.137 104.404 167.961 103.684 167.61V166.065C104.139 166.28 104.622 166.448 105.133 166.571C105.648 166.694 106.126 166.756 106.568 166.756C107.215 166.756 107.692 166.633 107.997 166.387C108.307 166.141 108.462 165.81 108.462 165.396C108.462 165.022 108.321 164.705 108.038 164.445C107.756 164.186 107.172 163.878 106.288 163.522C105.377 163.153 104.734 162.732 104.36 162.258C103.987 161.784 103.8 161.214 103.8 160.549C103.8 159.715 104.096 159.059 104.688 158.58C105.281 158.102 106.076 157.862 107.074 157.862C108.031 157.862 108.984 158.072 109.932 158.491L109.412 159.824C108.523 159.451 107.73 159.264 107.033 159.264C106.505 159.264 106.104 159.38 105.83 159.612C105.557 159.84 105.42 160.143 105.42 160.521C105.42 160.781 105.475 161.005 105.584 161.191C105.693 161.374 105.873 161.547 106.124 161.711C106.375 161.875 106.826 162.091 107.478 162.36C108.211 162.666 108.749 162.951 109.091 163.215C109.433 163.479 109.683 163.778 109.843 164.11C110.002 164.443 110.082 164.835 110.082 165.286ZM113.452 168H111.846V160.439H113.452V168ZM111.75 158.437C111.75 158.149 111.827 157.928 111.982 157.773C112.142 157.618 112.368 157.541 112.659 157.541C112.942 157.541 113.16 157.618 113.315 157.773C113.475 157.928 113.555 158.149 113.555 158.437C113.555 158.71 113.475 158.926 113.315 159.086C113.16 159.241 112.942 159.318 112.659 159.318C112.368 159.318 112.142 159.241 111.982 159.086C111.827 158.926 111.75 158.71 111.75 158.437ZM119.058 168.137C117.882 168.137 116.961 167.795 116.296 167.111C115.635 166.423 115.305 165.478 115.305 164.274C115.305 163.039 115.612 162.069 116.228 161.362C116.843 160.656 117.688 160.303 118.764 160.303C119.762 160.303 120.55 160.606 121.129 161.212C121.708 161.818 121.997 162.652 121.997 163.714V164.582H116.959C116.982 165.316 117.18 165.881 117.554 166.277C117.927 166.669 118.454 166.865 119.133 166.865C119.579 166.865 119.994 166.824 120.377 166.742C120.764 166.656 121.179 166.514 121.621 166.318V167.624C121.229 167.811 120.833 167.943 120.432 168.021C120.031 168.098 119.573 168.137 119.058 168.137ZM118.764 161.52C118.253 161.52 117.843 161.681 117.533 162.005C117.228 162.328 117.046 162.8 116.986 163.42H120.418C120.409 162.796 120.258 162.324 119.967 162.005C119.675 161.681 119.274 161.52 118.764 161.52ZM130.207 160.439V161.321L128.915 161.561C129.034 161.72 129.132 161.916 129.209 162.148C129.286 162.381 129.325 162.627 129.325 162.887C129.325 163.666 129.056 164.279 128.519 164.726C127.981 165.172 127.24 165.396 126.297 165.396C126.055 165.396 125.837 165.377 125.641 165.341C125.294 165.555 125.121 165.806 125.121 166.093C125.121 166.266 125.201 166.396 125.36 166.482C125.524 166.569 125.823 166.612 126.256 166.612H127.575C128.409 166.612 129.043 166.79 129.476 167.146C129.909 167.501 130.125 168.014 130.125 168.684C130.125 169.54 129.772 170.201 129.065 170.666C128.359 171.131 127.338 171.363 126.003 171.363C124.973 171.363 124.187 171.181 123.645 170.816C123.102 170.452 122.831 169.932 122.831 169.258C122.831 168.793 122.977 168.401 123.269 168.082C123.565 167.768 123.977 167.549 124.506 167.426C124.292 167.335 124.114 167.189 123.973 166.988C123.836 166.783 123.768 166.569 123.768 166.346C123.768 166.063 123.847 165.824 124.007 165.628C124.166 165.432 124.403 165.238 124.718 165.047C124.326 164.878 124.007 164.605 123.761 164.227C123.519 163.844 123.398 163.397 123.398 162.887C123.398 162.066 123.656 161.431 124.171 160.979C124.69 160.528 125.429 160.303 126.386 160.303C126.6 160.303 126.823 160.319 127.056 160.351C127.293 160.378 127.47 160.408 127.589 160.439H130.207ZM124.267 169.176C124.267 169.522 124.422 169.789 124.731 169.976C125.046 170.162 125.486 170.256 126.051 170.256C126.926 170.256 127.577 170.131 128.006 169.88C128.434 169.629 128.648 169.297 128.648 168.882C128.648 168.554 128.53 168.319 128.293 168.178C128.061 168.041 127.625 167.973 126.987 167.973H125.771C125.31 167.973 124.943 168.08 124.67 168.294C124.401 168.513 124.267 168.807 124.267 169.176ZM124.957 162.887C124.957 163.361 125.078 163.725 125.319 163.98C125.565 164.236 125.916 164.363 126.372 164.363C127.302 164.363 127.767 163.867 127.767 162.873C127.767 162.381 127.65 162.003 127.418 161.738C127.19 161.469 126.841 161.335 126.372 161.335C125.907 161.335 125.554 161.467 125.312 161.731C125.076 161.996 124.957 162.381 124.957 162.887ZM137.815 168L136.838 164.473C136.719 164.099 136.505 163.231 136.195 161.868H136.134C135.869 163.099 135.66 163.971 135.505 164.486L134.5 168H132.723L130.604 160.439H132.244L133.208 164.165C133.427 165.086 133.582 165.874 133.673 166.53H133.714C133.759 166.198 133.828 165.817 133.919 165.389C134.015 164.956 134.097 164.632 134.165 164.418L135.313 160.439H137.077L138.191 164.418C138.26 164.641 138.344 164.983 138.444 165.443C138.549 165.904 138.611 166.261 138.629 166.517H138.684C138.752 165.956 138.911 165.172 139.162 164.165L140.14 160.439H141.753L139.62 168H137.815ZM146.36 168.137C145.185 168.137 144.264 167.795 143.599 167.111C142.938 166.423 142.607 165.478 142.607 164.274C142.607 163.039 142.915 162.069 143.53 161.362C144.146 160.656 144.991 160.303 146.066 160.303C147.064 160.303 147.853 160.606 148.432 161.212C149.01 161.818 149.3 162.652 149.3 163.714V164.582H144.262C144.285 165.316 144.483 165.881 144.856 166.277C145.23 166.669 145.757 166.865 146.436 166.865C146.882 166.865 147.297 166.824 147.68 166.742C148.067 166.656 148.482 166.514 148.924 166.318V167.624C148.532 167.811 148.135 167.943 147.734 168.021C147.333 168.098 146.875 168.137 146.36 168.137ZM146.066 161.52C145.556 161.52 145.146 161.681 144.836 162.005C144.531 162.328 144.348 162.8 144.289 163.42H147.721C147.712 162.796 147.561 162.324 147.27 162.005C146.978 161.681 146.577 161.52 146.066 161.52ZM154.96 160.303C155.284 160.303 155.55 160.326 155.76 160.371L155.603 161.868C155.375 161.813 155.138 161.786 154.892 161.786C154.249 161.786 153.727 161.996 153.326 162.415C152.93 162.834 152.731 163.379 152.731 164.049V168H151.125V160.439H152.383L152.595 161.772H152.677C152.927 161.321 153.253 160.964 153.654 160.699C154.06 160.435 154.495 160.303 154.96 160.303ZM158.72 164.008L159.629 162.873L161.912 160.439H163.765L160.723 163.687L163.956 168H162.069L159.643 164.685L158.761 165.409V168H157.168V157.363H158.761V162.552L158.679 164.008H158.72ZM172.61 161.656H170.765V168H169.151V161.656H167.907V160.904L169.151 160.412V159.92C169.151 159.027 169.361 158.366 169.78 157.938C170.2 157.505 170.84 157.288 171.701 157.288C172.266 157.288 172.822 157.382 173.369 157.568L172.945 158.785C172.549 158.658 172.171 158.594 171.811 158.594C171.446 158.594 171.179 158.708 171.011 158.936C170.847 159.159 170.765 159.496 170.765 159.947V160.439H172.61V161.656ZM178.633 168L178.312 166.947H178.257C177.892 167.408 177.525 167.722 177.156 167.891C176.787 168.055 176.313 168.137 175.734 168.137C174.992 168.137 174.41 167.936 173.991 167.535C173.576 167.134 173.369 166.567 173.369 165.833C173.369 165.054 173.659 164.466 174.237 164.069C174.816 163.673 175.698 163.456 176.883 163.42L178.188 163.379V162.976C178.188 162.493 178.075 162.132 177.847 161.896C177.623 161.654 177.275 161.533 176.801 161.533C176.413 161.533 176.042 161.59 175.687 161.704C175.331 161.818 174.989 161.952 174.661 162.107L174.142 160.959C174.552 160.745 175.001 160.583 175.488 160.474C175.976 160.36 176.436 160.303 176.869 160.303C177.831 160.303 178.555 160.512 179.043 160.932C179.535 161.351 179.781 162.009 179.781 162.907V168H178.633ZM176.24 166.906C176.824 166.906 177.291 166.744 177.642 166.421C177.997 166.093 178.175 165.635 178.175 165.047V164.391L177.204 164.432C176.448 164.459 175.896 164.587 175.55 164.814C175.208 165.038 175.037 165.382 175.037 165.847C175.037 166.184 175.137 166.446 175.338 166.633C175.538 166.815 175.839 166.906 176.24 166.906ZM185.072 168.137C183.928 168.137 183.058 167.804 182.461 167.139C181.868 166.469 181.572 165.509 181.572 164.261C181.572 162.989 181.882 162.012 182.502 161.328C183.126 160.645 184.026 160.303 185.202 160.303C186 160.303 186.717 160.451 187.355 160.747L186.87 162.039C186.191 161.775 185.631 161.643 185.188 161.643C183.881 161.643 183.227 162.511 183.227 164.247C183.227 165.095 183.388 165.733 183.712 166.161C184.04 166.585 184.519 166.797 185.147 166.797C185.863 166.797 186.54 166.619 187.178 166.264V167.665C186.891 167.834 186.583 167.954 186.255 168.027C185.931 168.1 185.537 168.137 185.072 168.137ZM191.771 166.838C192.163 166.838 192.555 166.776 192.947 166.653V167.863C192.77 167.941 192.539 168.005 192.257 168.055C191.979 168.109 191.689 168.137 191.389 168.137C189.867 168.137 189.105 167.335 189.105 165.73V161.656H188.073V160.945L189.181 160.357L189.728 158.758H190.719V160.439H192.872V161.656H190.719V165.703C190.719 166.09 190.814 166.378 191.006 166.564C191.202 166.747 191.457 166.838 191.771 166.838ZM201.171 164.206C201.171 165.441 200.854 166.405 200.221 167.098C199.587 167.79 198.705 168.137 197.575 168.137C196.869 168.137 196.244 167.977 195.702 167.658C195.16 167.339 194.743 166.881 194.451 166.284C194.16 165.687 194.014 164.994 194.014 164.206C194.014 162.98 194.328 162.023 194.957 161.335C195.586 160.647 196.472 160.303 197.616 160.303C198.71 160.303 199.576 160.656 200.214 161.362C200.852 162.064 201.171 163.012 201.171 164.206ZM195.668 164.206C195.668 165.951 196.313 166.824 197.603 166.824C198.879 166.824 199.517 165.951 199.517 164.206C199.517 162.479 198.874 161.615 197.589 161.615C196.914 161.615 196.424 161.839 196.119 162.285C195.818 162.732 195.668 163.372 195.668 164.206ZM206.858 160.303C207.182 160.303 207.449 160.326 207.658 160.371L207.501 161.868C207.273 161.813 207.036 161.786 206.79 161.786C206.147 161.786 205.626 161.996 205.225 162.415C204.828 162.834 204.63 163.379 204.63 164.049V168H203.023V160.439H204.281L204.493 161.772H204.575C204.826 161.321 205.152 160.964 205.553 160.699C205.958 160.435 206.394 160.303 206.858 160.303ZM207.918 160.439H209.668L211.206 164.726C211.438 165.336 211.593 165.91 211.671 166.448H211.726C211.767 166.198 211.842 165.895 211.951 165.539C212.061 165.179 212.639 163.479 213.688 160.439H215.424L212.19 169.005C211.603 170.577 210.623 171.363 209.251 171.363C208.896 171.363 208.549 171.325 208.212 171.247V169.976C208.453 170.03 208.729 170.058 209.039 170.058C209.814 170.058 210.358 169.609 210.673 168.711L210.953 168L207.918 160.439Z" fill="#333333"/>
<path d="M875.319 159.006H878.286C879.662 159.006 880.656 159.206 881.267 159.607C881.882 160.008 882.189 160.642 882.189 161.508C882.189 162.091 882.039 162.576 881.738 162.964C881.438 163.351 881.005 163.595 880.439 163.695V163.764C881.141 163.896 881.656 164.158 881.984 164.55C882.317 164.937 882.483 165.464 882.483 166.129C882.483 167.027 882.169 167.731 881.54 168.241C880.916 168.747 880.045 169 878.929 169H875.319V159.006ZM876.953 163.135H878.525C879.209 163.135 879.708 163.028 880.022 162.813C880.337 162.595 880.494 162.226 880.494 161.706C880.494 161.237 880.323 160.897 879.981 160.688C879.644 160.478 879.106 160.373 878.368 160.373H876.953V163.135ZM876.953 164.461V167.626H878.689C879.373 167.626 879.888 167.496 880.234 167.236C880.585 166.972 880.761 166.557 880.761 165.992C880.761 165.473 880.583 165.088 880.228 164.837C879.872 164.586 879.332 164.461 878.607 164.461H876.953ZM887.692 169.137C886.517 169.137 885.596 168.795 884.931 168.111C884.27 167.423 883.939 166.478 883.939 165.274C883.939 164.039 884.247 163.069 884.862 162.362C885.478 161.656 886.323 161.303 887.398 161.303C888.396 161.303 889.185 161.606 889.764 162.212C890.342 162.818 890.632 163.652 890.632 164.714V165.582H885.594C885.617 166.316 885.815 166.881 886.188 167.277C886.562 167.669 887.089 167.865 887.768 167.865C888.214 167.865 888.629 167.824 889.012 167.742C889.399 167.656 889.814 167.514 890.256 167.318V168.624C889.864 168.811 889.467 168.943 889.066 169.021C888.665 169.098 888.207 169.137 887.692 169.137ZM887.398 162.52C886.888 162.52 886.478 162.681 886.168 163.005C885.863 163.328 885.68 163.8 885.621 164.42H889.053C889.044 163.796 888.893 163.324 888.602 163.005C888.31 162.681 887.909 162.52 887.398 162.52ZM894.063 169H892.457V161.439H894.063V169ZM892.361 159.437C892.361 159.149 892.439 158.928 892.594 158.773C892.753 158.618 892.979 158.541 893.271 158.541C893.553 158.541 893.772 158.618 893.927 158.773C894.086 158.928 894.166 159.149 894.166 159.437C894.166 159.71 894.086 159.926 893.927 160.086C893.772 160.241 893.553 160.318 893.271 160.318C892.979 160.318 892.753 160.241 892.594 160.086C892.439 159.926 892.361 159.71 892.361 159.437ZM895.595 172.363C895.112 172.363 894.711 172.306 894.392 172.192V170.921C894.701 171.003 895.018 171.044 895.342 171.044C896.025 171.044 896.367 170.657 896.367 169.882V161.439H897.974V169.991C897.974 170.771 897.769 171.361 897.358 171.762C896.953 172.163 896.365 172.363 895.595 172.363ZM896.271 159.437C896.271 159.149 896.349 158.928 896.504 158.773C896.663 158.618 896.889 158.541 897.181 158.541C897.463 158.541 897.682 158.618 897.837 158.773C897.996 158.928 898.076 159.149 898.076 159.437C898.076 159.71 897.996 159.926 897.837 160.086C897.682 160.241 897.463 160.318 897.181 160.318C896.889 160.318 896.663 160.241 896.504 160.086C896.349 159.926 896.271 159.71 896.271 159.437ZM901.884 169H900.277V161.439H901.884V169ZM900.182 159.437C900.182 159.149 900.259 158.928 900.414 158.773C900.574 158.618 900.799 158.541 901.091 158.541C901.373 158.541 901.592 158.618 901.747 158.773C901.907 158.928 901.986 159.149 901.986 159.437C901.986 159.71 901.907 159.926 901.747 160.086C901.592 160.241 901.373 160.318 901.091 160.318C900.799 160.318 900.574 160.241 900.414 160.086C900.259 159.926 900.182 159.71 900.182 159.437ZM910.839 169H909.226V164.352C909.226 163.768 909.107 163.333 908.87 163.046C908.638 162.759 908.266 162.615 907.756 162.615C907.077 162.615 906.58 162.816 906.266 163.217C905.951 163.618 905.794 164.29 905.794 165.233V169H904.188V161.439H905.445L905.671 162.431H905.753C905.981 162.071 906.304 161.793 906.724 161.597C907.143 161.401 907.608 161.303 908.118 161.303C909.932 161.303 910.839 162.226 910.839 164.071V169ZM919.459 161.439V162.321L918.167 162.561C918.285 162.72 918.383 162.916 918.461 163.148C918.538 163.381 918.577 163.627 918.577 163.887C918.577 164.666 918.308 165.279 917.771 165.726C917.233 166.172 916.492 166.396 915.549 166.396C915.307 166.396 915.089 166.377 914.893 166.341C914.546 166.555 914.373 166.806 914.373 167.093C914.373 167.266 914.453 167.396 914.612 167.482C914.776 167.569 915.075 167.612 915.508 167.612H916.827C917.661 167.612 918.295 167.79 918.728 168.146C919.16 168.501 919.377 169.014 919.377 169.684C919.377 170.54 919.024 171.201 918.317 171.666C917.611 172.131 916.59 172.363 915.255 172.363C914.225 172.363 913.439 172.181 912.896 171.816C912.354 171.452 912.083 170.932 912.083 170.258C912.083 169.793 912.229 169.401 912.521 169.082C912.817 168.768 913.229 168.549 913.758 168.426C913.544 168.335 913.366 168.189 913.225 167.988C913.088 167.783 913.02 167.569 913.02 167.346C913.02 167.063 913.099 166.824 913.259 166.628C913.418 166.432 913.655 166.238 913.97 166.047C913.578 165.878 913.259 165.605 913.013 165.227C912.771 164.844 912.65 164.397 912.65 163.887C912.65 163.066 912.908 162.431 913.423 161.979C913.942 161.528 914.681 161.303 915.638 161.303C915.852 161.303 916.075 161.319 916.308 161.351C916.545 161.378 916.722 161.408 916.841 161.439H919.459ZM913.519 170.176C913.519 170.522 913.674 170.789 913.983 170.976C914.298 171.162 914.738 171.256 915.303 171.256C916.178 171.256 916.829 171.131 917.258 170.88C917.686 170.629 917.9 170.297 917.9 169.882C917.9 169.554 917.782 169.319 917.545 169.178C917.312 169.041 916.877 168.973 916.239 168.973H915.022C914.562 168.973 914.195 169.08 913.922 169.294C913.653 169.513 913.519 169.807 913.519 170.176ZM914.209 163.887C914.209 164.361 914.33 164.725 914.571 164.98C914.817 165.236 915.168 165.363 915.624 165.363C916.554 165.363 917.019 164.867 917.019 163.873C917.019 163.381 916.902 163.003 916.67 162.738C916.442 162.469 916.093 162.335 915.624 162.335C915.159 162.335 914.806 162.467 914.564 162.731C914.327 162.996 914.209 163.381 914.209 163.887Z" fill="#333333"/>
<path d="M124.797 188L121.406 179.141H121.352C121.415 179.842 121.447 180.676 121.447 181.643V188H120.374V178.006H122.124L125.289 186.25H125.344L128.536 178.006H130.272V188H129.11V181.561C129.11 180.822 129.142 180.02 129.206 179.154H129.151L125.733 188H124.797ZM137.457 188L137.231 186.934H137.177C136.803 187.403 136.429 187.722 136.056 187.891C135.687 188.055 135.224 188.137 134.668 188.137C133.925 188.137 133.342 187.945 132.918 187.562C132.499 187.18 132.289 186.635 132.289 185.929C132.289 184.416 133.499 183.623 135.919 183.55L137.19 183.509V183.044C137.19 182.456 137.063 182.023 136.808 181.745C136.557 181.463 136.154 181.321 135.598 181.321C134.973 181.321 134.267 181.513 133.479 181.896L133.13 181.027C133.499 180.827 133.902 180.67 134.34 180.556C134.782 180.442 135.224 180.385 135.666 180.385C136.559 180.385 137.22 180.583 137.648 180.979C138.081 181.376 138.298 182.012 138.298 182.887V188H137.457ZM134.894 187.2C135.6 187.2 136.154 187.007 136.555 186.619C136.96 186.232 137.163 185.689 137.163 184.992V184.315L136.028 184.363C135.126 184.395 134.474 184.536 134.073 184.787C133.677 185.033 133.479 185.418 133.479 185.942C133.479 186.353 133.602 186.665 133.848 186.879C134.098 187.093 134.447 187.2 134.894 187.2ZM144.061 180.371C144.393 180.371 144.692 180.398 144.956 180.453L144.799 181.506C144.489 181.438 144.215 181.403 143.979 181.403C143.372 181.403 142.853 181.649 142.42 182.142C141.992 182.634 141.777 183.247 141.777 183.98V188H140.643V180.508H141.579L141.709 181.896H141.764C142.042 181.408 142.377 181.032 142.769 180.768C143.16 180.503 143.591 180.371 144.061 180.371ZM156.044 188H149.475V187.022L152.106 184.377C152.909 183.566 153.437 182.987 153.692 182.641C153.948 182.294 154.139 181.957 154.267 181.629C154.394 181.301 154.458 180.948 154.458 180.569C154.458 180.036 154.296 179.615 153.973 179.305C153.649 178.99 153.2 178.833 152.626 178.833C152.211 178.833 151.817 178.901 151.443 179.038C151.074 179.175 150.662 179.423 150.206 179.783L149.604 179.011C150.525 178.245 151.528 177.862 152.612 177.862C153.551 177.862 154.287 178.104 154.82 178.587C155.354 179.065 155.62 179.71 155.62 180.521C155.62 181.155 155.442 181.782 155.087 182.401C154.731 183.021 154.066 183.805 153.091 184.753L150.903 186.893V186.947H156.044V188ZM159.195 186.373L159.298 186.53C159.179 186.986 159.008 187.515 158.785 188.116C158.562 188.722 158.329 189.285 158.088 189.805H157.233C157.356 189.331 157.491 188.745 157.637 188.048C157.787 187.351 157.892 186.792 157.951 186.373H159.195ZM171.124 188H164.555V187.022L167.187 184.377C167.989 183.566 168.517 182.987 168.772 182.641C169.028 182.294 169.219 181.957 169.347 181.629C169.474 181.301 169.538 180.948 169.538 180.569C169.538 180.036 169.376 179.615 169.053 179.305C168.729 178.99 168.28 178.833 167.706 178.833C167.291 178.833 166.897 178.901 166.523 179.038C166.154 179.175 165.742 179.423 165.286 179.783L164.685 179.011C165.605 178.245 166.608 177.862 167.692 177.862C168.631 177.862 169.367 178.104 169.9 178.587C170.434 179.065 170.7 179.71 170.7 180.521C170.7 181.155 170.522 181.782 170.167 182.401C169.812 183.021 169.146 183.805 168.171 184.753L165.983 186.893V186.947H171.124V188ZM179.19 182.989C179.19 184.716 178.917 186.006 178.37 186.858C177.828 187.711 176.996 188.137 175.875 188.137C174.799 188.137 173.981 187.701 173.421 186.831C172.86 185.956 172.58 184.675 172.58 182.989C172.58 181.248 172.851 179.956 173.394 179.113C173.936 178.27 174.763 177.849 175.875 177.849C176.96 177.849 177.782 178.288 178.343 179.168C178.908 180.048 179.19 181.321 179.19 182.989ZM173.729 182.989C173.729 184.443 173.899 185.503 174.241 186.168C174.583 186.829 175.128 187.159 175.875 187.159C176.632 187.159 177.178 186.824 177.516 186.154C177.857 185.48 178.028 184.425 178.028 182.989C178.028 181.554 177.857 180.503 177.516 179.838C177.178 179.168 176.632 178.833 175.875 178.833C175.128 178.833 174.583 179.163 174.241 179.824C173.899 180.48 173.729 181.535 173.729 182.989ZM184.782 188H183.675V180.877C183.675 180.285 183.693 179.724 183.729 179.195C183.634 179.291 183.527 179.391 183.408 179.496C183.29 179.601 182.747 180.045 181.781 180.829L181.18 180.05L183.825 178.006H184.782V188ZM195.159 182.271C195.159 186.182 193.646 188.137 190.62 188.137C190.091 188.137 189.672 188.091 189.362 188V187.022C189.727 187.141 190.142 187.2 190.606 187.2C191.7 187.2 192.525 186.863 193.081 186.188C193.642 185.509 193.947 184.47 193.997 183.071H193.915C193.664 183.45 193.332 183.739 192.917 183.939C192.502 184.135 192.035 184.233 191.516 184.233C190.632 184.233 189.93 183.969 189.41 183.44C188.891 182.912 188.631 182.174 188.631 181.226C188.631 180.187 188.92 179.366 189.499 178.765C190.082 178.163 190.848 177.862 191.796 177.862C192.475 177.862 193.067 178.038 193.573 178.389C194.084 178.735 194.476 179.243 194.749 179.913C195.022 180.578 195.159 181.365 195.159 182.271ZM191.796 178.833C191.144 178.833 190.641 179.043 190.285 179.462C189.93 179.881 189.752 180.465 189.752 181.212C189.752 181.868 189.916 182.385 190.244 182.764C190.572 183.137 191.071 183.324 191.741 183.324C192.156 183.324 192.536 183.24 192.883 183.071C193.234 182.903 193.509 182.673 193.71 182.381C193.91 182.089 194.011 181.784 194.011 181.465C194.011 180.986 193.917 180.544 193.73 180.139C193.544 179.733 193.282 179.414 192.944 179.182C192.612 178.949 192.229 178.833 191.796 178.833Z" fill="#666666"/>
<path d="M156.5 133C160.642 133 164 129.642 164 125.5C164 121.358 160.642 118 156.5 118C152.358 118 149 121.358 149 125.5C149 129.642 152.358 133 156.5 133Z" fill="white" stroke="white" stroke-width="2"/>
<path d="M161.087 122.059L154.78 128.367L151.913 125.5" stroke="#008737" stroke-width="2" stroke-linecap="round" stroke-linejoin="round"/>
<defs>
<filter id="filter0_d" x="61" y="36" width="914" height="240" filterUnits="userSpaceOnUse" color-interpolation-filters="sRGB">
<feFlood flood-opacity="0" result="BackgroundImageFix"/>
<feColorMatrix in="SourceAlpha" type="matrix" values="0 0 0 0 0 0 0 0 0 0 0 0 0 0 0 0 0 0 127 0"/>
<feOffset dy="2"/>
<feGaussianBlur stdDeviation="10"/>
<feColorMatrix type="matrix" values="0 0 0 0 0.815686 0 0 0 0 0.823529 0 0 0 0 0.835294 0 0 0 1 0"/>
<feBlend mode="normal" in2="BackgroundImageFix" result="effect1_dropShadow"/>
<feBlend mode="normal" in="SourceGraphic" in2="effect1_dropShadow" result="shape"/>
</filter>
</defs>
</svg>
