<svg width="939" height="705" viewBox="0 0 939 705" fill="none" xmlns="http://www.w3.org/2000/svg">
<rect width="939" height="705" fill="#E2E8F0"/>
<g clip-path="url(#clip0_21_16542)">
<path d="M194 115C194 108.373 199.373 103 206 103H734C740.627 103 746 108.373 746 115V590C746 596.627 740.627 602 734 602H206C199.373 602 194 596.627 194 590V115Z" fill="white"/>
<rect width="552" height="80" transform="translate(194 103)" fill="#EDC568"/>
<path d="M247 156H229C228.65 156 228.32 155.82 228.14 155.52C227.96 155.22 227.95 154.85 228.11 154.54L237.12 137.53C237.47 136.88 238.54 136.88 238.89 137.53L247.89 154.53C248.05 154.84 248.04 155.21 247.86 155.51C247.68 155.81 247.35 155.99 247 155.99V156ZM230.66 154H245.34L238 140.14L230.66 154ZM239 145H237V149H239V145ZM238 150C237.31 150 236.75 150.56 236.75 151.25C236.75 151.94 237.31 152.5 238 152.5C238.69 152.5 239.25 151.94 239.25 151.25C239.25 150.56 238.69 150 238 150Z" fill="black"/>
<path d="M259.184 153V141.8H263.312C265.792 141.8 267.056 143.256 267.056 145.176C267.056 146.392 266.528 147.496 265.408 148.104L267.44 153H264.72L263.072 148.584H261.664V153H259.184ZM261.664 146.504H263.28C264.16 146.504 264.64 145.976 264.64 145.288C264.64 144.584 264.16 144.056 263.312 144.056H261.664V146.504ZM272.158 153.176C269.726 153.176 267.902 151.4 267.902 149C267.902 146.6 269.662 144.808 272.03 144.808C274.43 144.808 276.078 146.584 276.078 148.968C276.078 149.24 276.062 149.448 276.046 149.64H270.35C270.574 150.52 271.246 151.016 272.174 151.016C272.878 151.016 273.438 150.728 273.838 150.184L275.566 151.528C274.718 152.68 273.534 153.176 272.158 153.176ZM270.35 148.136H273.71C273.518 147.32 272.942 146.808 272.062 146.808C271.214 146.808 270.59 147.304 270.35 148.136ZM277.46 155.96V144.984H279.652V145.704C280.132 145.176 280.964 144.808 281.924 144.808C284.084 144.808 285.908 146.552 285.908 148.984C285.908 151.416 284.084 153.16 281.924 153.16C281.124 153.16 280.388 152.904 279.86 152.456V155.96H277.46ZM281.62 150.984C282.708 150.984 283.476 150.152 283.476 148.984C283.476 147.832 282.708 147 281.62 147C280.548 147 279.78 147.832 279.78 148.984C279.78 150.168 280.548 150.984 281.62 150.984ZM291.111 153.176C288.711 153.176 286.855 151.416 286.855 149C286.855 146.584 288.711 144.808 291.111 144.808C293.543 144.808 295.399 146.568 295.399 149C295.399 151.432 293.543 153.176 291.111 153.176ZM291.111 150.984C292.183 150.984 292.983 150.152 292.983 149C292.983 147.832 292.183 146.984 291.111 146.984C290.055 146.984 289.271 147.816 289.271 149C289.271 150.152 290.055 150.984 291.111 150.984ZM296.819 153V144.984H299.091V145.896C299.587 145.256 300.307 144.872 301.395 144.872H301.475V147.176H301.331C300.435 147.176 299.155 147.384 299.155 149.704V153H296.819ZM306.149 153.064C304.421 153.064 303.221 152.312 303.221 150.12V147.064H302.293V144.984H303.221V143.368L305.557 142.68V144.984H306.789V147.064H305.557V150.12C305.557 150.744 305.845 150.984 306.485 150.984H306.885V153.064H306.149ZM315.118 153.064C313.39 153.064 312.19 152.312 312.19 150.12V147.064H311.262V144.984H312.19V143.368L314.526 142.68V144.984H315.758V147.064H314.526V150.12C314.526 150.744 314.814 150.984 315.454 150.984H315.854V153.064H315.118ZM317.35 153V141.8H319.734V145.56C320.198 145.096 320.87 144.808 321.702 144.808C323.43 144.808 324.822 146.04 324.822 148.088V153H322.422V148.552C322.422 147.624 321.926 147.032 321.094 147.032C320.262 147.032 319.734 147.624 319.734 148.552V153H317.35ZM326.616 153V144.984H329V153H326.616ZM327.8 144.28C327.048 144.28 326.424 143.656 326.424 142.904C326.424 142.168 327.048 141.544 327.8 141.544C328.552 141.544 329.16 142.168 329.16 142.904C329.16 143.656 328.552 144.28 327.8 144.28ZM333.554 153.176C331.794 153.176 330.594 152.2 330.45 150.472H332.69C332.722 150.968 333.042 151.336 333.602 151.336C334.066 151.336 334.322 151.08 334.322 150.744C334.322 150.328 333.97 150.12 332.77 149.832C331.522 149.544 330.514 148.76 330.514 147.32C330.514 145.848 331.746 144.808 333.49 144.808C335.138 144.808 336.338 145.688 336.466 147.416H334.29C334.226 146.904 333.938 146.632 333.474 146.632C333.01 146.632 332.786 146.904 332.786 147.192C332.786 147.592 333.058 147.784 334.338 148.104C335.618 148.424 336.578 149.272 336.578 150.6C336.578 152.184 335.362 153.176 333.554 153.176ZM348.711 144.984V153H346.439V152.296C345.991 152.808 345.271 153.176 344.359 153.176C342.631 153.176 341.239 151.944 341.239 149.896V144.984H343.639V149.432C343.639 150.36 344.135 150.952 344.967 150.952C345.799 150.952 346.327 150.36 346.327 149.432V144.984H348.711ZM353.272 153.176C351.512 153.176 350.312 152.2 350.168 150.472H352.408C352.44 150.968 352.76 151.336 353.32 151.336C353.784 151.336 354.04 151.08 354.04 150.744C354.04 150.328 353.688 150.12 352.488 149.832C351.24 149.544 350.232 148.76 350.232 147.32C350.232 145.848 351.464 144.808 353.208 144.808C354.856 144.808 356.056 145.688 356.184 147.416H354.008C353.944 146.904 353.656 146.632 353.192 146.632C352.728 146.632 352.504 146.904 352.504 147.192C352.504 147.592 352.776 147.784 354.056 148.104C355.336 148.424 356.296 149.272 356.296 150.6C356.296 152.184 355.08 153.176 353.272 153.176ZM361.517 153.176C359.085 153.176 357.261 151.4 357.261 149C357.261 146.6 359.021 144.808 361.389 144.808C363.789 144.808 365.437 146.584 365.437 148.968C365.437 149.24 365.421 149.448 365.405 149.64H359.709C359.933 150.52 360.605 151.016 361.533 151.016C362.237 151.016 362.797 150.728 363.197 150.184L364.925 151.528C364.077 152.68 362.893 153.176 361.517 153.176ZM359.709 148.136H363.069C362.877 147.32 362.301 146.808 361.421 146.808C360.573 146.808 359.949 147.304 359.709 148.136ZM366.819 153V144.984H369.091V145.896C369.587 145.256 370.307 144.872 371.395 144.872H371.475V147.176H371.331C370.435 147.176 369.155 147.384 369.155 149.704V153H366.819ZM375.199 148.136C375.199 147.208 375.567 146.728 376.287 146.392C377.103 146.04 377.535 145.688 377.535 144.936C377.535 144.248 377.007 143.752 376.255 143.752C375.439 143.752 374.863 144.28 374.831 145.272H372.351C372.431 142.968 373.919 141.624 376.191 141.624C378.575 141.624 379.967 143.016 379.967 145.048C379.967 146.936 378.543 147.8 377.119 148.312V149.24H375.199V148.136ZM376.159 153.176C375.279 153.176 374.591 152.472 374.591 151.608C374.591 150.744 375.279 150.04 376.159 150.04C377.039 150.04 377.727 150.744 377.727 151.608C377.727 152.472 377.039 153.176 376.159 153.176Z" fill="black"/>
<path d="M732.59 115L726 121.59L719.41 115L718 116.41L724.59 123L718 129.59L719.41 131L726 124.41L732.59 131L734 129.59L727.41 123L734 116.41L732.59 115Z" fill="#1B1B21"/>
<path d="M228.982 222V213.446H226.238V212.2H233.098V213.446H230.354V222H228.982ZM234.31 222V212.2H235.612V215.7C236.004 215.182 236.718 214.832 237.53 214.832C239.112 214.832 240.33 215.966 240.33 217.73V222H239.014V217.926C239.014 216.778 238.314 216.036 237.334 216.036C236.34 216.036 235.612 216.778 235.612 217.926V222H234.31ZM245.331 222.154C243.469 222.154 241.831 220.614 241.831 218.5C241.831 216.372 243.469 214.832 245.331 214.832C246.339 214.832 247.151 215.252 247.655 215.854V214.986H248.915V222H247.655V221.118C247.151 221.72 246.339 222.154 245.331 222.154ZM245.443 220.95C246.759 220.95 247.697 219.928 247.697 218.5C247.697 217.072 246.759 216.036 245.443 216.036C244.127 216.036 243.189 217.072 243.189 218.5C243.189 219.928 244.127 220.95 245.443 220.95ZM251.003 222V214.986H252.263V215.756C252.655 215.21 253.383 214.832 254.223 214.832C255.805 214.832 257.023 215.966 257.023 217.73V222H255.707V217.926C255.707 216.778 255.007 216.036 254.027 216.036C253.033 216.036 252.305 216.778 252.305 217.926V222H251.003ZM263.327 222L260.317 218.542V222H259.015V212.2H260.317V218.052L263.257 214.986H264.909L261.689 218.276L265.035 222H263.327ZM269.128 224.59L270.5 221.328L267.91 214.986H269.352L271.186 219.858L273.09 214.986H274.434L270.514 224.59H269.128ZM278.57 222.154C276.526 222.154 274.958 220.628 274.958 218.5C274.958 216.372 276.526 214.832 278.57 214.832C280.614 214.832 282.182 216.372 282.182 218.5C282.182 220.628 280.614 222.154 278.57 222.154ZM278.57 220.95C279.886 220.95 280.824 219.928 280.824 218.5C280.824 217.072 279.886 216.036 278.57 216.036C277.254 216.036 276.316 217.072 276.316 218.5C276.316 219.928 277.254 220.95 278.57 220.95ZM289.696 214.986V222H288.436V221.23C288.044 221.776 287.316 222.154 286.476 222.154C284.894 222.154 283.676 221.02 283.676 219.256V214.986H284.992V219.06C284.992 220.208 285.692 220.95 286.672 220.95C287.666 220.95 288.394 220.208 288.394 219.06V214.986H289.696ZM295.335 214.132C295.335 212.62 296.259 212.116 297.603 212.116H298.233L297.897 213.306H297.631C296.931 213.306 296.637 213.544 296.637 214.23V214.986H297.897V216.134H296.637V222H295.335V216.134H294.453V214.986H295.335V214.132ZM302.223 222.154C300.179 222.154 298.611 220.628 298.611 218.5C298.611 216.372 300.179 214.832 302.223 214.832C304.267 214.832 305.835 216.372 305.835 218.5C305.835 220.628 304.267 222.154 302.223 222.154ZM302.223 220.95C303.539 220.95 304.477 219.928 304.477 218.5C304.477 217.072 303.539 216.036 302.223 216.036C300.907 216.036 299.969 217.072 299.969 218.5C299.969 219.928 300.907 220.95 302.223 220.95ZM307.441 222V214.986H308.701V216.008C309.107 215.322 309.835 214.888 310.899 214.888H310.941V216.19H310.871C309.751 216.19 308.743 216.694 308.743 218.668V222H307.441ZM317.602 222.056C316.314 222.056 315.488 221.51 315.488 219.97V216.134H314.494V214.986H315.488V213.432L316.804 213.04V214.986H318.134V216.134H316.804V219.97C316.804 220.656 317.084 220.908 317.798 220.908H318.148V222.056H317.602ZM322.564 222.154C320.702 222.154 319.064 220.614 319.064 218.5C319.064 216.372 320.702 214.832 322.564 214.832C323.572 214.832 324.384 215.252 324.888 215.854V214.986H326.148V222H324.888V221.118C324.384 221.72 323.572 222.154 322.564 222.154ZM322.676 220.95C323.992 220.95 324.93 219.928 324.93 218.5C324.93 217.072 323.992 216.036 322.676 216.036C321.36 216.036 320.422 217.072 320.422 218.5C320.422 219.928 321.36 220.95 322.676 220.95ZM332.548 222L329.538 218.542V222H328.236V212.2H329.538V218.052L332.478 214.986H334.13L330.91 218.276L334.256 222H332.548ZM335.29 222V214.986H336.592V222H335.29ZM335.934 213.894C335.444 213.894 335.038 213.488 335.038 212.998C335.038 212.494 335.444 212.088 335.934 212.088C336.438 212.088 336.844 212.494 336.844 212.998C336.844 213.488 336.438 213.894 335.934 213.894ZM338.695 222V214.986H339.955V215.756C340.347 215.21 341.075 214.832 341.915 214.832C343.497 214.832 344.715 215.966 344.715 217.73V222H343.399V217.926C343.399 216.778 342.699 216.036 341.719 216.036C340.725 216.036 339.997 216.778 339.997 217.926V222H338.695ZM349.884 224.744C347.854 224.744 346.762 223.568 346.482 222.126H347.938C348.218 223.12 348.946 223.582 349.996 223.582C351.116 223.582 351.942 222.91 351.942 221.72V220.418C351.886 220.502 351.816 220.572 351.746 220.642C351.172 221.244 350.402 221.552 349.492 221.552C347.616 221.552 346.23 220.082 346.23 218.192C346.23 216.302 347.658 214.832 349.534 214.832C350.556 214.832 351.424 215.266 351.928 215.91C351.97 215.966 352.012 216.008 352.04 216.064V214.986H353.258V221.566C353.258 223.54 351.914 224.744 349.884 224.744ZM349.758 220.39C351.06 220.39 351.956 219.424 351.956 218.206C351.956 216.988 351.06 216.022 349.758 216.022C348.47 216.022 347.56 216.96 347.56 218.192C347.56 219.438 348.47 220.39 349.758 220.39ZM361.024 222.056C359.736 222.056 358.91 221.51 358.91 219.97V216.134H357.916V214.986H358.91V213.432L360.226 213.04V214.986H361.556V216.134H360.226V219.97C360.226 220.656 360.506 220.908 361.22 220.908H361.57V222.056H361.024ZM363.126 222V212.2H364.428V215.7C364.82 215.182 365.534 214.832 366.346 214.832C367.928 214.832 369.146 215.966 369.146 217.73V222H367.83V217.926C367.83 216.778 367.13 216.036 366.15 216.036C365.156 216.036 364.428 216.778 364.428 217.926V222H363.126ZM374.246 222.154C372.202 222.154 370.662 220.628 370.662 218.5C370.662 216.372 372.146 214.832 374.134 214.832C376.192 214.832 377.55 216.372 377.55 218.444C377.55 218.598 377.55 218.71 377.536 218.878H371.992C372.146 220.124 373.042 220.95 374.274 220.95C375.128 220.95 375.716 220.572 376.15 219.9L377.172 220.642C376.458 221.678 375.52 222.154 374.246 222.154ZM372.02 217.842H376.206C376.052 216.722 375.296 215.966 374.148 215.966C373.07 215.966 372.244 216.68 372.02 217.842ZM384.786 222.056C383.498 222.056 382.672 221.51 382.672 219.97V216.134H381.678V214.986H382.672V213.432L383.988 213.04V214.986H385.318V216.134H383.988V219.97C383.988 220.656 384.268 220.908 384.982 220.908H385.332V222.056H384.786ZM386.888 222V214.986H388.19V222H386.888ZM387.532 213.894C387.042 213.894 386.636 213.488 386.636 212.998C386.636 212.494 387.042 212.088 387.532 212.088C388.036 212.088 388.442 212.494 388.442 212.998C388.442 213.488 388.036 213.894 387.532 213.894ZM390.292 222V214.986H391.552V215.756C391.944 215.182 392.588 214.832 393.358 214.832C394.198 214.832 394.926 215.224 395.318 215.924C395.766 215.252 396.494 214.832 397.404 214.832C398.916 214.832 399.924 215.882 399.924 217.408V222H398.608V217.674C398.608 216.694 398.09 216.036 397.208 216.036C396.312 216.036 395.752 216.694 395.752 217.688V222H394.45V217.688C394.45 216.694 393.904 216.036 393.022 216.036C392.126 216.036 391.594 216.694 391.594 217.688V222H390.292ZM405.035 222.154C402.991 222.154 401.451 220.628 401.451 218.5C401.451 216.372 402.935 214.832 404.923 214.832C406.981 214.832 408.339 216.372 408.339 218.444C408.339 218.598 408.339 218.71 408.325 218.878H402.781C402.935 220.124 403.831 220.95 405.063 220.95C405.917 220.95 406.505 220.572 406.939 219.9L407.961 220.642C407.247 221.678 406.309 222.154 405.035 222.154ZM402.809 217.842H406.995C406.841 216.722 406.085 215.966 404.937 215.966C403.859 215.966 403.033 216.68 402.809 217.842ZM415.575 222.056C414.287 222.056 413.461 221.51 413.461 219.97V216.134H412.467V214.986H413.461V213.432L414.777 213.04V214.986H416.107V216.134H414.777V219.97C414.777 220.656 415.057 220.908 415.771 220.908H416.121V222.056H415.575ZM420.662 222.154C418.618 222.154 417.05 220.628 417.05 218.5C417.05 216.372 418.618 214.832 420.662 214.832C422.706 214.832 424.274 216.372 424.274 218.5C424.274 220.628 422.706 222.154 420.662 222.154ZM420.662 220.95C421.978 220.95 422.916 219.928 422.916 218.5C422.916 217.072 421.978 216.036 420.662 216.036C419.346 216.036 418.408 217.072 418.408 218.5C418.408 219.928 419.346 220.95 420.662 220.95ZM429.079 222V212.2H430.381V215.7C430.773 215.182 431.487 214.832 432.299 214.832C433.881 214.832 435.099 215.966 435.099 217.73V222H433.783V217.926C433.783 216.778 433.083 216.036 432.103 216.036C431.109 216.036 430.381 216.778 430.381 217.926V222H429.079ZM440.199 222.154C438.155 222.154 436.615 220.628 436.615 218.5C436.615 216.372 438.099 214.832 440.087 214.832C442.145 214.832 443.503 216.372 443.503 218.444C443.503 218.598 443.503 218.71 443.489 218.878H437.945C438.099 220.124 438.995 220.95 440.227 220.95C441.081 220.95 441.669 220.572 442.103 219.9L443.125 220.642C442.411 221.678 441.473 222.154 440.199 222.154ZM437.973 217.842H442.159C442.005 216.722 441.249 215.966 440.101 215.966C439.023 215.966 438.197 216.68 437.973 217.842ZM445.062 222V212.2H446.364V222H445.062ZM448.466 224.59V214.986H449.712V215.868C450.216 215.266 451.028 214.832 452.05 214.832C453.898 214.832 455.536 216.372 455.536 218.486C455.536 220.614 453.898 222.154 452.05 222.154C451.098 222.154 450.3 221.762 449.782 221.202V224.59H448.466ZM451.924 220.95C453.254 220.95 454.192 219.914 454.192 218.486C454.192 217.058 453.254 216.036 451.924 216.036C450.608 216.036 449.67 217.058 449.67 218.486C449.67 219.914 450.608 220.95 451.924 220.95ZM464.659 222L461.649 218.542V222H460.347V212.2H461.649V218.052L464.589 214.986H466.241L463.021 218.276L466.367 222H464.659ZM470.099 222.154C468.055 222.154 466.515 220.628 466.515 218.5C466.515 216.372 467.999 214.832 469.987 214.832C472.045 214.832 473.403 216.372 473.403 218.444C473.403 218.598 473.403 218.71 473.389 218.878H467.845C467.999 220.124 468.895 220.95 470.127 220.95C470.981 220.95 471.569 220.572 472.003 219.9L473.025 220.642C472.311 221.678 471.373 222.154 470.099 222.154ZM467.873 217.842H472.059C471.905 216.722 471.149 215.966 470.001 215.966C468.923 215.966 468.097 216.68 467.873 217.842ZM478.07 222.154C476.026 222.154 474.486 220.628 474.486 218.5C474.486 216.372 475.97 214.832 477.958 214.832C480.016 214.832 481.374 216.372 481.374 218.444C481.374 218.598 481.374 218.71 481.36 218.878H475.816C475.97 220.124 476.866 220.95 478.098 220.95C478.952 220.95 479.54 220.572 479.974 219.9L480.996 220.642C480.282 221.678 479.344 222.154 478.07 222.154ZM475.844 217.842H480.03C479.876 216.722 479.12 215.966 477.972 215.966C476.894 215.966 476.068 216.68 475.844 217.842ZM482.933 224.59V214.986H484.179V215.868C484.683 215.266 485.495 214.832 486.517 214.832C488.365 214.832 490.003 216.372 490.003 218.486C490.003 220.614 488.365 222.154 486.517 222.154C485.565 222.154 484.767 221.762 484.249 221.202V224.59H482.933ZM486.391 220.95C487.721 220.95 488.659 219.914 488.659 218.486C488.659 217.058 487.721 216.036 486.391 216.036C485.075 216.036 484.137 217.058 484.137 218.486C484.137 219.914 485.075 220.95 486.391 220.95ZM500.064 222.07C499.462 222.07 499.168 221.678 498.986 221.118L496.312 213.39V222H494.996V213.488C494.996 212.634 495.528 212.13 496.228 212.13C496.886 212.13 497.306 212.508 497.572 213.334L500.078 220.712L502.64 213.334C502.92 212.508 503.312 212.13 503.984 212.13C504.684 212.13 505.188 212.634 505.188 213.488V222H503.858V213.488L501.114 221.118C500.932 221.664 500.666 222.07 500.064 222.07ZM510.404 222.154C508.36 222.154 506.792 220.628 506.792 218.5C506.792 216.372 508.36 214.832 510.404 214.832C512.448 214.832 514.016 216.372 514.016 218.5C514.016 220.628 512.448 222.154 510.404 222.154ZM510.404 220.95C511.72 220.95 512.658 219.928 512.658 218.5C512.658 217.072 511.72 216.036 510.404 216.036C509.088 216.036 508.15 217.072 508.15 218.5C508.15 219.928 509.088 220.95 510.404 220.95ZM519.206 222.154C518.184 222.154 517.372 221.72 516.868 221.118V222H515.622V212.2H516.938V215.784C517.456 215.224 518.254 214.832 519.206 214.832C521.054 214.832 522.692 216.372 522.692 218.5C522.692 220.614 521.054 222.154 519.206 222.154ZM519.08 220.95C520.41 220.95 521.348 219.928 521.348 218.5C521.348 217.072 520.41 216.036 519.08 216.036C517.764 216.036 516.826 217.072 516.826 218.5C516.826 219.928 517.764 220.95 519.08 220.95ZM524.304 222V214.986H525.606V222H524.304ZM524.948 213.894C524.458 213.894 524.052 213.488 524.052 212.998C524.052 212.494 524.458 212.088 524.948 212.088C525.452 212.088 525.858 212.494 525.858 212.998C525.858 213.488 525.452 213.894 524.948 213.894ZM527.708 222V212.2H529.01V222H527.708ZM534.221 222.154C532.177 222.154 530.637 220.628 530.637 218.5C530.637 216.372 532.12 214.832 534.109 214.832C536.167 214.832 537.525 216.372 537.525 218.444C537.525 218.598 537.525 218.71 537.511 218.878H531.967C532.12 220.124 533.017 220.95 534.249 220.95C535.103 220.95 535.691 220.572 536.125 219.9L537.147 220.642C536.433 221.678 535.495 222.154 534.221 222.154ZM531.995 217.842H536.181C536.027 216.722 535.271 215.966 534.123 215.966C533.045 215.966 532.219 216.68 531.995 217.842ZM539.564 222.154C538.99 222.154 538.542 221.706 538.542 221.132C538.542 220.572 538.99 220.11 539.564 220.11C540.138 220.11 540.586 220.572 540.586 221.132C540.586 221.706 540.138 222.154 539.564 222.154ZM545.033 222.154C543.171 222.154 541.533 220.614 541.533 218.5C541.533 216.372 543.171 214.832 545.033 214.832C545.999 214.832 546.797 215.224 547.301 215.798V212.2H548.617V222H547.357V221.118C546.853 221.72 546.041 222.154 545.033 222.154ZM545.145 220.95C546.461 220.95 547.399 219.928 547.399 218.5C547.399 217.072 546.461 216.036 545.145 216.036C543.829 216.036 542.891 217.072 542.891 218.5C542.891 219.928 543.829 220.95 545.145 220.95ZM553.812 222.154C551.768 222.154 550.228 220.628 550.228 218.5C550.228 216.372 551.712 214.832 553.7 214.832C555.758 214.832 557.116 216.372 557.116 218.444C557.116 218.598 557.116 218.71 557.102 218.878H551.558C551.712 220.124 552.608 220.95 553.84 220.95C554.694 220.95 555.282 220.572 555.716 219.9L556.738 220.642C556.024 221.678 555.086 222.154 553.812 222.154ZM551.586 217.842H555.772C555.618 216.722 554.862 215.966 553.714 215.966C552.636 215.966 551.81 216.68 551.586 217.842ZM563.918 222.154C562.504 222.154 561.454 221.384 561.314 219.97H562.644C562.728 220.684 563.246 221.076 563.96 221.076C564.632 221.076 565.108 220.712 565.108 220.166C565.108 219.494 564.604 219.256 563.414 218.934C562.224 218.612 561.51 217.954 561.51 216.82C561.51 215.658 562.504 214.832 563.876 214.832C565.206 214.832 566.2 215.518 566.312 216.876H564.996C564.898 216.218 564.45 215.91 563.848 215.91C563.218 215.91 562.784 216.26 562.784 216.75C562.784 217.296 563.162 217.548 564.352 217.87C565.514 218.178 566.382 218.864 566.382 220.068C566.382 221.314 565.402 222.154 563.918 222.154ZM571.023 222.154C569.161 222.154 567.523 220.614 567.523 218.5C567.523 216.372 569.161 214.832 571.023 214.832C572.031 214.832 572.843 215.252 573.347 215.854V214.986H574.607V222H573.347V221.118C572.843 221.72 572.031 222.154 571.023 222.154ZM571.135 220.95C572.451 220.95 573.389 219.928 573.389 218.5C573.389 217.072 572.451 216.036 571.135 216.036C569.819 216.036 568.881 217.072 568.881 218.5C568.881 219.928 569.819 220.95 571.135 220.95ZM577.031 214.132C577.031 212.62 577.955 212.116 579.299 212.116H579.929L579.593 213.306H579.327C578.627 213.306 578.333 213.544 578.333 214.23V214.986H579.593V216.134H578.333V222H577.031V216.134H576.149V214.986H577.031V214.132ZM583.904 222.154C581.86 222.154 580.32 220.628 580.32 218.5C580.32 216.372 581.804 214.832 583.792 214.832C585.85 214.832 587.208 216.372 587.208 218.444C587.208 218.598 587.208 218.71 587.194 218.878H581.65C581.804 220.124 582.7 220.95 583.932 220.95C584.786 220.95 585.374 220.572 585.808 219.9L586.83 220.642C586.116 221.678 585.178 222.154 583.904 222.154ZM581.678 217.842H585.864C585.71 216.722 584.954 215.966 583.806 215.966C582.728 215.966 581.902 216.68 581.678 217.842ZM589.247 222.154C588.673 222.154 588.225 221.706 588.225 221.132C588.225 220.572 588.673 220.11 589.247 220.11C589.821 220.11 590.269 220.572 590.269 221.132C590.269 221.706 589.821 222.154 589.247 222.154ZM596.795 222V218.052L593.463 212.2H595.003L597.495 216.722L599.987 212.2H601.471L598.181 218.08V222H596.795ZM604.385 222.154C602.341 222.154 600.773 220.628 600.773 218.5C600.773 216.372 602.341 214.832 604.385 214.832C606.429 214.832 607.997 216.372 607.997 218.5C607.997 220.628 606.429 222.154 604.385 222.154ZM604.385 220.95C605.701 220.95 606.639 219.928 606.639 218.5C606.639 217.072 605.701 216.036 604.385 216.036C603.069 216.036 602.131 217.072 602.131 218.5C602.131 219.928 603.069 220.95 604.385 220.95ZM615.511 214.986V222H614.251V221.23C613.859 221.776 613.131 222.154 612.291 222.154C610.709 222.154 609.491 221.02 609.491 219.256V214.986H610.807V219.06C610.807 220.208 611.507 220.95 612.487 220.95C613.481 220.95 614.209 220.208 614.209 219.06V214.986H615.511ZM617.614 222V214.986H618.874V216.008C619.28 215.322 620.008 214.888 621.072 214.888H621.114V216.19H621.044C619.924 216.19 618.916 216.694 618.916 218.668V222H617.614ZM625.298 222V214.986H626.558V216.008C626.964 215.322 627.692 214.888 628.756 214.888H628.798V216.19H628.728C627.608 216.19 626.6 216.694 626.6 218.668V222H625.298ZM632.959 222.154C630.915 222.154 629.375 220.628 629.375 218.5C629.375 216.372 630.859 214.832 632.847 214.832C634.905 214.832 636.263 216.372 636.263 218.444C636.263 218.598 636.263 218.71 636.249 218.878H630.705C630.859 220.124 631.755 220.95 632.987 220.95C633.841 220.95 634.429 220.572 634.863 219.9L635.885 220.642C635.171 221.678 634.233 222.154 632.959 222.154ZM630.733 217.842H634.919C634.765 216.722 634.009 215.966 632.861 215.966C631.783 215.966 630.957 216.68 630.733 217.842ZM637.821 224.59V214.986H639.067V215.868C639.571 215.266 640.383 214.832 641.405 214.832C643.253 214.832 644.891 216.372 644.891 218.486C644.891 220.614 643.253 222.154 641.405 222.154C640.453 222.154 639.655 221.762 639.137 221.202V224.59H637.821ZM641.279 220.95C642.609 220.95 643.547 219.914 643.547 218.486C643.547 217.058 642.609 216.036 641.279 216.036C639.963 216.036 639.025 217.058 639.025 218.486C639.025 219.914 639.963 220.95 641.279 220.95ZM649.625 222.154C647.581 222.154 646.013 220.628 646.013 218.5C646.013 216.372 647.581 214.832 649.625 214.832C651.669 214.832 653.237 216.372 653.237 218.5C653.237 220.628 651.669 222.154 649.625 222.154ZM649.625 220.95C650.941 220.95 651.879 219.928 651.879 218.5C651.879 217.072 650.941 216.036 649.625 216.036C648.309 216.036 647.371 217.072 647.371 218.5C647.371 219.928 648.309 220.95 649.625 220.95ZM654.843 222V214.986H656.103V216.008C656.509 215.322 657.237 214.888 658.301 214.888H658.343V216.19H658.273C657.153 216.19 656.145 216.694 656.145 218.668V222H654.843ZM662.147 222.056C660.859 222.056 660.033 221.51 660.033 219.97V216.134H659.039V214.986H660.033V213.432L661.349 213.04V214.986H662.679V216.134H661.349V219.97C661.349 220.656 661.629 220.908 662.343 220.908H662.693V222.056H662.147ZM669.926 222.056C668.638 222.056 667.812 221.51 667.812 219.97V216.134H666.818V214.986H667.812V213.432L669.128 213.04V214.986H670.458V216.134H669.128V219.97C669.128 220.656 669.408 220.908 670.122 220.908H670.472V222.056H669.926ZM675.014 222.154C672.97 222.154 671.402 220.628 671.402 218.5C671.402 216.372 672.97 214.832 675.014 214.832C677.058 214.832 678.626 216.372 678.626 218.5C678.626 220.628 677.058 222.154 675.014 222.154ZM675.014 220.95C676.33 220.95 677.268 219.928 677.268 218.5C677.268 217.072 676.33 216.036 675.014 216.036C673.698 216.036 672.76 217.072 672.76 218.5C672.76 219.928 673.698 220.95 675.014 220.95ZM689.339 214.986V222H688.079V221.23C687.687 221.776 686.959 222.154 686.119 222.154C684.537 222.154 683.319 221.02 683.319 219.256V214.986H684.635V219.06C684.635 220.208 685.335 220.95 686.315 220.95C687.309 220.95 688.037 220.208 688.037 219.06V214.986H689.339ZM693.487 222.154C692.073 222.154 691.023 221.384 690.883 219.97H692.213C692.297 220.684 692.815 221.076 693.529 221.076C694.201 221.076 694.677 220.712 694.677 220.166C694.677 219.494 694.173 219.256 692.983 218.934C691.793 218.612 691.079 217.954 691.079 216.82C691.079 215.658 692.073 214.832 693.445 214.832C694.775 214.832 695.769 215.518 695.881 216.876H694.565C694.467 216.218 694.019 215.91 693.417 215.91C692.787 215.91 692.353 216.26 692.353 216.75C692.353 217.296 692.731 217.548 693.921 217.87C695.083 218.178 695.951 218.864 695.951 220.068C695.951 221.314 694.971 222.154 693.487 222.154ZM700.78 222V214.986H702.082V222H700.78ZM701.424 213.894C700.934 213.894 700.528 213.488 700.528 212.998C700.528 212.494 700.934 212.088 701.424 212.088C701.928 212.088 702.334 212.494 702.334 212.998C702.334 213.488 701.928 213.894 701.424 213.894ZM706.229 222.154C704.815 222.154 703.765 221.384 703.625 219.97H704.955C705.039 220.684 705.557 221.076 706.271 221.076C706.943 221.076 707.419 220.712 707.419 220.166C707.419 219.494 706.915 219.256 705.725 218.934C704.535 218.612 703.821 217.954 703.821 216.82C703.821 215.658 704.815 214.832 706.187 214.832C707.517 214.832 708.511 215.518 708.623 216.876H707.307C707.209 216.218 706.761 215.91 706.159 215.91C705.529 215.91 705.095 216.26 705.095 216.75C705.095 217.296 705.473 217.548 706.663 217.87C707.825 218.178 708.693 218.864 708.693 220.068C708.693 221.314 707.713 222.154 706.229 222.154ZM230.2 242.154C228.142 242.154 226.56 240.614 226.56 238.486C226.56 236.358 228.156 234.832 230.2 234.832C231.684 234.832 232.86 235.672 233.42 236.932L232.23 237.464C231.908 236.582 231.194 236.036 230.228 236.036C228.926 236.036 227.96 237.044 227.96 238.472C227.96 239.9 228.926 240.95 230.242 240.95C231.32 240.95 231.978 240.306 232.286 239.424L233.462 239.872C232.958 241.286 231.768 242.154 230.2 242.154ZM238.102 242.154C236.058 242.154 234.49 240.628 234.49 238.5C234.49 236.372 236.058 234.832 238.102 234.832C240.146 234.832 241.714 236.372 241.714 238.5C241.714 240.628 240.146 242.154 238.102 242.154ZM238.102 240.95C239.418 240.95 240.356 239.928 240.356 238.5C240.356 237.072 239.418 236.036 238.102 236.036C236.786 236.036 235.848 237.072 235.848 238.5C235.848 239.928 236.786 240.95 238.102 240.95ZM243.32 242V234.986H244.58V235.756C244.972 235.182 245.616 234.832 246.386 234.832C247.226 234.832 247.954 235.224 248.346 235.924C248.794 235.252 249.522 234.832 250.432 234.832C251.944 234.832 252.952 235.882 252.952 237.408V242H251.636V237.674C251.636 236.694 251.118 236.036 250.236 236.036C249.34 236.036 248.78 236.694 248.78 237.688V242H247.478V237.688C247.478 236.694 246.932 236.036 246.05 236.036C245.154 236.036 244.622 236.694 244.622 237.688V242H243.32ZM254.954 244.59V234.986H256.2V235.868C256.704 235.266 257.516 234.832 258.538 234.832C260.386 234.832 262.024 236.372 262.024 238.486C262.024 240.614 260.386 242.154 258.538 242.154C257.586 242.154 256.788 241.762 256.27 241.202V244.59H254.954ZM258.412 240.95C259.742 240.95 260.68 239.914 260.68 238.486C260.68 237.058 259.742 236.036 258.412 236.036C257.096 236.036 256.158 237.058 256.158 238.486C256.158 239.914 257.096 240.95 258.412 240.95ZM263.636 242V232.2H264.938V242H263.636ZM270.148 242.154C268.104 242.154 266.564 240.628 266.564 238.5C266.564 236.372 268.048 234.832 270.036 234.832C272.094 234.832 273.452 236.372 273.452 238.444C273.452 238.598 273.452 238.71 273.438 238.878H267.894C268.048 240.124 268.944 240.95 270.176 240.95C271.03 240.95 271.618 240.572 272.052 239.9L273.074 240.642C272.36 241.678 271.422 242.154 270.148 242.154ZM267.922 237.842H272.108C271.954 236.722 271.198 235.966 270.05 235.966C268.972 235.966 268.146 236.68 267.922 237.842ZM277.38 242.056C276.092 242.056 275.266 241.51 275.266 239.97V236.134H274.272V234.986H275.266V233.432L276.582 233.04V234.986H277.912V236.134H276.582V239.97C276.582 240.656 276.862 240.908 277.576 240.908H277.926V242.056H277.38ZM282.453 242.154C280.409 242.154 278.869 240.628 278.869 238.5C278.869 236.372 280.353 234.832 282.341 234.832C284.399 234.832 285.757 236.372 285.757 238.444C285.757 238.598 285.757 238.71 285.743 238.878H280.199C280.353 240.124 281.249 240.95 282.481 240.95C283.335 240.95 283.923 240.572 284.357 239.9L285.379 240.642C284.665 241.678 283.727 242.154 282.453 242.154ZM280.227 237.842H284.413C284.259 236.722 283.503 235.966 282.355 235.966C281.277 235.966 280.451 236.68 280.227 237.842ZM287.316 242V232.2H288.618V242H287.316ZM291.112 244.59L292.484 241.328L289.894 234.986H291.336L293.17 239.858L295.074 234.986H296.418L292.498 244.59H291.112ZM303.56 242.154C301.698 242.154 300.06 240.614 300.06 238.5C300.06 236.372 301.698 234.832 303.56 234.832C304.568 234.832 305.38 235.252 305.884 235.854V234.986H307.144V242H305.884V241.118C305.38 241.72 304.568 242.154 303.56 242.154ZM303.672 240.95C304.988 240.95 305.926 239.928 305.926 238.5C305.926 237.072 304.988 236.036 303.672 236.036C302.356 236.036 301.418 237.072 301.418 238.5C301.418 239.928 302.356 240.95 303.672 240.95ZM309.232 242V234.986H310.492V235.756C310.884 235.21 311.612 234.832 312.452 234.832C314.034 234.832 315.252 235.966 315.252 237.73V242H313.936V237.926C313.936 236.778 313.236 236.036 312.256 236.036C311.262 236.036 310.534 236.778 310.534 237.926V242H309.232ZM320.365 242.154C318.321 242.154 316.753 240.628 316.753 238.5C316.753 236.372 318.321 234.832 320.365 234.832C322.409 234.832 323.977 236.372 323.977 238.5C323.977 240.628 322.409 242.154 320.365 242.154ZM320.365 240.95C321.681 240.95 322.619 239.928 322.619 238.5C322.619 237.072 321.681 236.036 320.365 236.036C319.049 236.036 318.111 237.072 318.111 238.5C318.111 239.928 319.049 240.95 320.365 240.95ZM325.583 242V234.986H326.843V235.756C327.235 235.21 327.963 234.832 328.803 234.832C330.385 234.832 331.603 235.966 331.603 237.73V242H330.287V237.926C330.287 236.778 329.587 236.036 328.607 236.036C327.613 236.036 326.885 236.778 326.885 237.926V242H325.583ZM333.741 244.59L335.113 241.328L332.523 234.986H333.965L335.799 239.858L337.703 234.986H339.047L335.127 244.59H333.741ZM340.308 242V234.986H341.568V235.756C341.96 235.182 342.604 234.832 343.374 234.832C344.214 234.832 344.942 235.224 345.334 235.924C345.782 235.252 346.51 234.832 347.42 234.832C348.932 234.832 349.94 235.882 349.94 237.408V242H348.624V237.674C348.624 236.694 348.106 236.036 347.224 236.036C346.328 236.036 345.768 236.694 345.768 237.688V242H344.466V237.688C344.466 236.694 343.92 236.036 343.038 236.036C342.142 236.036 341.61 236.694 341.61 237.688V242H340.308ZM355.065 242.154C353.021 242.154 351.453 240.628 351.453 238.5C351.453 236.372 353.021 234.832 355.065 234.832C357.109 234.832 358.677 236.372 358.677 238.5C358.677 240.628 357.109 242.154 355.065 242.154ZM355.065 240.95C356.381 240.95 357.319 239.928 357.319 238.5C357.319 237.072 356.381 236.036 355.065 236.036C353.749 236.036 352.811 237.072 352.811 238.5C352.811 239.928 353.749 240.95 355.065 240.95ZM366.19 234.986V242H364.93V241.23C364.538 241.776 363.81 242.154 362.97 242.154C361.388 242.154 360.17 241.02 360.17 239.256V234.986H361.486V239.06C361.486 240.208 362.186 240.95 363.166 240.95C364.16 240.95 364.888 240.208 364.888 239.06V234.986H366.19ZM370.338 242.154C368.924 242.154 367.874 241.384 367.734 239.97H369.064C369.148 240.684 369.666 241.076 370.38 241.076C371.052 241.076 371.528 240.712 371.528 240.166C371.528 239.494 371.024 239.256 369.834 238.934C368.644 238.612 367.93 237.954 367.93 236.82C367.93 235.658 368.924 234.832 370.296 234.832C371.626 234.832 372.62 235.518 372.732 236.876H371.416C371.318 236.218 370.87 235.91 370.268 235.91C369.638 235.91 369.204 236.26 369.204 236.75C369.204 237.296 369.582 237.548 370.772 237.87C371.934 238.178 372.802 238.864 372.802 240.068C372.802 241.314 371.822 242.154 370.338 242.154ZM375.105 242.154C374.531 242.154 374.083 241.706 374.083 241.132C374.083 240.572 374.531 240.11 375.105 240.11C375.679 240.11 376.127 240.572 376.127 241.132C376.127 241.706 375.679 242.154 375.105 242.154Z" fill="#1B1B21"/>
<rect x="228.5" y="276.5" width="19" height="19" rx="9.5" fill="#350051"/>
<rect x="228.5" y="276.5" width="19" height="19" rx="9.5" stroke="#350051"/>
<rect x="234" y="282" width="8" height="8" rx="4" fill="white"/>
<path d="M259.264 294V282.8H265.856V284.8H261.472V287.264H265.568V289.264H261.472V294H259.264ZM267.04 294V285.984H269.056V286.976C269.552 286.288 270.304 285.872 271.424 285.872H271.488V287.92H271.376C270.352 287.92 269.104 288.24 269.104 290.544V294H267.04ZM276.059 294.176C273.915 294.176 272.075 292.432 272.075 290C272.075 287.568 273.915 285.808 276.059 285.808C277.035 285.808 277.899 286.192 278.443 286.8V285.984H280.427V294H278.443V293.2C277.931 293.76 277.083 294.176 276.059 294.176ZM276.299 292.24C277.515 292.24 278.395 291.296 278.395 290C278.395 288.672 277.515 287.744 276.299 287.744C275.099 287.744 274.219 288.672 274.219 290C274.219 291.328 275.099 292.24 276.299 292.24ZM289.646 285.984V294H287.63V293.248C287.182 293.776 286.43 294.176 285.502 294.176C283.758 294.176 282.366 292.912 282.366 290.896V285.984H284.478V290.496C284.478 291.552 285.07 292.208 285.998 292.208C286.91 292.208 287.534 291.552 287.534 290.496V285.984H289.646ZM295.184 294.176C293.04 294.176 291.2 292.432 291.2 290C291.2 287.568 293.04 285.808 295.184 285.808C296.064 285.808 296.864 286.128 297.408 286.64V282.8H299.536V294H297.584V293.184C297.072 293.744 296.208 294.176 295.184 294.176ZM295.424 292.24C296.64 292.24 297.52 291.296 297.52 290C297.52 288.672 296.64 287.744 295.424 287.744C294.224 287.744 293.344 288.672 293.344 290C293.344 291.328 294.224 292.24 295.424 292.24ZM306.633 284.864C307.049 283.472 307.545 282.688 308.777 282.688C309.961 282.688 310.489 283.488 310.873 284.848L313.545 294H311.225L310.617 291.776H306.745L306.121 294H303.881L306.633 284.864ZM307.289 289.872H310.105L308.713 284.768L307.289 289.872ZM317.475 294.064C315.811 294.064 314.707 293.36 314.707 291.296V287.824H313.715V285.984H314.707V284.32L316.771 283.696V285.984H318.099V287.824H316.771V291.296C316.771 291.968 317.091 292.224 317.779 292.224H318.179V294.064H317.475ZM322.99 294.064C321.326 294.064 320.222 293.36 320.222 291.296V287.824H319.23V285.984H320.222V284.32L322.286 283.696V285.984H323.614V287.824H322.286V291.296C322.286 291.968 322.606 292.224 323.294 292.224H323.694V294.064H322.99ZM328.845 294.176C326.445 294.176 324.637 292.4 324.637 290C324.637 287.6 326.381 285.808 328.717 285.808C331.117 285.808 332.717 287.584 332.717 289.952C332.717 290.192 332.717 290.384 332.701 290.576H326.797C327.021 291.616 327.805 292.272 328.877 292.272C329.661 292.272 330.253 291.936 330.685 291.312L332.237 292.512C331.405 293.664 330.253 294.176 328.845 294.176ZM326.813 289.184H330.621C330.445 288.224 329.773 287.6 328.749 287.6C327.773 287.6 327.053 288.192 326.813 289.184ZM334.227 294V285.984H336.243V286.768C336.675 286.176 337.427 285.808 338.291 285.808C339.139 285.808 339.923 286.16 340.419 286.848C340.931 286.208 341.699 285.808 342.675 285.808C344.435 285.808 345.635 287.088 345.635 288.912V294H343.571V289.264C343.571 288.368 343.091 287.776 342.275 287.776C341.459 287.776 340.963 288.368 340.963 289.264V294H338.899V289.264C338.899 288.368 338.403 287.776 337.587 287.776C336.771 287.776 336.291 288.368 336.291 289.264V294H334.227ZM347.587 296.96V285.984H349.539V286.8C350.051 286.24 350.899 285.808 351.923 285.808C354.083 285.808 355.923 287.552 355.923 289.984C355.923 292.416 354.083 294.16 351.923 294.16C351.027 294.16 350.243 293.84 349.699 293.328V296.96H347.587ZM351.683 292.24C352.899 292.24 353.763 291.296 353.763 289.984C353.763 288.688 352.899 287.744 351.683 287.744C350.483 287.744 349.619 288.688 349.619 289.984C349.619 291.312 350.483 292.24 351.683 292.24ZM360.569 294.064C358.905 294.064 357.801 293.36 357.801 291.296V287.824H356.809V285.984H357.801V284.32L359.865 283.696V285.984H361.193V287.824H359.865V291.296C359.865 291.968 360.185 292.224 360.873 292.224H361.273V294.064H360.569Z" fill="#1B1B21"/>
<rect x="228.5" y="316.5" width="19" height="19" rx="9.5" fill="white"/>
<rect x="228.5" y="316.5" width="19" height="19" rx="9.5" stroke="#7E838F"/>
<path d="M260.992 324.864C261.408 323.472 261.904 322.688 263.136 322.688C264.32 322.688 264.848 323.488 265.232 324.848L267.904 334H265.584L264.976 331.776H261.104L260.48 334H258.24L260.992 324.864ZM261.648 329.872H264.464L263.072 324.768L261.648 329.872ZM272.549 334.176C270.197 334.176 268.34 332.4 268.34 329.984C268.34 327.568 270.213 325.808 272.565 325.808C274.325 325.808 275.733 326.816 276.341 328.336L274.501 329.12C274.213 328.256 273.509 327.728 272.613 327.728C271.429 327.728 270.533 328.672 270.533 329.984C270.533 331.28 271.429 332.24 272.629 332.24C273.621 332.24 274.261 331.632 274.517 330.8L276.405 331.408C275.877 333.088 274.437 334.176 272.549 334.176ZM280.975 334.064C279.311 334.064 278.207 333.36 278.207 331.296V327.824H277.215V325.984H278.207V324.32L280.271 323.696V325.984H281.599V327.824H280.271V331.296C280.271 331.968 280.591 332.224 281.279 332.224H281.679V334.064H280.975ZM290.442 325.984V334H288.426V333.248C287.978 333.776 287.226 334.176 286.298 334.176C284.554 334.176 283.162 332.912 283.162 330.896V325.984H285.274V330.496C285.274 331.552 285.866 332.208 286.794 332.208C287.706 332.208 288.33 331.552 288.33 330.496V325.984H290.442ZM295.981 334.176C293.837 334.176 291.997 332.432 291.997 330C291.997 327.568 293.837 325.808 295.981 325.808C296.957 325.808 297.821 326.192 298.365 326.8V325.984H300.349V334H298.365V333.2C297.853 333.76 297.005 334.176 295.981 334.176ZM296.221 332.24C297.437 332.24 298.317 331.296 298.317 330C298.317 328.672 297.437 327.744 296.221 327.744C295.021 327.744 294.141 328.672 294.141 330C294.141 331.328 295.021 332.24 296.221 332.24ZM302.383 334V322.8H304.495V334H302.383ZM310.186 334V322.8H312.826C317.162 322.8 319.194 325.248 319.194 328.4C319.194 331.52 317.162 334 312.826 334H310.186ZM312.97 332C315.322 332 316.858 330.784 316.858 328.4C316.858 326.016 315.338 324.8 313.002 324.8H312.394V332H312.97ZM324.246 334.176C322.102 334.176 320.262 332.432 320.262 330C320.262 327.568 322.102 325.808 324.246 325.808C325.222 325.808 326.086 326.192 326.63 326.8V325.984H328.614V334H326.63V333.2C326.118 333.76 325.27 334.176 324.246 334.176ZM324.486 332.24C325.702 332.24 326.582 331.296 326.582 330C326.582 328.672 325.702 327.744 324.486 327.744C323.286 327.744 322.406 328.672 322.406 330C322.406 331.328 323.286 332.24 324.486 332.24ZM330.649 334V325.984H332.665V326.768C333.097 326.176 333.849 325.808 334.713 325.808C335.561 325.808 336.345 326.16 336.841 326.848C337.353 326.208 338.121 325.808 339.097 325.808C340.857 325.808 342.057 327.088 342.057 328.912V334H339.993V329.264C339.993 328.368 339.513 327.776 338.697 327.776C337.881 327.776 337.385 328.368 337.385 329.264V334H335.321V329.264C335.321 328.368 334.825 327.776 334.009 327.776C333.193 327.776 332.713 328.368 332.713 329.264V334H330.649ZM347.496 334.176C345.352 334.176 343.512 332.432 343.512 330C343.512 327.568 345.352 325.808 347.496 325.808C348.472 325.808 349.336 326.192 349.88 326.8V325.984H351.864V334H349.88V333.2C349.368 333.76 348.52 334.176 347.496 334.176ZM347.736 332.24C348.952 332.24 349.832 331.296 349.832 330C349.832 328.672 348.952 327.744 347.736 327.744C346.536 327.744 345.656 328.672 345.656 330C345.656 331.328 346.536 332.24 347.736 332.24ZM357.707 337.136C355.403 337.136 354.027 335.808 353.707 334.08H356.107C356.347 334.992 356.971 335.392 357.867 335.392C358.827 335.392 359.563 334.8 359.563 333.76V332.496C359.483 332.576 359.403 332.656 359.323 332.72C358.747 333.248 357.963 333.488 357.131 333.488C354.955 333.488 353.419 331.776 353.419 329.648C353.419 327.504 355.051 325.808 357.195 325.808C358.171 325.808 358.987 326.176 359.499 326.704C359.595 326.784 359.659 326.864 359.723 326.944V325.984H361.643V333.488C361.643 335.824 360.043 337.136 357.707 337.136ZM357.595 331.68C358.779 331.68 359.595 330.816 359.595 329.68C359.595 328.56 358.779 327.664 357.595 327.664C356.379 327.664 355.547 328.544 355.547 329.664C355.547 330.816 356.395 331.68 357.595 331.68ZM367.408 334.176C365.008 334.176 363.2 332.4 363.2 330C363.2 327.6 364.944 325.808 367.28 325.808C369.68 325.808 371.28 327.584 371.28 329.952C371.28 330.192 371.28 330.384 371.264 330.576H365.36C365.584 331.616 366.368 332.272 367.44 332.272C368.224 332.272 368.816 331.936 369.248 331.312L370.8 332.512C369.968 333.664 368.816 334.176 367.408 334.176ZM365.376 329.184H369.184C369.008 328.224 368.336 327.6 367.312 327.6C366.336 327.6 365.616 328.192 365.376 329.184ZM379.444 334.064C377.78 334.064 376.676 333.36 376.676 331.296V327.824H375.684V325.984H376.676V324.32L378.74 323.696V325.984H380.068V327.824H378.74V331.296C378.74 331.968 379.06 332.224 379.748 332.224H380.148V334.064H379.444ZM381.727 334V322.8H383.839V326.64C384.303 326.144 385.023 325.808 385.871 325.808C387.615 325.808 389.007 327.072 389.007 329.088V334H386.895V329.488C386.895 328.432 386.303 327.776 385.375 327.776C384.463 327.776 383.839 328.432 383.839 329.488V334H381.727ZM390.962 334V325.984H392.978V326.976C393.474 326.288 394.226 325.872 395.346 325.872H395.41V327.92H395.298C394.274 327.92 393.026 328.24 393.026 330.544V334H390.962ZM400.221 334.176C397.837 334.176 395.997 332.416 395.997 330C395.997 327.584 397.837 325.808 400.221 325.808C402.605 325.808 404.445 327.568 404.445 330C404.445 332.432 402.605 334.176 400.221 334.176ZM400.221 332.24C401.421 332.24 402.301 331.296 402.301 330C402.301 328.688 401.421 327.728 400.221 327.728C399.021 327.728 398.141 328.672 398.141 330C398.141 331.296 399.021 332.24 400.221 332.24ZM413.177 325.984V334H411.161V333.248C410.713 333.776 409.961 334.176 409.033 334.176C407.289 334.176 405.897 332.912 405.897 330.896V325.984H408.009V330.496C408.009 331.552 408.601 332.208 409.529 332.208C410.441 332.208 411.065 331.552 411.065 330.496V325.984H413.177ZM419.035 337.136C416.731 337.136 415.355 335.808 415.035 334.08H417.435C417.675 334.992 418.299 335.392 419.195 335.392C420.155 335.392 420.891 334.8 420.891 333.76V332.496C420.811 332.576 420.731 332.656 420.651 332.72C420.075 333.248 419.291 333.488 418.459 333.488C416.283 333.488 414.747 331.776 414.747 329.648C414.747 327.504 416.379 325.808 418.523 325.808C419.499 325.808 420.315 326.176 420.827 326.704C420.923 326.784 420.987 326.864 421.051 326.944V325.984H422.971V333.488C422.971 335.824 421.371 337.136 419.035 337.136ZM418.923 331.68C420.107 331.68 420.923 330.816 420.923 329.68C420.923 328.56 420.107 327.664 418.923 327.664C417.707 327.664 416.875 328.544 416.875 329.664C416.875 330.816 417.723 331.68 418.923 331.68ZM425.024 334V322.8H427.136V326.64C427.6 326.144 428.32 325.808 429.168 325.808C430.912 325.808 432.304 327.072 432.304 329.088V334H430.192V329.488C430.192 328.432 429.6 327.776 428.672 327.776C427.76 327.776 427.136 328.432 427.136 329.488V334H425.024ZM438.16 325.248C438.16 323.264 439.424 322.672 441.104 322.672H442L441.504 324.544H441.152C440.544 324.544 440.272 324.768 440.272 325.376V325.984H441.568V327.824H440.272V334H438.16V327.824H437.216V325.984H438.16V325.248ZM442.993 334V325.984H445.009V326.976C445.505 326.288 446.257 325.872 447.377 325.872H447.441V327.92H447.329C446.305 327.92 445.057 328.24 445.057 330.544V334H442.993ZM452.012 334.176C449.868 334.176 448.028 332.432 448.028 330C448.028 327.568 449.868 325.808 452.012 325.808C452.988 325.808 453.852 326.192 454.396 326.8V325.984H456.38V334H454.396V333.2C453.884 333.76 453.036 334.176 452.012 334.176ZM452.252 332.24C453.468 332.24 454.348 331.296 454.348 330C454.348 328.672 453.468 327.744 452.252 327.744C451.052 327.744 450.172 328.672 450.172 330C450.172 331.328 451.052 332.24 452.252 332.24ZM465.599 325.984V334H463.583V333.248C463.135 333.776 462.383 334.176 461.455 334.176C459.711 334.176 458.319 332.912 458.319 330.896V325.984H460.431V330.496C460.431 331.552 461.023 332.208 461.951 332.208C462.863 332.208 463.487 331.552 463.487 330.496V325.984H465.599ZM471.137 334.176C468.993 334.176 467.153 332.432 467.153 330C467.153 327.568 468.993 325.808 471.137 325.808C472.017 325.808 472.817 326.128 473.361 326.64V322.8H475.489V334H473.537V333.184C473.025 333.744 472.161 334.176 471.137 334.176ZM471.377 332.24C472.593 332.24 473.473 331.296 473.473 330C473.473 328.672 472.593 327.744 471.377 327.744C470.177 327.744 469.297 328.672 469.297 330C469.297 331.328 470.177 332.24 471.377 332.24Z" fill="#1B1B21"/>
<rect x="228.5" y="356.5" width="19" height="19" rx="9.5" fill="white"/>
<rect x="228.5" y="356.5" width="19" height="19" rx="9.5" stroke="#7E838F"/>
<path d="M262.656 374.176C260.336 374.176 258.816 372.832 258.656 370.544H260.88C260.976 371.696 261.728 372.304 262.688 372.304C263.632 372.304 264.192 371.744 264.192 370.992C264.192 370.032 263.536 369.696 261.856 369.248C260.192 368.784 258.816 367.824 258.816 365.888C258.816 363.952 260.336 362.624 262.528 362.624C264.736 362.624 266.096 363.888 266.288 366.048H264.08C264.016 365.056 263.312 364.496 262.464 364.496C261.616 364.496 261.008 364.992 261.008 365.712C261.008 366.624 261.696 366.896 263.248 367.344C264.992 367.872 266.416 368.992 266.416 370.784C266.416 372.928 264.912 374.176 262.656 374.176ZM267.946 376.96V365.984H269.898V366.8C270.41 366.24 271.258 365.808 272.282 365.808C274.442 365.808 276.282 367.552 276.282 369.984C276.282 372.416 274.442 374.16 272.282 374.16C271.386 374.16 270.602 373.84 270.058 373.328V376.96H267.946ZM272.042 372.24C273.258 372.24 274.122 371.296 274.122 369.984C274.122 368.688 273.258 367.744 272.042 367.744C270.842 367.744 269.978 368.688 269.978 369.984C269.978 371.312 270.842 372.24 272.042 372.24ZM281.325 374.176C279.181 374.176 277.34 372.432 277.34 370C277.34 367.568 279.181 365.808 281.325 365.808C282.301 365.808 283.165 366.192 283.709 366.8V365.984H285.693V374H283.709V373.2C283.197 373.76 282.349 374.176 281.325 374.176ZM281.565 372.24C282.781 372.24 283.661 371.296 283.661 370C283.661 368.672 282.781 367.744 281.565 367.744C280.365 367.744 279.485 368.672 279.485 370C279.485 371.328 280.365 372.24 281.565 372.24ZM287.727 374V365.984H289.743V366.768C290.175 366.176 290.927 365.808 291.791 365.808C292.639 365.808 293.423 366.16 293.919 366.848C294.431 366.208 295.199 365.808 296.175 365.808C297.935 365.808 299.135 367.088 299.135 368.912V374H297.071V369.264C297.071 368.368 296.591 367.776 295.775 367.776C294.959 367.776 294.463 368.368 294.463 369.264V374H292.399V369.264C292.399 368.368 291.903 367.776 291.087 367.776C290.271 367.776 289.791 368.368 289.791 369.264V374H287.727ZM303.317 375.408L308.133 362.608H310.293L305.477 375.408H303.317ZM316.211 364.864C316.627 363.472 317.123 362.688 318.355 362.688C319.539 362.688 320.067 363.488 320.451 364.848L323.123 374H320.803L320.195 371.776H316.323L315.699 374H313.459L316.211 364.864ZM316.867 369.872H319.683L318.291 364.768L316.867 369.872ZM327.543 374.176C325.399 374.176 323.559 372.432 323.559 370C323.559 367.568 325.399 365.808 327.543 365.808C328.423 365.808 329.223 366.128 329.767 366.64V362.8H331.895V374H329.943V373.184C329.431 373.744 328.567 374.176 327.543 374.176ZM327.783 372.24C328.999 372.24 329.879 371.296 329.879 370C329.879 368.672 328.999 367.744 327.783 367.744C326.583 367.744 325.703 368.672 325.703 370C325.703 371.328 326.583 372.24 327.783 372.24ZM337.002 374.096C336.01 374.096 335.498 373.44 335.178 372.368L333.114 365.984H335.354L337.034 371.824L338.762 365.984H340.874L338.81 372.368C338.474 373.424 338.09 374.096 337.002 374.096ZM345.564 374.176C343.164 374.176 341.356 372.4 341.356 370C341.356 367.6 343.1 365.808 345.436 365.808C347.836 365.808 349.436 367.584 349.436 369.952C349.436 370.192 349.436 370.384 349.42 370.576H343.516C343.74 371.616 344.524 372.272 345.596 372.272C346.38 372.272 346.972 371.936 347.404 371.312L348.956 372.512C348.124 373.664 346.972 374.176 345.564 374.176ZM343.532 369.184H347.34C347.164 368.224 346.492 367.6 345.468 367.6C344.492 367.6 343.772 368.192 343.532 369.184ZM350.946 374V365.984H352.962V366.976C353.458 366.288 354.21 365.872 355.33 365.872H355.394V367.92H355.282C354.258 367.92 353.01 368.24 353.01 370.544V374H350.946ZM359.975 374.064C358.311 374.064 357.207 373.36 357.207 371.296V367.824H356.215V365.984H357.207V364.32L359.271 363.696V365.984H360.599V367.824H359.271V371.296C359.271 371.968 359.591 372.224 360.279 372.224H360.679V374.064H359.975ZM362.258 374V365.984H364.37V374H362.258ZM363.298 365.12C362.61 365.12 362.034 364.544 362.034 363.856C362.034 363.152 362.61 362.592 363.298 362.592C364.002 362.592 364.562 363.152 364.562 363.856C364.562 364.544 364.002 365.12 363.298 365.12ZM368.975 374.176C367.247 374.176 366.063 373.232 365.903 371.536H367.919C367.967 372.128 368.383 372.528 369.023 372.528C369.567 372.528 369.919 372.224 369.919 371.792C369.919 371.264 369.503 371.04 368.255 370.736C366.959 370.416 366.015 369.648 366.015 368.24C366.015 366.816 367.215 365.808 368.895 365.808C370.527 365.808 371.695 366.656 371.823 368.336H369.855C369.775 367.744 369.423 367.44 368.895 367.44C368.351 367.44 368.031 367.76 368.031 368.128C368.031 368.608 368.351 368.832 369.663 369.152C370.959 369.488 371.919 370.32 371.919 371.648C371.919 373.2 370.751 374.176 368.975 374.176ZM377.205 374.176C374.805 374.176 372.997 372.4 372.997 370C372.997 367.6 374.741 365.808 377.077 365.808C379.477 365.808 381.077 367.584 381.077 369.952C381.077 370.192 381.077 370.384 381.061 370.576H375.157C375.381 371.616 376.165 372.272 377.237 372.272C378.021 372.272 378.613 371.936 379.045 371.312L380.597 372.512C379.765 373.664 378.613 374.176 377.205 374.176ZM375.173 369.184H378.981C378.805 368.224 378.133 367.6 377.109 367.6C376.133 367.6 375.413 368.192 375.173 369.184ZM382.587 374V365.984H384.603V366.768C385.035 366.176 385.786 365.808 386.651 365.808C387.499 365.808 388.283 366.16 388.779 366.848C389.291 366.208 390.059 365.808 391.035 365.808C392.795 365.808 393.995 367.088 393.995 368.912V374H391.931V369.264C391.931 368.368 391.451 367.776 390.635 367.776C389.819 367.776 389.323 368.368 389.323 369.264V374H387.259V369.264C387.259 368.368 386.763 367.776 385.947 367.776C385.131 367.776 384.651 368.368 384.651 369.264V374H382.587ZM399.658 374.176C397.258 374.176 395.45 372.4 395.45 370C395.45 367.6 397.194 365.808 399.53 365.808C401.93 365.808 403.53 367.584 403.53 369.952C403.53 370.192 403.53 370.384 403.514 370.576H397.61C397.834 371.616 398.618 372.272 399.69 372.272C400.474 372.272 401.066 371.936 401.498 371.312L403.05 372.512C402.218 373.664 401.066 374.176 399.658 374.176ZM397.626 369.184H401.434C401.258 368.224 400.586 367.6 399.562 367.6C398.586 367.6 397.866 368.192 397.626 369.184ZM405.04 374V365.984H407.056V366.736C407.504 366.208 408.256 365.808 409.184 365.808C410.928 365.808 412.32 367.072 412.32 369.088V374H410.208V369.488C410.208 368.432 409.616 367.776 408.688 367.776C407.776 367.776 407.152 368.432 407.152 369.488V374H405.04ZM417.381 374.064C415.717 374.064 414.613 373.36 414.613 371.296V367.824H413.621V365.984H414.613V364.32L416.677 363.696V365.984H418.005V367.824H416.677V371.296C416.677 371.968 416.997 372.224 417.685 372.224H418.085V374.064H417.381ZM421.896 375.408L426.712 362.608H428.872L424.056 375.408H421.896ZM433.165 374V365.984H435.277V374H433.165ZM434.205 365.12C433.517 365.12 432.941 364.544 432.941 363.856C432.941 363.152 433.517 362.592 434.205 362.592C434.909 362.592 435.469 363.152 435.469 363.856C435.469 364.544 434.909 365.12 434.205 365.12ZM437.305 374V365.984H439.321V366.976C439.817 366.288 440.569 365.872 441.689 365.872H441.753V367.92H441.641C440.617 367.92 439.369 368.24 439.369 370.544V374H437.305ZM443.102 374V365.984H445.118V366.976C445.614 366.288 446.366 365.872 447.486 365.872H447.55V367.92H447.438C446.414 367.92 445.166 368.24 445.166 370.544V374H443.102ZM452.345 374.176C449.945 374.176 448.137 372.4 448.137 370C448.137 367.6 449.881 365.808 452.217 365.808C454.617 365.808 456.217 367.584 456.217 369.952C456.217 370.192 456.217 370.384 456.201 370.576H450.297C450.521 371.616 451.305 372.272 452.377 372.272C453.161 372.272 453.753 371.936 454.185 371.312L455.737 372.512C454.905 373.664 453.753 374.176 452.345 374.176ZM450.313 369.184H454.121C453.945 368.224 453.273 367.6 452.249 367.6C451.273 367.6 450.553 368.192 450.313 369.184ZM457.727 374V362.8H459.839V374H457.727ZM465.58 374.176C463.18 374.176 461.372 372.4 461.372 370C461.372 367.6 463.116 365.808 465.452 365.808C467.852 365.808 469.452 367.584 469.452 369.952C469.452 370.192 469.452 370.384 469.436 370.576H463.532C463.756 371.616 464.54 372.272 465.612 372.272C466.396 372.272 466.988 371.936 467.42 371.312L468.972 372.512C468.14 373.664 466.988 374.176 465.58 374.176ZM463.548 369.184H467.356C467.18 368.224 466.508 367.6 465.484 367.6C464.508 367.6 463.788 368.192 463.548 369.184ZM473.799 374.096C472.807 374.096 472.295 373.44 471.975 372.368L469.911 365.984H472.151L473.831 371.824L475.559 365.984H477.671L475.607 372.368C475.271 373.424 474.887 374.096 473.799 374.096ZM482.137 374.176C479.993 374.176 478.153 372.432 478.153 370C478.153 367.568 479.993 365.808 482.137 365.808C483.113 365.808 483.977 366.192 484.521 366.8V365.984H486.505V374H484.521V373.2C484.009 373.76 483.161 374.176 482.137 374.176ZM482.377 372.24C483.593 372.24 484.473 371.296 484.473 370C484.473 368.672 483.593 367.744 482.377 367.744C481.177 367.744 480.297 368.672 480.297 370C480.297 371.328 481.177 372.24 482.377 372.24ZM488.54 374V365.984H490.556V366.736C491.004 366.208 491.756 365.808 492.684 365.808C494.428 365.808 495.82 367.072 495.82 369.088V374H493.708V369.488C493.708 368.432 493.116 367.776 492.188 367.776C491.276 367.776 490.652 368.432 490.652 369.488V374H488.54ZM500.881 374.064C499.217 374.064 498.113 373.36 498.113 371.296V367.824H497.121V365.984H498.113V364.32L500.177 363.696V365.984H501.505V367.824H500.177V371.296C500.177 371.968 500.497 372.224 501.185 372.224H501.585V374.064H500.881ZM506.587 374V365.984H508.603V366.768C509.035 366.176 509.786 365.808 510.651 365.808C511.499 365.808 512.283 366.16 512.779 366.848C513.291 366.208 514.059 365.808 515.035 365.808C516.795 365.808 517.995 367.088 517.995 368.912V374H515.931V369.264C515.931 368.368 515.451 367.776 514.635 367.776C513.819 367.776 513.323 368.368 513.323 369.264V374H511.259V369.264C511.259 368.368 510.763 367.776 509.947 367.776C509.131 367.776 508.651 368.368 508.651 369.264V374H506.587ZM523.658 374.176C521.258 374.176 519.45 372.4 519.45 370C519.45 367.6 521.194 365.808 523.53 365.808C525.93 365.808 527.53 367.584 527.53 369.952C527.53 370.192 527.53 370.384 527.514 370.576H521.61C521.834 371.616 522.618 372.272 523.69 372.272C524.474 372.272 525.066 371.936 525.498 371.312L527.05 372.512C526.218 373.664 525.066 374.176 523.658 374.176ZM521.626 369.184H525.434C525.258 368.224 524.586 367.6 523.562 367.6C522.586 367.6 521.866 368.192 521.626 369.184ZM531.616 374.176C529.888 374.176 528.704 373.232 528.544 371.536H530.56C530.608 372.128 531.024 372.528 531.664 372.528C532.208 372.528 532.56 372.224 532.56 371.792C532.56 371.264 532.144 371.04 530.896 370.736C529.6 370.416 528.656 369.648 528.656 368.24C528.656 366.816 529.856 365.808 531.536 365.808C533.168 365.808 534.336 366.656 534.464 368.336H532.496C532.416 367.744 532.064 367.44 531.536 367.44C530.992 367.44 530.672 367.76 530.672 368.128C530.672 368.608 530.992 368.832 532.304 369.152C533.6 369.488 534.56 370.32 534.56 371.648C534.56 373.2 533.392 374.176 531.616 374.176ZM538.709 374.176C536.981 374.176 535.797 373.232 535.637 371.536H537.653C537.701 372.128 538.117 372.528 538.757 372.528C539.301 372.528 539.653 372.224 539.653 371.792C539.653 371.264 539.237 371.04 537.989 370.736C536.693 370.416 535.749 369.648 535.749 368.24C535.749 366.816 536.949 365.808 538.629 365.808C540.261 365.808 541.429 366.656 541.557 368.336H539.589C539.509 367.744 539.157 367.44 538.629 367.44C538.085 367.44 537.765 367.76 537.765 368.128C537.765 368.608 538.085 368.832 539.397 369.152C540.693 369.488 541.653 370.32 541.653 371.648C541.653 373.2 540.485 374.176 538.709 374.176ZM546.715 374.176C544.571 374.176 542.731 372.432 542.731 370C542.731 367.568 544.571 365.808 546.715 365.808C547.691 365.808 548.555 366.192 549.099 366.8V365.984H551.083V374H549.099V373.2C548.587 373.76 547.739 374.176 546.715 374.176ZM546.955 372.24C548.171 372.24 549.051 371.296 549.051 370C549.051 368.672 548.171 367.744 546.955 367.744C545.755 367.744 544.875 368.672 544.875 370C544.875 371.328 545.755 372.24 546.955 372.24ZM556.926 377.136C554.622 377.136 553.246 375.808 552.926 374.08H555.326C555.566 374.992 556.19 375.392 557.086 375.392C558.046 375.392 558.782 374.8 558.782 373.76V372.496C558.702 372.576 558.622 372.656 558.542 372.72C557.966 373.248 557.182 373.488 556.35 373.488C554.174 373.488 552.638 371.776 552.638 369.648C552.638 367.504 554.27 365.808 556.414 365.808C557.39 365.808 558.206 366.176 558.718 366.704C558.814 366.784 558.878 366.864 558.942 366.944V365.984H560.862V373.488C560.862 375.824 559.262 377.136 556.926 377.136ZM556.814 371.68C557.998 371.68 558.814 370.816 558.814 369.68C558.814 368.56 557.998 367.664 556.814 367.664C555.598 367.664 554.766 368.544 554.766 369.664C554.766 370.816 555.614 371.68 556.814 371.68ZM566.627 374.176C564.227 374.176 562.419 372.4 562.419 370C562.419 367.6 564.163 365.808 566.499 365.808C568.899 365.808 570.499 367.584 570.499 369.952C570.499 370.192 570.499 370.384 570.483 370.576H564.579C564.803 371.616 565.587 372.272 566.659 372.272C567.443 372.272 568.035 371.936 568.467 371.312L570.019 372.512C569.187 373.664 568.035 374.176 566.627 374.176ZM564.595 369.184H568.403C568.227 368.224 567.555 367.6 566.531 367.6C565.555 367.6 564.835 368.192 564.595 369.184ZM574.584 374.176C572.856 374.176 571.672 373.232 571.512 371.536H573.528C573.576 372.128 573.992 372.528 574.632 372.528C575.176 372.528 575.528 372.224 575.528 371.792C575.528 371.264 575.112 371.04 573.864 370.736C572.568 370.416 571.624 369.648 571.624 368.24C571.624 366.816 572.824 365.808 574.504 365.808C576.136 365.808 577.304 366.656 577.432 368.336H575.464C575.384 367.744 575.032 367.44 574.504 367.44C573.96 367.44 573.64 367.76 573.64 368.128C573.64 368.608 573.96 368.832 575.272 369.152C576.568 369.488 577.528 370.32 577.528 371.648C577.528 373.2 576.36 374.176 574.584 374.176Z" fill="#1B1B21"/>
<rect x="228.5" y="396.5" width="19" height="19" rx="9.5" fill="white"/>
<rect x="228.5" y="396.5" width="19" height="19" rx="9.5" stroke="#7E838F"/>
<path d="M262.656 414.176C260.336 414.176 258.816 412.832 258.656 410.544H260.88C260.976 411.696 261.728 412.304 262.688 412.304C263.632 412.304 264.192 411.744 264.192 410.992C264.192 410.032 263.536 409.696 261.856 409.248C260.192 408.784 258.816 407.824 258.816 405.888C258.816 403.952 260.336 402.624 262.528 402.624C264.736 402.624 266.096 403.888 266.288 406.048H264.08C264.016 405.056 263.312 404.496 262.464 404.496C261.616 404.496 261.008 404.992 261.008 405.712C261.008 406.624 261.696 406.896 263.248 407.344C264.992 407.872 266.416 408.992 266.416 410.784C266.416 412.928 264.912 414.176 262.656 414.176ZM271.705 414.176C269.305 414.176 267.497 412.4 267.497 410C267.497 407.6 269.241 405.808 271.577 405.808C273.977 405.808 275.577 407.584 275.577 409.952C275.577 410.192 275.577 410.384 275.561 410.576H269.657C269.881 411.616 270.665 412.272 271.737 412.272C272.521 412.272 273.113 411.936 273.545 411.312L275.097 412.512C274.265 413.664 273.113 414.176 271.705 414.176ZM269.673 409.184H273.481C273.305 408.224 272.633 407.6 271.609 407.6C270.633 407.6 269.913 408.192 269.673 409.184ZM275.703 414L278.423 409.792L275.991 405.984H278.295L279.639 408.288L281.031 405.984H283.271L280.727 409.936L283.335 414H281.031L279.511 411.472L277.959 414H275.703ZM291.646 405.984V414H289.63V413.248C289.182 413.776 288.43 414.176 287.502 414.176C285.758 414.176 284.366 412.912 284.366 410.896V405.984H286.478V410.496C286.478 411.552 287.07 412.208 287.998 412.208C288.91 412.208 289.534 411.552 289.534 410.496V405.984H291.646ZM297.184 414.176C295.04 414.176 293.2 412.432 293.2 410C293.2 407.568 295.04 405.808 297.184 405.808C298.16 405.808 299.024 406.192 299.568 406.8V405.984H301.552V414H299.568V413.2C299.056 413.76 298.208 414.176 297.184 414.176ZM297.424 412.24C298.64 412.24 299.52 411.296 299.52 410C299.52 408.672 298.64 407.744 297.424 407.744C296.224 407.744 295.344 408.672 295.344 410C295.344 411.328 296.224 412.24 297.424 412.24ZM303.587 414V402.8H305.699V414H303.587ZM317.821 414V409.168H313.597V414H311.389V402.8H313.597V407.168H317.821V402.8H320.029V414H317.821ZM325.528 414.176C323.384 414.176 321.544 412.432 321.544 410C321.544 407.568 323.384 405.808 325.528 405.808C326.504 405.808 327.368 406.192 327.912 406.8V405.984H329.896V414H327.912V413.2C327.4 413.76 326.552 414.176 325.528 414.176ZM325.768 412.24C326.984 412.24 327.864 411.296 327.864 410C327.864 408.672 326.984 407.744 325.768 407.744C324.568 407.744 323.688 408.672 323.688 410C323.688 411.328 324.568 412.24 325.768 412.24ZM331.93 414V405.984H333.946V406.976C334.442 406.288 335.194 405.872 336.314 405.872H336.378V407.92H336.266C335.242 407.92 333.994 408.24 333.994 410.544V414H331.93ZM340.95 414.176C338.806 414.176 336.965 412.432 336.965 410C336.965 407.568 338.806 405.808 340.95 405.808C341.926 405.808 342.79 406.192 343.334 406.8V405.984H345.318V414H343.334V413.2C342.822 413.76 341.974 414.176 340.95 414.176ZM341.19 412.24C342.406 412.24 343.286 411.296 343.286 410C343.286 408.672 342.406 407.744 341.19 407.744C339.99 407.744 339.11 408.672 339.11 410C339.11 411.328 339.99 412.24 341.19 412.24ZM349.928 414.176C348.2 414.176 347.016 413.232 346.856 411.536H348.872C348.92 412.128 349.336 412.528 349.976 412.528C350.52 412.528 350.872 412.224 350.872 411.792C350.872 411.264 350.456 411.04 349.208 410.736C347.912 410.416 346.968 409.648 346.968 408.24C346.968 406.816 348.168 405.808 349.848 405.808C351.48 405.808 352.648 406.656 352.776 408.336H350.808C350.728 407.744 350.376 407.44 349.848 407.44C349.304 407.44 348.984 407.76 348.984 408.128C348.984 408.608 349.304 408.832 350.616 409.152C351.912 409.488 352.872 410.32 352.872 411.648C352.872 413.2 351.704 414.176 349.928 414.176ZM357.022 414.176C355.294 414.176 354.11 413.232 353.95 411.536H355.966C356.014 412.128 356.43 412.528 357.07 412.528C357.614 412.528 357.966 412.224 357.966 411.792C357.966 411.264 357.55 411.04 356.302 410.736C355.006 410.416 354.062 409.648 354.062 408.24C354.062 406.816 355.262 405.808 356.942 405.808C358.574 405.808 359.742 406.656 359.87 408.336H357.902C357.822 407.744 357.47 407.44 356.942 407.44C356.398 407.44 356.078 407.76 356.078 408.128C356.078 408.608 356.398 408.832 357.71 409.152C359.006 409.488 359.966 410.32 359.966 411.648C359.966 413.2 358.798 414.176 357.022 414.176ZM361.54 414V405.984H363.556V406.768C363.988 406.176 364.74 405.808 365.604 405.808C366.452 405.808 367.236 406.16 367.732 406.848C368.244 406.208 369.012 405.808 369.988 405.808C371.748 405.808 372.948 407.088 372.948 408.912V414H370.884V409.264C370.884 408.368 370.404 407.776 369.588 407.776C368.772 407.776 368.276 408.368 368.276 409.264V414H366.212V409.264C366.212 408.368 365.716 407.776 364.9 407.776C364.084 407.776 363.604 408.368 363.604 409.264V414H361.54ZM378.611 414.176C376.211 414.176 374.403 412.4 374.403 410C374.403 407.6 376.147 405.808 378.483 405.808C380.883 405.808 382.483 407.584 382.483 409.952C382.483 410.192 382.483 410.384 382.467 410.576H376.563C376.787 411.616 377.571 412.272 378.643 412.272C379.427 412.272 380.019 411.936 380.451 411.312L382.003 412.512C381.171 413.664 380.019 414.176 378.611 414.176ZM376.579 409.184H380.387C380.211 408.224 379.539 407.6 378.515 407.6C377.539 407.6 376.819 408.192 376.579 409.184ZM383.993 414V405.984H386.009V406.736C386.457 406.208 387.209 405.808 388.137 405.808C389.881 405.808 391.273 407.072 391.273 409.088V414H389.161V409.488C389.161 408.432 388.569 407.776 387.641 407.776C386.729 407.776 386.105 408.432 386.105 409.488V414H383.993ZM396.334 414.064C394.67 414.064 393.566 413.36 393.566 411.296V407.824H392.574V405.984H393.566V404.32L395.63 403.696V405.984H396.958V407.824H395.63V411.296C395.63 411.968 395.95 412.224 396.638 412.224H397.038V414.064H396.334Z" fill="#1B1B21"/>
<rect x="228.5" y="436.5" width="19" height="19" rx="9.5" fill="white"/>
<rect x="228.5" y="436.5" width="19" height="19" rx="9.5" stroke="#7E838F"/>
<path d="M264.512 454.176C261.264 454.176 258.656 451.6 258.656 448.4C258.656 445.2 261.28 442.624 264.512 442.624C267.76 442.624 270.384 445.216 270.384 448.4C270.384 451.6 267.76 454.176 264.512 454.176ZM264.512 452.048C266.544 452.048 268 450.432 268 448.4C268 446.368 266.56 444.752 264.512 444.752C262.48 444.752 261.04 446.368 261.04 448.4C261.04 450.432 262.464 452.048 264.512 452.048ZM272.41 445.248C272.41 443.264 273.674 442.672 275.354 442.672H276.25L275.754 444.544H275.402C274.794 444.544 274.522 444.768 274.522 445.376V445.984H275.818V447.824H274.522V454H272.41V447.824H271.466V445.984H272.41V445.248ZM277.723 445.248C277.723 443.264 278.987 442.672 280.667 442.672H281.563L281.067 444.544H280.715C280.107 444.544 279.835 444.768 279.835 445.376V445.984H281.131V447.824H279.835V454H277.723V447.824H276.779V445.984H277.723V445.248ZM286.111 454.176C283.711 454.176 281.903 452.4 281.903 450C281.903 447.6 283.647 445.808 285.983 445.808C288.383 445.808 289.983 447.584 289.983 449.952C289.983 450.192 289.983 450.384 289.967 450.576H284.063C284.287 451.616 285.071 452.272 286.143 452.272C286.927 452.272 287.519 451.936 287.951 451.312L289.503 452.512C288.671 453.664 287.519 454.176 286.111 454.176ZM284.079 449.184H287.887C287.711 448.224 287.039 447.6 286.015 447.6C285.039 447.6 284.319 448.192 284.079 449.184ZM291.493 454V445.984H293.509V446.736C293.957 446.208 294.709 445.808 295.637 445.808C297.381 445.808 298.773 447.072 298.773 449.088V454H296.661V449.488C296.661 448.432 296.069 447.776 295.141 447.776C294.229 447.776 293.605 448.432 293.605 449.488V454H291.493ZM303.303 454.176C301.575 454.176 300.391 453.232 300.231 451.536H302.247C302.295 452.128 302.711 452.528 303.351 452.528C303.895 452.528 304.247 452.224 304.247 451.792C304.247 451.264 303.831 451.04 302.583 450.736C301.287 450.416 300.343 449.648 300.343 448.24C300.343 446.816 301.543 445.808 303.223 445.808C304.855 445.808 306.023 446.656 306.151 448.336H304.183C304.103 447.744 303.751 447.44 303.223 447.44C302.679 447.44 302.359 447.76 302.359 448.128C302.359 448.608 302.679 448.832 303.991 449.152C305.287 449.488 306.247 450.32 306.247 451.648C306.247 453.2 305.079 454.176 303.303 454.176ZM307.821 454V445.984H309.933V454H307.821ZM308.861 445.12C308.173 445.12 307.597 444.544 307.597 443.856C307.597 443.152 308.173 442.592 308.861 442.592C309.565 442.592 310.125 443.152 310.125 443.856C310.125 444.544 309.565 445.12 308.861 445.12ZM315.018 454.096C314.026 454.096 313.514 453.44 313.194 452.368L311.13 445.984H313.37L315.049 451.824L316.778 445.984H318.89L316.826 452.368C316.49 453.424 316.106 454.096 315.018 454.096ZM323.58 454.176C321.18 454.176 319.372 452.4 319.372 450C319.372 447.6 321.116 445.808 323.452 445.808C325.852 445.808 327.452 447.584 327.452 449.952C327.452 450.192 327.452 450.384 327.436 450.576H321.532C321.756 451.616 322.54 452.272 323.612 452.272C324.396 452.272 324.988 451.936 325.42 451.312L326.972 452.512C326.14 453.664 324.988 454.176 323.58 454.176ZM321.548 449.184H325.356C325.18 448.224 324.508 447.6 323.484 447.6C322.508 447.6 321.788 448.192 321.548 449.184ZM336.111 454.176C333.727 454.176 331.887 452.416 331.887 450C331.887 447.584 333.727 445.808 336.111 445.808C338.495 445.808 340.335 447.568 340.335 450C340.335 452.432 338.495 454.176 336.111 454.176ZM336.111 452.24C337.311 452.24 338.191 451.296 338.191 450C338.191 448.688 337.311 447.728 336.111 447.728C334.911 447.728 334.031 448.672 334.031 450C334.031 451.296 334.911 452.24 336.111 452.24ZM341.883 454V445.984H343.899V446.976C344.395 446.288 345.147 445.872 346.267 445.872H346.331V447.92H346.219C345.195 447.92 343.947 448.24 343.947 450.544V454H341.883ZM353.959 454.064C352.295 454.064 351.191 453.36 351.191 451.296V447.824H350.199V445.984H351.191V444.32L353.255 443.696V445.984H354.583V447.824H353.255V451.296C353.255 451.968 353.575 452.224 354.263 452.224H354.663V454.064H353.959ZM356.243 454V442.8H358.355V446.64C358.819 446.144 359.539 445.808 360.387 445.808C362.131 445.808 363.523 447.072 363.523 449.088V454H361.411V449.488C361.411 448.432 360.819 447.776 359.891 447.776C358.979 447.776 358.355 448.432 358.355 449.488V454H356.243ZM365.477 454V445.984H367.493V446.976C367.989 446.288 368.741 445.872 369.861 445.872H369.925V447.92H369.813C368.789 447.92 367.541 448.24 367.541 450.544V454H365.477ZM374.72 454.176C372.32 454.176 370.512 452.4 370.512 450C370.512 447.6 372.256 445.808 374.592 445.808C376.992 445.808 378.592 447.584 378.592 449.952C378.592 450.192 378.592 450.384 378.576 450.576H372.672C372.896 451.616 373.68 452.272 374.752 452.272C375.536 452.272 376.128 451.936 376.56 451.312L378.112 452.512C377.28 453.664 376.128 454.176 374.72 454.176ZM372.688 449.184H376.496C376.32 448.224 375.648 447.6 374.624 447.6C373.648 447.6 372.928 448.192 372.688 449.184ZM383.59 454.176C381.446 454.176 379.606 452.432 379.606 450C379.606 447.568 381.446 445.808 383.59 445.808C384.566 445.808 385.43 446.192 385.974 446.8V445.984H387.958V454H385.974V453.2C385.462 453.76 384.614 454.176 383.59 454.176ZM383.83 452.24C385.046 452.24 385.926 451.296 385.926 450C385.926 448.672 385.046 447.744 383.83 447.744C382.63 447.744 381.75 448.672 381.75 450C381.75 451.328 382.63 452.24 383.83 452.24ZM393.225 454.064C391.561 454.064 390.457 453.36 390.457 451.296V447.824H389.465V445.984H390.457V444.32L392.521 443.696V445.984H393.849V447.824H392.521V451.296C392.521 451.968 392.841 452.224 393.529 452.224H393.929V454.064H393.225ZM399.08 454.176C396.68 454.176 394.872 452.4 394.872 450C394.872 447.6 396.616 445.808 398.952 445.808C401.352 445.808 402.952 447.584 402.952 449.952C402.952 450.192 402.952 450.384 402.936 450.576H397.032C397.256 451.616 398.04 452.272 399.112 452.272C399.896 452.272 400.488 451.936 400.92 451.312L402.472 452.512C401.64 453.664 400.488 454.176 399.08 454.176ZM397.048 449.184H400.856C400.68 448.224 400.008 447.6 398.984 447.6C398.008 447.6 397.288 448.192 397.048 449.184ZM404.462 454V445.984H406.478V446.736C406.926 446.208 407.678 445.808 408.606 445.808C410.35 445.808 411.742 447.072 411.742 449.088V454H409.63V449.488C409.63 448.432 409.038 447.776 408.11 447.776C407.198 447.776 406.574 448.432 406.574 449.488V454H404.462ZM413.696 454V445.984H415.808V454H413.696ZM414.736 445.12C414.048 445.12 413.472 444.544 413.472 443.856C413.472 443.152 414.048 442.592 414.736 442.592C415.44 442.592 416 443.152 416 443.856C416 444.544 415.44 445.12 414.736 445.12ZM417.837 454V445.984H419.853V446.736C420.301 446.208 421.053 445.808 421.981 445.808C423.725 445.808 425.117 447.072 425.117 449.088V454H423.005V449.488C423.005 448.432 422.413 447.776 421.485 447.776C420.573 447.776 419.949 448.432 419.949 449.488V454H417.837ZM430.879 457.136C428.575 457.136 427.199 455.808 426.879 454.08H429.279C429.519 454.992 430.143 455.392 431.039 455.392C431.999 455.392 432.735 454.8 432.735 453.76V452.496C432.655 452.576 432.575 452.656 432.495 452.72C431.919 453.248 431.135 453.488 430.303 453.488C428.127 453.488 426.591 451.776 426.591 449.648C426.591 447.504 428.223 445.808 430.367 445.808C431.343 445.808 432.159 446.176 432.671 446.704C432.767 446.784 432.831 446.864 432.895 446.944V445.984H434.815V453.488C434.815 455.824 433.215 457.136 430.879 457.136ZM430.767 451.68C431.951 451.68 432.767 450.816 432.767 449.68C432.767 448.56 431.951 447.664 430.767 447.664C429.551 447.664 428.719 448.544 428.719 449.664C428.719 450.816 429.567 451.68 430.767 451.68ZM444.002 454.176C441.65 454.176 439.794 452.4 439.794 449.984C439.794 447.568 441.666 445.808 444.018 445.808C445.778 445.808 447.186 446.816 447.794 448.336L445.954 449.12C445.666 448.256 444.962 447.728 444.066 447.728C442.882 447.728 441.986 448.672 441.986 449.984C441.986 451.28 442.882 452.24 444.082 452.24C445.074 452.24 445.714 451.632 445.97 450.8L447.858 451.408C447.33 453.088 445.89 454.176 444.002 454.176ZM452.986 454.176C450.602 454.176 448.762 452.416 448.762 450C448.762 447.584 450.602 445.808 452.986 445.808C455.37 445.808 457.21 447.568 457.21 450C457.21 452.432 455.37 454.176 452.986 454.176ZM452.986 452.24C454.186 452.24 455.066 451.296 455.066 450C455.066 448.688 454.186 447.728 452.986 447.728C451.786 447.728 450.906 448.672 450.906 450C450.906 451.296 451.786 452.24 452.986 452.24ZM458.758 454V445.984H460.774V446.768C461.206 446.176 461.958 445.808 462.822 445.808C463.67 445.808 464.454 446.16 464.95 446.848C465.462 446.208 466.23 445.808 467.206 445.808C468.966 445.808 470.166 447.088 470.166 448.912V454H468.102V449.264C468.102 448.368 467.622 447.776 466.806 447.776C465.99 447.776 465.494 448.368 465.494 449.264V454H463.43V449.264C463.43 448.368 462.934 447.776 462.118 447.776C461.302 447.776 460.822 448.368 460.822 449.264V454H458.758ZM472.118 454V445.984H474.134V446.768C474.566 446.176 475.318 445.808 476.182 445.808C477.03 445.808 477.814 446.16 478.31 446.848C478.822 446.208 479.59 445.808 480.566 445.808C482.326 445.808 483.526 447.088 483.526 448.912V454H481.462V449.264C481.462 448.368 480.982 447.776 480.166 447.776C479.35 447.776 478.854 448.368 478.854 449.264V454H476.79V449.264C476.79 448.368 476.294 447.776 475.478 447.776C474.662 447.776 474.182 448.368 474.182 449.264V454H472.118ZM492.661 445.984V454H490.645V453.248C490.197 453.776 489.445 454.176 488.517 454.176C486.773 454.176 485.381 452.912 485.381 450.896V445.984H487.493V450.496C487.493 451.552 488.085 452.208 489.013 452.208C489.925 452.208 490.549 451.552 490.549 450.496V445.984H492.661ZM494.712 454V445.984H496.728V446.736C497.176 446.208 497.928 445.808 498.856 445.808C500.6 445.808 501.992 447.072 501.992 449.088V454H499.88V449.488C499.88 448.432 499.288 447.776 498.36 447.776C497.448 447.776 496.824 448.432 496.824 449.488V454H494.712ZM503.946 454V445.984H506.058V454H503.946ZM504.986 445.12C504.298 445.12 503.722 444.544 503.722 443.856C503.722 443.152 504.298 442.592 504.986 442.592C505.69 442.592 506.25 443.152 506.25 443.856C506.25 444.544 505.69 445.12 504.986 445.12ZM511.799 454.176C509.447 454.176 507.59 452.4 507.59 449.984C507.59 447.568 509.463 445.808 511.815 445.808C513.575 445.808 514.983 446.816 515.591 448.336L513.751 449.12C513.463 448.256 512.759 447.728 511.863 447.728C510.679 447.728 509.783 448.672 509.783 449.984C509.783 451.28 510.679 452.24 511.879 452.24C512.871 452.24 513.511 451.632 513.767 450.8L515.655 451.408C515.127 453.088 513.687 454.176 511.799 454.176ZM520.543 454.176C518.399 454.176 516.559 452.432 516.559 450C516.559 447.568 518.399 445.808 520.543 445.808C521.519 445.808 522.383 446.192 522.927 446.8V445.984H524.911V454H522.927V453.2C522.415 453.76 521.567 454.176 520.543 454.176ZM520.783 452.24C521.999 452.24 522.879 451.296 522.879 450C522.879 448.672 521.999 447.744 520.783 447.744C519.583 447.744 518.703 448.672 518.703 450C518.703 451.328 519.583 452.24 520.783 452.24ZM530.178 454.064C528.514 454.064 527.41 453.36 527.41 451.296V447.824H526.418V445.984H527.41V444.32L529.474 443.696V445.984H530.802V447.824H529.474V451.296C529.474 451.968 529.794 452.224 530.482 452.224H530.882V454.064H530.178ZM532.462 454V445.984H534.574V454H532.462ZM533.502 445.12C532.814 445.12 532.238 444.544 532.238 443.856C532.238 443.152 532.814 442.592 533.502 442.592C534.206 442.592 534.766 443.152 534.766 443.856C534.766 444.544 534.206 445.12 533.502 445.12ZM540.33 454.176C537.946 454.176 536.106 452.416 536.106 450C536.106 447.584 537.946 445.808 540.33 445.808C542.714 445.808 544.554 447.568 544.554 450C544.554 452.432 542.714 454.176 540.33 454.176ZM540.33 452.24C541.53 452.24 542.41 451.296 542.41 450C542.41 448.688 541.53 447.728 540.33 447.728C539.13 447.728 538.25 448.672 538.25 450C538.25 451.296 539.13 452.24 540.33 452.24ZM546.102 454V445.984H548.118V446.736C548.566 446.208 549.318 445.808 550.246 445.808C551.99 445.808 553.382 447.072 553.382 449.088V454H551.27V449.488C551.27 448.432 550.678 447.776 549.75 447.776C548.838 447.776 548.214 448.432 548.214 449.488V454H546.102Z" fill="#1B1B21"/>
<rect x="228.5" y="476.5" width="19" height="19" rx="9.5" fill="white"/>
<rect x="228.5" y="476.5" width="19" height="19" rx="9.5" stroke="#7E838F"/>
<path d="M264.512 494.176C261.264 494.176 258.656 491.6 258.656 488.4C258.656 485.2 261.28 482.624 264.512 482.624C267.76 482.624 270.384 485.216 270.384 488.4C270.384 491.6 267.76 494.176 264.512 494.176ZM264.512 492.048C266.544 492.048 268 490.432 268 488.4C268 486.368 266.56 484.752 264.512 484.752C262.48 484.752 261.04 486.368 261.04 488.4C261.04 490.432 262.464 492.048 264.512 492.048ZM275.162 494.064C273.498 494.064 272.394 493.36 272.394 491.296V487.824H271.402V485.984H272.394V484.32L274.458 483.696V485.984H275.786V487.824H274.458V491.296C274.458 491.968 274.778 492.224 275.466 492.224H275.866V494.064H275.162ZM277.446 494V482.8H279.558V486.64C280.022 486.144 280.742 485.808 281.59 485.808C283.334 485.808 284.726 487.072 284.726 489.088V494H282.614V489.488C282.614 488.432 282.022 487.776 281.094 487.776C280.182 487.776 279.558 488.432 279.558 489.488V494H277.446ZM290.392 494.176C287.992 494.176 286.184 492.4 286.184 490C286.184 487.6 287.928 485.808 290.264 485.808C292.664 485.808 294.264 487.584 294.264 489.952C294.264 490.192 294.264 490.384 294.248 490.576H288.344C288.568 491.616 289.352 492.272 290.424 492.272C291.208 492.272 291.8 491.936 292.232 491.312L293.784 492.512C292.952 493.664 291.8 494.176 290.392 494.176ZM288.36 489.184H292.168C291.992 488.224 291.32 487.6 290.296 487.6C289.32 487.6 288.6 488.192 288.36 489.184ZM295.774 494V485.984H297.79V486.976C298.286 486.288 299.038 485.872 300.158 485.872H300.222V487.92H300.11C299.086 487.92 297.838 488.24 297.838 490.544V494H295.774ZM304.618 494V485.984H306.634V486.976C307.13 486.288 307.882 485.872 309.002 485.872H309.066V487.92H308.954C307.93 487.92 306.682 488.24 306.682 490.544V494H304.618ZM313.861 494.176C311.461 494.176 309.653 492.4 309.653 490C309.653 487.6 311.397 485.808 313.733 485.808C316.133 485.808 317.733 487.584 317.733 489.952C317.733 490.192 317.733 490.384 317.717 490.576H311.813C312.037 491.616 312.821 492.272 313.893 492.272C314.677 492.272 315.269 491.936 315.701 491.312L317.253 492.512C316.421 493.664 315.269 494.176 313.861 494.176ZM311.829 489.184H315.637C315.461 488.224 314.789 487.6 313.765 487.6C312.789 487.6 312.069 488.192 311.829 489.184ZM322.731 494.176C320.587 494.176 318.747 492.432 318.747 490C318.747 487.568 320.587 485.808 322.731 485.808C323.707 485.808 324.571 486.192 325.115 486.8V485.984H327.099V494H325.115V493.2C324.603 493.76 323.755 494.176 322.731 494.176ZM322.971 492.24C324.187 492.24 325.067 491.296 325.067 490C325.067 488.672 324.187 487.744 322.971 487.744C321.771 487.744 320.891 488.672 320.891 490C320.891 491.328 321.771 492.24 322.971 492.24ZM331.709 494.176C329.981 494.176 328.797 493.232 328.637 491.536H330.653C330.701 492.128 331.117 492.528 331.757 492.528C332.301 492.528 332.653 492.224 332.653 491.792C332.653 491.264 332.237 491.04 330.989 490.736C329.693 490.416 328.749 489.648 328.749 488.24C328.749 486.816 329.949 485.808 331.629 485.808C333.261 485.808 334.429 486.656 334.557 488.336H332.589C332.509 487.744 332.157 487.44 331.629 487.44C331.085 487.44 330.765 487.76 330.765 488.128C330.765 488.608 331.085 488.832 332.397 489.152C333.693 489.488 334.653 490.32 334.653 491.648C334.653 493.2 333.485 494.176 331.709 494.176ZM339.955 494.176C337.571 494.176 335.731 492.416 335.731 490C335.731 487.584 337.571 485.808 339.955 485.808C342.339 485.808 344.179 487.568 344.179 490C344.179 492.432 342.339 494.176 339.955 494.176ZM339.955 492.24C341.155 492.24 342.035 491.296 342.035 490C342.035 488.688 341.155 487.728 339.955 487.728C338.755 487.728 337.875 488.672 337.875 490C337.875 491.296 338.755 492.24 339.955 492.24ZM345.727 494V485.984H347.743V486.736C348.191 486.208 348.943 485.808 349.871 485.808C351.615 485.808 353.007 487.072 353.007 489.088V494H350.895V489.488C350.895 488.432 350.303 487.776 349.375 487.776C348.463 487.776 347.839 488.432 347.839 489.488V494H345.727Z" fill="#1B1B21"/>
<path d="M553.872 557.154C551.072 557.154 548.804 554.97 548.804 552.1C548.804 549.3 551.1 547.046 553.9 547.046C555.986 547.046 557.526 548.18 558.338 549.818L556.616 550.686C556.14 549.65 555.216 548.908 553.9 548.908C552.192 548.908 550.904 550.28 550.904 552.072C550.904 553.878 552.192 555.292 553.9 555.292C555.216 555.292 556.154 554.494 556.616 553.472L558.366 554.354C557.554 556.02 555.972 557.154 553.872 557.154ZM562.555 557.154C560.679 557.154 559.069 555.628 559.069 553.5C559.069 551.372 560.679 549.832 562.555 549.832C563.409 549.832 564.165 550.168 564.641 550.7V549.986H566.377V557H564.641V556.3C564.193 556.79 563.451 557.154 562.555 557.154ZM562.765 555.46C563.829 555.46 564.599 554.634 564.599 553.5C564.599 552.338 563.829 551.526 562.765 551.526C561.715 551.526 560.945 552.338 560.945 553.5C560.945 554.662 561.715 555.46 562.765 555.46ZM568.158 557V549.986H569.922V550.644C570.314 550.182 570.972 549.832 571.784 549.832C573.31 549.832 574.528 550.938 574.528 552.702V557H572.68V553.052C572.68 552.128 572.162 551.554 571.35 551.554C570.552 551.554 570.006 552.128 570.006 553.052V557H568.158ZM579.486 557.154C577.428 557.154 575.804 555.6 575.804 553.486C575.804 551.372 577.442 549.832 579.5 549.832C581.04 549.832 582.272 550.714 582.804 552.044L581.194 552.73C580.942 551.974 580.326 551.512 579.542 551.512C578.506 551.512 577.722 552.338 577.722 553.486C577.722 554.62 578.506 555.46 579.556 555.46C580.424 555.46 580.984 554.928 581.208 554.2L582.86 554.732C582.398 556.202 581.138 557.154 579.486 557.154ZM587.333 557.154C585.233 557.154 583.651 555.6 583.651 553.5C583.651 551.4 585.177 549.832 587.221 549.832C589.321 549.832 590.721 551.386 590.721 553.458C590.721 553.668 590.721 553.836 590.707 554.004H585.541C585.737 554.914 586.423 555.488 587.361 555.488C588.047 555.488 588.565 555.194 588.943 554.648L590.301 555.698C589.573 556.706 588.565 557.154 587.333 557.154ZM585.555 552.786H588.887C588.733 551.946 588.145 551.4 587.249 551.4C586.395 551.4 585.765 551.918 585.555 552.786ZM592.042 557V547.2H593.89V557H592.042Z" fill="#4F166E"/>
<path d="M623 534.5H706C710.142 534.5 713.5 537.858 713.5 542V562C713.5 566.142 710.142 569.5 706 569.5H623C618.858 569.5 615.5 566.142 615.5 562V542C615.5 537.987 618.651 534.711 622.614 534.51L623 534.5Z" fill="#DB3000"/>
<path d="M623 534.5H706C710.142 534.5 713.5 537.858 713.5 542V562C713.5 566.142 710.142 569.5 706 569.5H623C618.858 569.5 615.5 566.142 615.5 562V542C615.5 537.987 618.651 534.711 622.614 534.51L623 534.5Z" stroke="#DB3000"/>
<path d="M628.171 557V547.2H631.783C633.953 547.2 635.059 548.474 635.059 550.154C635.059 551.218 634.597 552.184 633.617 552.716L635.395 557H633.015L631.573 553.136H630.341V557H628.171ZM630.341 551.316H631.755C632.525 551.316 632.945 550.854 632.945 550.252C632.945 549.636 632.525 549.174 631.783 549.174H630.341V551.316ZM639.523 557.154C637.395 557.154 635.799 555.6 635.799 553.5C635.799 551.4 637.339 549.832 639.411 549.832C641.511 549.832 642.953 551.386 642.953 553.472C642.953 553.71 642.939 553.892 642.925 554.06H637.941C638.137 554.83 638.725 555.264 639.537 555.264C640.153 555.264 640.643 555.012 640.993 554.536L642.505 555.712C641.763 556.72 640.727 557.154 639.523 557.154ZM637.941 552.744H640.881C640.713 552.03 640.209 551.582 639.439 551.582C638.697 551.582 638.151 552.016 637.941 552.744ZM644.162 559.59V549.986H646.08V550.616C646.5 550.154 647.228 549.832 648.068 549.832C649.958 549.832 651.554 551.358 651.554 553.486C651.554 555.614 649.958 557.14 648.068 557.14C647.368 557.14 646.724 556.916 646.262 556.524V559.59H644.162ZM647.802 555.236C648.754 555.236 649.426 554.508 649.426 553.486C649.426 552.478 648.754 551.75 647.802 551.75C646.864 551.75 646.192 552.478 646.192 553.486C646.192 554.522 646.864 555.236 647.802 555.236ZM656.107 557.154C654.007 557.154 652.383 555.614 652.383 553.5C652.383 551.386 654.007 549.832 656.107 549.832C658.235 549.832 659.859 551.372 659.859 553.5C659.859 555.628 658.235 557.154 656.107 557.154ZM656.107 555.236C657.045 555.236 657.745 554.508 657.745 553.5C657.745 552.478 657.045 551.736 656.107 551.736C655.183 551.736 654.497 552.464 654.497 553.5C654.497 554.508 655.183 555.236 656.107 555.236ZM661.101 557V549.986H663.089V550.784C663.523 550.224 664.153 549.888 665.105 549.888H665.175V551.904H665.049C664.265 551.904 663.145 552.086 663.145 554.116V557H661.101ZM669.265 557.056C667.753 557.056 666.703 556.398 666.703 554.48V551.806H665.891V549.986H666.703V548.572L668.747 547.97V549.986H669.825V551.806H668.747V554.48C668.747 555.026 668.999 555.236 669.559 555.236H669.909V557.056H669.265ZM678.023 557.154C675.643 557.154 674.243 555.516 674.243 553.234V547.2H676.413V553.388C676.413 554.424 676.931 555.152 678.023 555.152C679.115 555.152 679.633 554.424 679.633 553.388V547.2H681.803V553.234C681.803 555.516 680.375 557.154 678.023 557.154ZM685.656 557.154C684.116 557.154 683.066 556.3 682.94 554.788H684.9C684.928 555.222 685.208 555.544 685.698 555.544C686.104 555.544 686.328 555.32 686.328 555.026C686.328 554.662 686.02 554.48 684.97 554.228C683.878 553.976 682.996 553.29 682.996 552.03C682.996 550.742 684.074 549.832 685.6 549.832C687.042 549.832 688.092 550.602 688.204 552.114H686.3C686.244 551.666 685.992 551.428 685.586 551.428C685.18 551.428 684.984 551.666 684.984 551.918C684.984 552.268 685.222 552.436 686.342 552.716C687.462 552.996 688.302 553.738 688.302 554.9C688.302 556.286 687.238 557.154 685.656 557.154ZM692.871 557.154C690.743 557.154 689.147 555.6 689.147 553.5C689.147 551.4 690.687 549.832 692.759 549.832C694.859 549.832 696.301 551.386 696.301 553.472C696.301 553.71 696.287 553.892 696.273 554.06H691.289C691.485 554.83 692.073 555.264 692.885 555.264C693.501 555.264 693.991 555.012 694.341 554.536L695.853 555.712C695.111 556.72 694.075 557.154 692.871 557.154ZM691.289 552.744H694.229C694.061 552.03 693.557 551.582 692.787 551.582C692.045 551.582 691.499 552.016 691.289 552.744ZM697.51 557V549.986H699.498V550.784C699.932 550.224 700.562 549.888 701.514 549.888H701.584V551.904H701.458C700.674 551.904 699.554 552.086 699.554 554.116V557H697.51Z" fill="white"/>
</g>
<defs>
<clipPath id="clip0_21_16542">
<path d="M194 115C194 108.373 199.373 103 206 103H734C740.627 103 746 108.373 746 115V590C746 596.627 740.627 602 734 602H206C199.373 602 194 596.627 194 590V115Z" fill="white"/>
</clipPath>
</defs>
</svg>
