<svg width="953" height="953" viewBox="0 0 953 953" fill="none" xmlns="http://www.w3.org/2000/svg">
<path d="M345.665 327.902C322.854 336.572 305.184 350.06 292.654 368.364C280.124 386.348 273.859 408.506 273.859 434.838C273.859 446.72 274.984 455.069 277.233 459.886C279.482 464.382 280.606 466.951 280.606 467.593C263.257 467.593 250.245 464.061 241.571 456.996C233.218 449.61 229.041 437.568 229.041 420.869C229.041 400.317 237.394 380.407 254.101 361.139C271.128 341.55 292.815 325.815 319.159 313.933C345.504 301.73 371.849 295.628 398.193 295.628C402.691 295.628 409.117 295.95 417.47 296.592L421.807 592.834L523.01 298.037H584.213L588.55 592.834L689.752 298.037H723.486L589.514 656.899H520.118L514.335 411.717L422.771 656.899H353.375L345.665 327.902Z" fill="url(#paint0_linear_2710_752)"/>
<path d="M853.61 767.774C792.409 847.01 707.804 904.956 611.805 933.386C515.806 961.816 413.291 959.285 318.813 926.152C224.334 893.019 142.692 830.969 85.4754 748.809C28.2591 666.648 -1.62398 568.553 0.0680515 468.447C1.76008 368.341 34.9412 271.312 94.9014 191.132C154.862 110.952 238.554 51.6965 334.099 21.7758C429.643 -8.14495 532.185 -7.21007 627.168 24.4477C722.152 56.1055 804.75 116.878 863.238 198.137L824.452 226.055C771.829 152.945 697.515 98.2675 612.058 69.7847C526.6 41.302 434.343 40.4608 348.38 67.3807C262.418 94.3007 187.119 147.614 133.173 219.752C79.2258 291.891 49.3725 379.189 47.8501 469.255C46.3278 559.321 73.2139 647.578 124.692 721.498C176.17 795.419 249.624 851.246 334.627 881.056C419.631 910.865 511.864 913.143 598.235 887.564C684.606 861.986 760.726 809.851 815.789 738.561L853.61 767.774Z" fill="url(#paint1_linear_2710_752)"/>
<defs>
<linearGradient id="paint0_linear_2710_752" x1="476.264" y1="295.628" x2="476.264" y2="656.899" gradientUnits="userSpaceOnUse">
<stop stop-color="#8B5CF6"/>
<stop offset="1" stop-color="#6366F1"/>
</linearGradient>
<linearGradient id="paint1_linear_2710_752" x1="476.5" y1="0" x2="476.5" y2="953" gradientUnits="userSpaceOnUse">
<stop stop-color="#8B5CF6"/>
<stop offset="1" stop-color="#6366F1"/>
</linearGradient>
</defs>
</svg>
